<svg width="250" height="250" viewBox="0 0 250 250" fill="none" xmlns="http://www.w3.org/2000/svg">
<path fill-rule="evenodd" clip-rule="evenodd" d="M13 76.9446C13 106.488 32.5828 131.352 59.1924 138.691C51.1394 149.134 46.3336 162.321 46.3336 176.656C46.3336 210.535 73.1779 238 106.292 238C139.406 238 166.25 210.535 166.25 176.656C166.25 169.655 165.104 162.928 162.993 156.661C167.034 157.5 171.217 157.941 175.5 157.941C210.018 157.941 238 129.312 238 93.9965C238 58.6809 210.018 30.0519 175.5 30.0519C158.35 30.0519 142.814 37.1187 131.521 48.5614C121.301 27.4865 100.054 13 75.5 13C40.9822 13 13 41.629 13 76.9446ZM32.5221 93.9688C36.4832 104.949 44.2983 114.02 54.2882 119.463C60.7835 123.003 68.1982 125.008 76.0707 125.008C94.0516 125.008 109.644 114.545 117.349 99.2455C120.626 92.7378 122.476 85.3549 122.476 77.53C122.476 74.8669 122.262 72.255 121.85 69.7113C118.206 47.21 99.0968 30.0519 76.0707 30.0519C67.7614 30.0519 59.9622 32.2863 53.2157 36.1998C52.1589 36.8129 51.128 37.4671 50.1249 38.1604C37.781 46.6926 29.6652 61.1416 29.6652 77.53C29.6652 80.0594 29.8585 82.5427 30.2309 84.9651C30.7092 88.0771 31.4831 91.0886 32.5221 93.9688ZM78.263 85.3696C87.6701 87.2255 95.3538 87.0262 104.572 85.3696C114.316 82.8885 97.9946 113.419 75.3399 112.048C56.8413 112.048 41.8451 96.7056 41.8451 77.7794C41.8451 74.069 42.7602 66.8502 45.9862 68.0593C56.4567 77.2199 64.5923 82.6727 78.263 85.3696ZM71.564 55.224C71.564 58.6652 68.8374 61.4548 65.474 61.4548C62.1106 61.4548 59.384 58.6652 59.384 55.224C59.384 51.7829 62.1106 48.9933 65.474 48.9933C68.8374 48.9933 71.564 51.7829 71.564 55.224ZM96.6547 71.6731C100.018 71.6731 102.745 68.8835 102.745 65.4424C102.745 62.0013 100.018 59.2117 96.6547 59.2117C93.2913 59.2117 90.5647 62.0013 90.5647 65.4424C90.5647 68.8835 93.2913 71.6731 96.6547 71.6731ZM127.386 113.149C133.477 104.238 137.997 92.9068 137.997 81.2076C137.997 80.2064 138.01 79.2163 138.022 78.2363C138.081 73.4511 138.137 68.9062 136.746 64.4915C145.279 53.8747 158.217 47.1038 172.701 47.1038C198.397 47.1038 219.228 68.4163 219.228 94.7065C219.228 120.997 198.397 142.309 172.701 142.309C153.276 142.309 134.354 130.451 127.386 113.149ZM157.719 108.165C160.746 108.165 163.2 105.654 163.2 102.557C163.2 99.4602 160.746 96.9495 157.719 96.9495C154.692 96.9495 152.238 99.4602 152.238 102.557C152.238 105.654 154.692 108.165 157.719 108.165ZM190.484 118.757C190.484 121.854 188.03 124.365 185.003 124.365C181.975 124.365 179.522 121.854 179.522 118.757C179.522 115.66 181.975 113.149 185.003 113.149C188.03 113.149 190.484 115.66 190.484 118.757ZM156.262 119.584C153.457 116.763 150.921 116.14 149.315 119.584C148.885 120.508 149.448 122.673 150.086 123.462C151.251 124.899 153.628 127.266 157.848 129.326C162.041 131.372 165.23 131.606 167.172 131.687C168.256 131.732 170.163 130.849 170.63 129.848C171.878 127.173 170.991 125.295 167.939 124.741C167.684 124.695 167.428 124.655 167.172 124.616L167.172 124.616C166.652 124.536 166.132 124.456 165.625 124.319C164.204 123.933 162.634 123.378 160.995 122.578C159.078 121.642 157.511 120.59 156.262 119.584ZM62.9977 177.47C62.9977 180.116 63.2204 182.709 63.6476 185.23C65.5103 196.222 71.2619 205.851 79.3997 212.578C86.9683 218.834 96.601 222.581 107.089 222.581C131.44 222.581 151.18 202.384 151.18 177.47C151.18 168.501 148.622 160.143 144.211 153.119C134.357 149.373 125.872 142.748 119.733 134.242C115.9 133.07 111.848 132.417 107.655 132.363C99.4571 138.555 89.4764 142.419 78.6457 143C69.0752 151.275 62.9977 163.646 62.9977 177.47ZM104.262 175.975C103.78 176.471 103.519 176.937 103.238 177.437L103.238 177.437L103.235 177.442C103.169 177.56 103.101 177.681 103.029 177.804C98.6588 185.29 100.66 194.746 107.498 198.925C114.337 203.105 123.423 200.424 127.794 192.939C127.876 192.799 127.957 192.66 128.038 192.523L128.043 192.515L128.049 192.504C129.072 190.768 129.983 189.222 129.925 186.911C129.901 185.928 127.392 185.446 124.258 184.843L124.257 184.843C121.522 184.317 118.311 183.7 115.859 182.579C114.153 181.8 111.719 180.232 109.517 178.814L109.517 178.814L109.517 178.814L109.516 178.813L109.516 178.813C106.885 177.119 104.587 175.639 104.262 175.975ZM108.185 165.008C111.212 165.008 113.666 162.498 113.666 159.401C113.666 156.304 111.212 153.793 108.185 153.793C105.158 153.793 102.704 156.304 102.704 159.401C102.704 162.498 105.158 165.008 108.185 165.008ZM140.462 172.859C140.462 175.956 138.008 178.467 134.981 178.467C131.954 178.467 129.5 175.956 129.5 172.859C129.5 169.762 131.954 167.252 134.981 167.252C138.008 167.252 140.462 169.762 140.462 172.859Z" fill="currentColor"/>
</svg>