<svg xmlns="http://www.w3.org/2000/svg" class="icon icon-tabler" width="24" height="24" stroke-width="2" stroke="currentColor" fill="currentColor" stroke-linecap="round" stroke-linejoin="round">
  <path d="M11.969 3.955A9 9 0 0 0 6.4 20H17.6a9 9 0 0 0-5.631-16.045zM15.529 8.5a1 1 0 0 1 .678 1.707l-1.51 1.51c.189.391.303.823.303 1.283 0 1.645-1.355 3-3 3s-3-1.355-3-3 1.355-3 3-3c.46 0 .892.114 1.283.303l1.51-1.51a1 1 0 0 1 .736-.293zM12 12c-.564 0-1 .436-1 1s.436 1 1 1 1-.436 1-1-.436-1-1-1z"/>
</svg>
