<svg xmlns="http://www.w3.org/2000/svg" class="icon icon-tabler" viewBox="0 0 24 24" width="24" height="24" fill="none" stroke="currentColor" stroke-width="2" stroke-linecap="round" stroke-linejoin="round">
  <path d="M10 9.07l-.1.1a.87.87 0 0 1-.59.24.82.82 0 0 1-.59-.24l-.83-.82a.86.86 0 0 1 0-1.19l4-4a.82.82 0 0 1 .59-.25.83.83 0 0 1 .59.25l.82.82a.83.83 0 0 1 .25.59.82.82 0 0 1-.25.59l-.1.11h0a14.27 14.27 0 0 0 4.6 4.61l.11-.11a.87.87 0 0 1 .59-.24.82.82 0 0 1 .59.24l.83.83a.85.85 0 0 1 0 1.18l-4 4a.85.85 0 0 1-1.18 0l-.8-.78a.81.81 0 0 1 0-1.16h0l.1-.11m-1.49-1.37l-8 8.4-.14.16a1 1 0 0 1-.48.16h-.11a.88.88 0 0 1-.63-.26l-.9-.9a.92.92 0 0 1-.1-1.17 1 1 0 0 1 .16-.2l8.39-8"/>
  <path d="M13.91 5.17l-.1.11-.37.37-3.71 3.71A14.69 14.69 0 0 1 14.34 14l4.18-4.19"/>
  <path d="M21.37,20.75a.31.31,0,0,1,0,.23.26.26,0,0,1-.2.1H12.74a.28.28,0,0,1-.21-.1.31.31,0,0,1,0-.23L13,19.23a.85.85,0,0,1,.81-.6h6.37a.83.83,0,0,1,.8.6l.45,1.52Z"/>
</svg>
