<svg width="800" height="1012" viewBox="0 0 800 1012" fill="none" xmlns="http://www.w3.org/2000/svg">
<g clip-path="url(#clip0_496_5222)">
<path d="M580 617.231L540 639.922V440.736C470.991 458.498 420 521.142 420 595.696V707.994L400 719.339L380 707.994V595.696C380 521.142 329.009 458.498 260 440.736V639.922L220 617.231V182.162L260 159.471V399.696C321.765 412.234 373.195 453.236 400 508.413C426.805 453.236 478.235 412.234 540 399.696V159.471L580 182.162V617.231Z" fill="#070727"/>
<path d="M500 662.612V595.696C477.909 595.696 460 613.604 460 635.696V685.303L500 662.612Z" fill="#070727"/>
<path d="M340 635.696V685.303L300 662.612V595.696C322.091 595.696 340 613.604 340 635.696Z" fill="#070727"/>
<path d="M340 116.696V289.696L300 312.387V139.387L340 116.696Z" fill="#070727"/>
<path d="M420 91.3988V264.041L400 252.696L380 264.041V91.3988L400 80.0531L420 91.3988Z" fill="#070727"/>
<path d="M460 116.696V289.696L500 312.387V139.387L460 116.696Z" fill="#070727"/>
<path fill-rule="evenodd" clip-rule="evenodd" d="M660 623.267C660 649.449 645.788 673.567 622.884 686.252L434.884 790.375C413.181 802.395 386.819 802.395 365.116 790.375L177.116 686.252C154.212 673.567 140 649.449 140 623.267V176.124C140 149.942 154.212 125.824 177.116 113.139L365.116 9.016C386.819 -3.00403 413.181 -3.00403 434.884 9.016L622.884 113.139C645.788 125.824 660 149.942 660 176.124V623.267ZM599.736 147.37C612.261 154.475 620 167.763 620 182.162V617.229C620 631.629 612.261 644.917 599.736 652.021L419.736 754.13C407.495 761.075 392.505 761.075 380.264 754.13L200.264 652.021C187.739 644.917 180 631.629 180 617.229V182.162C180 167.763 187.739 154.475 200.264 147.37L380.264 45.2609C392.505 38.3167 407.495 38.3167 419.736 45.2609L599.736 147.37Z" fill="#070727"/>
<path fill-rule="evenodd" clip-rule="evenodd" d="M726.094 958.517C733.573 963.175 741.839 965.504 750.893 965.504C760.734 965.504 769.623 962.749 777.561 957.238C785.499 951.662 791.469 944.511 795.471 935.785L770.968 930.078C768.672 933.62 765.785 936.441 762.308 938.541C758.897 940.575 755.092 941.559 750.893 941.493C746.825 941.427 743.184 940.542 739.97 938.836C736.755 937.065 734.098 934.736 731.999 931.849C729.899 928.897 728.391 925.584 727.472 921.91H799.407C800.523 914.037 800.064 906.493 798.03 899.276C795.996 892.06 792.749 885.631 788.288 879.989C783.826 874.347 778.381 869.918 771.952 866.704C765.588 863.424 758.569 861.783 750.893 861.783C744.136 861.783 737.772 863.128 731.802 865.818C725.832 868.508 720.584 872.247 716.057 877.036C711.596 881.76 708.086 887.271 705.527 893.569C702.969 899.801 701.689 906.493 701.689 913.644C701.689 923.157 703.887 931.849 708.283 939.722C712.744 947.594 718.681 953.859 726.094 958.517ZM775.101 903.902H726.685C727.538 899.9 729.112 896.324 731.408 893.175C733.77 889.961 736.624 887.435 739.97 885.598C743.315 883.695 746.957 882.744 750.893 882.744C754.829 882.744 758.503 883.695 761.914 885.598C765.326 887.5 768.18 890.059 770.476 893.274C772.838 896.423 774.379 899.965 775.101 903.902Z" fill="#070727"/>
<path d="M688.535 900.753V962.946H664.523V907.051C664.523 903.18 663.572 899.67 661.669 896.521C659.767 893.306 657.208 890.781 653.994 888.944C650.845 887.041 647.335 886.09 643.464 886.09C639.594 886.09 636.051 887.041 632.836 888.944C629.687 890.781 627.161 893.306 625.259 896.521C623.422 899.67 622.503 903.18 622.503 907.051V962.946H598.492L598.394 864.539H622.405L622.503 873.297C625.849 869.754 629.851 866.966 634.509 864.932C639.167 862.833 644.186 861.783 649.565 861.783C656.716 861.783 663.244 863.555 669.148 867.097C675.053 870.574 679.744 875.265 683.221 881.17C686.763 887.008 688.535 893.536 688.535 900.753Z" fill="#070727"/>
<path fill-rule="evenodd" clip-rule="evenodd" d="M481.74 864.342H457.729V876.249C454.645 871.919 450.775 868.442 446.117 865.818C441.459 863.128 436.079 861.783 429.978 861.783C422.893 861.783 416.267 863.128 410.1 865.818C403.933 868.508 398.488 872.247 393.764 877.036C389.106 881.76 385.432 887.238 382.743 893.47C380.118 899.703 378.806 906.395 378.806 913.545C378.806 920.696 380.118 927.388 382.743 933.62C385.432 939.853 389.106 945.364 393.764 950.153C398.488 954.876 403.933 958.583 410.1 961.273C416.267 963.963 422.893 965.307 429.978 965.307C436.079 965.307 441.459 963.963 446.117 961.273C450.775 958.583 454.645 955.073 457.729 950.743V964.619C457.729 968.227 456.909 971.442 455.268 974.263C453.694 977.149 451.496 979.577 448.675 981.545C445.854 983.578 442.672 985.12 439.13 986.17C435.653 987.219 432.012 987.744 428.207 987.744C424.467 987.744 420.859 986.957 417.382 985.383C413.905 983.874 410.821 981.741 408.132 978.986C405.507 976.296 403.539 973.147 402.227 969.539L380.282 979.478C382.841 985.711 386.548 991.254 391.402 996.109C396.323 1001.03 401.965 1004.9 408.328 1007.72C414.692 1010.54 421.318 1011.95 428.207 1011.95C435.292 1011.95 442.049 1010.8 448.478 1008.51C454.908 1006.28 460.615 1003.06 465.601 998.864C470.587 994.731 474.523 989.745 477.41 983.906C480.297 978.133 481.74 971.704 481.74 964.619V864.342ZM443.656 938.344C439.786 940.903 435.325 942.182 430.273 942.182C425.353 942.182 420.859 940.903 416.791 938.344C412.724 935.785 409.476 932.341 407.049 928.011C404.622 923.681 403.408 918.859 403.408 913.545C403.408 908.232 404.622 903.41 407.049 899.08C409.476 894.75 412.724 891.305 416.791 888.747C420.859 886.123 425.353 884.811 430.273 884.811C435.259 884.811 439.687 886.123 443.558 888.747C447.494 891.371 450.578 894.848 452.808 899.178C455.104 903.508 456.253 908.297 456.253 913.545C456.253 918.728 455.137 923.517 452.907 927.913C450.676 932.243 447.593 935.72 443.656 938.344Z" fill="#070727"/>
<path d="M365.651 900.753V962.946H341.64V907.051C341.64 903.18 340.689 899.67 338.786 896.521C336.884 893.306 334.325 890.781 331.111 888.944C327.962 887.041 324.452 886.09 320.581 886.09C316.71 886.09 313.168 887.041 309.953 888.944C306.804 890.781 304.278 893.306 302.376 896.521C300.539 899.67 299.62 903.18 299.62 907.051V962.946H275.609L275.511 864.539H299.522L299.62 873.297C302.966 869.754 306.968 866.966 311.626 864.932C316.284 862.833 321.303 861.783 326.682 861.783C333.833 861.783 340.361 863.555 346.265 867.097C352.17 870.574 356.86 875.265 360.337 881.17C363.88 887.008 365.651 893.536 365.651 900.753Z" fill="#070727"/>
<path d="M93.2523 903.068V1011.78H65.6046V903.068C65.6046 877.699 49.8762 856.009 27.6477 847.224V962.513H0V815.391H5.62325C36.6162 815.391 63.849 831.489 79.4285 855.782C95.0079 831.489 122.241 815.391 153.234 815.391H158.857V962.513H131.209V847.224C108.981 856.009 93.2523 877.699 93.2523 903.068Z" fill="#070727"/>
<path fill-rule="evenodd" clip-rule="evenodd" d="M236.964 952.547H235.39C232.372 956.221 228.698 959.37 224.368 961.994C220.17 964.618 214.724 965.93 208.033 965.93C203.047 965.93 198.323 965.078 193.862 963.372C189.532 961.797 185.727 959.567 182.447 956.68C179.167 953.794 176.608 950.316 174.771 946.249C172.934 942.182 172.016 937.72 172.016 932.866C172.016 927.88 173 923.419 174.968 919.482C176.936 915.415 179.692 911.938 183.234 909.051C186.777 906.165 190.91 904 195.634 902.556C200.488 900.982 205.737 900.195 211.379 900.195C217.677 900.195 222.859 900.719 226.927 901.769C230.994 902.688 234.34 903.672 236.964 904.721V901.769C236.964 896.652 234.931 892.453 230.863 889.173C226.796 885.762 221.744 884.056 215.709 884.056C206.786 884.056 199.242 887.795 193.075 895.274L174.378 882.481C184.612 869.623 198.586 863.194 216.299 863.194C231.257 863.194 242.672 866.736 250.545 873.821C258.417 880.776 262.353 891.141 262.353 904.918V962.781H236.964V952.547ZM236.964 923.615C233.947 922.172 230.798 921.057 227.517 920.27C224.368 919.351 220.891 918.892 217.086 918.892C210.919 918.892 206.13 920.27 202.719 923.025C199.439 925.649 197.799 928.929 197.799 932.866C197.799 936.802 199.373 939.951 202.522 942.313C205.802 944.674 209.542 945.855 213.74 945.855C217.152 945.855 220.301 945.265 223.187 944.084C226.074 942.772 228.501 941.132 230.47 939.164C232.569 937.064 234.143 934.703 235.193 932.078C236.374 929.323 236.964 926.502 236.964 923.615Z" fill="#070727"/>
<path fill-rule="evenodd" clip-rule="evenodd" d="M558.273 952.547H559.848V962.781H585.237V904.918C585.237 891.141 581.3 880.776 573.428 873.821C565.555 866.736 554.14 863.194 539.182 863.194C521.469 863.194 507.495 869.623 497.261 882.481L515.958 895.274C522.125 887.795 529.669 884.056 538.592 884.056C544.627 884.056 549.679 885.762 553.746 889.173C557.814 892.453 559.848 896.652 559.848 901.769V904.721C557.223 903.672 553.878 902.688 549.81 901.769C545.743 900.719 540.56 900.195 534.262 900.195C528.62 900.195 523.371 900.982 518.517 902.556C513.793 904 509.66 906.165 506.117 909.051C502.575 911.938 499.819 915.415 497.851 919.482C495.883 923.419 494.899 927.88 494.899 932.866C494.899 937.72 495.817 942.182 497.654 946.249C499.491 950.316 502.05 953.794 505.33 956.68C508.61 959.567 512.415 961.797 516.745 963.372C521.206 965.078 525.93 965.93 530.916 965.93C537.608 965.93 543.053 964.618 547.252 961.994C551.581 959.37 555.255 956.221 558.273 952.547ZM550.401 920.27C553.681 921.057 556.83 922.172 559.848 923.615C559.848 926.502 559.257 929.323 558.076 932.078C557.027 934.703 555.452 937.064 553.353 939.164C551.385 941.132 548.957 942.772 546.071 944.084C543.184 945.265 540.035 945.855 536.624 945.855C532.425 945.855 528.685 944.674 525.405 942.313C522.256 939.951 520.682 936.802 520.682 932.866C520.682 928.929 522.322 925.649 525.602 923.025C529.013 920.27 533.803 918.892 539.969 918.892C543.774 918.892 547.252 919.351 550.401 920.27Z" fill="#070727"/>
</g>
<defs>
<clipPath id="clip0_496_5222">
<rect width="800" height="1011.95" fill="white"/>
</clipPath>
</defs>
</svg>
