<svg width="603" height="180" viewBox="0 0 603 180" fill="none" xmlns="http://www.w3.org/2000/svg">
<g clip-path="url(#clip0_496_5206)">
<path d="M99.0755 138.983L90.0686 144.092V99.2411C74.5298 103.241 63.048 117.346 63.048 134.134V159.42L58.5446 161.975L54.0412 159.42V134.134C54.0412 117.346 42.5595 103.241 27.0206 99.2411V144.092L18.0137 138.983V41.0176L27.0206 35.9081V90.0001C40.9284 92.8232 52.5088 102.056 58.5446 114.48C64.5804 102.056 76.1608 92.8232 90.0686 90.0001V35.9081L99.0755 41.0176V138.983Z" fill="#FFF1E3"/>
<path d="M81.0618 149.201V134.134C76.0874 134.134 72.0549 138.166 72.0549 143.14V154.311L81.0618 149.201Z" fill="#FFF1E3"/>
<path d="M45.0343 143.14V154.311L36.0275 149.201V134.134C41.0018 134.134 45.0343 138.166 45.0343 143.14Z" fill="#FFF1E3"/>
<path d="M45.0343 26.2763V65.231L36.0275 70.3404V31.3857L45.0343 26.2763Z" fill="#FFF1E3"/>
<path d="M63.048 20.5802V59.4543L58.5446 56.8997L54.0412 59.4543V20.5802L58.5446 18.0255L63.048 20.5802Z" fill="#FFF1E3"/>
<path d="M72.0549 26.2763V65.231L81.0618 70.3404V31.3857L72.0549 26.2763Z" fill="#FFF1E3"/>
<path fill-rule="evenodd" clip-rule="evenodd" d="M117.089 140.342C117.089 146.237 113.889 151.668 108.732 154.524L66.3995 177.97C61.5126 180.676 55.5766 180.676 50.6897 177.97L8.35747 154.524C3.20024 151.668 0 146.237 0 140.342V39.6579C0 33.7625 3.20024 28.3318 8.35747 25.4755L50.6897 2.02993C55.5766 -0.676643 61.5126 -0.676642 66.3995 2.02993L108.732 25.4755C113.889 28.3318 117.089 33.7625 117.089 39.6579V140.342ZM103.52 33.1833C106.34 34.7831 108.082 37.7752 108.082 41.0175V138.982C108.082 142.225 106.34 145.217 103.52 146.816L62.9887 169.809C60.2323 171.372 56.8569 171.372 54.1005 169.809L13.5696 146.816C10.7495 145.217 9.00686 142.225 9.00686 138.982V41.0175C9.00686 37.7752 10.7495 34.7831 13.5696 33.1833L54.1005 10.1913C56.8569 8.62762 60.2323 8.62762 62.9887 10.1913L103.52 33.1833Z" fill="#FFF1E3"/>
<path fill-rule="evenodd" clip-rule="evenodd" d="M557.337 130.007C561.897 132.847 566.937 134.267 572.457 134.267C578.457 134.267 583.877 132.587 588.717 129.227C593.557 125.827 597.177 121.467 599.577 116.147L589.317 113.747C587.517 116.987 585.157 119.547 582.237 121.427C579.317 123.267 576.057 124.187 572.457 124.187C569.097 124.147 566.037 123.347 563.277 121.787C560.557 120.227 558.317 118.127 556.557 115.487C554.797 112.807 553.677 109.767 553.197 106.367H602.157C602.517 101.487 602.017 96.9073 600.657 92.6273C599.337 88.3473 597.317 84.5873 594.597 81.3473C591.917 78.1073 588.677 75.5873 584.877 73.7873C581.117 71.9473 576.977 71.0273 572.457 71.0273C568.337 71.0273 564.457 71.8473 560.817 73.4873C557.177 75.1273 553.977 77.4073 551.217 80.3273C548.497 83.2073 546.357 86.5673 544.797 90.4073C543.237 94.2073 542.457 98.3073 542.457 102.707C542.457 108.507 543.797 113.807 546.477 118.607C549.197 123.367 552.817 127.167 557.337 130.007ZM592.017 98.4473H552.897C553.337 95.0073 554.457 91.9073 556.257 89.1473C558.097 86.3473 560.417 84.1273 563.217 82.4873C566.017 80.8473 569.097 80.0273 572.457 80.0273C575.817 80.0273 578.917 80.8673 581.757 82.5473C584.597 84.2273 586.937 86.4673 588.777 89.2673C590.617 92.0273 591.697 95.0873 592.017 98.4473Z" fill="#FFF1E3"/>
<path d="M534.457 95.3873V132.707H524.377V97.6073C524.377 94.5673 523.637 91.8073 522.157 89.3273C520.677 86.8473 518.697 84.8873 516.217 83.4473C513.737 81.9673 510.977 81.2273 507.937 81.2273C504.937 81.2273 502.177 81.9673 499.657 83.4473C497.177 84.8873 495.197 86.8473 493.717 89.3273C492.237 91.8073 491.497 94.5673 491.497 97.6073V132.707H481.417V72.7073H491.497V80.2073C493.617 77.4073 496.297 75.1873 499.537 73.5473C502.777 71.8673 506.297 71.0273 510.097 71.0273C514.577 71.0273 518.657 72.1273 522.337 74.3273C526.057 76.4873 528.997 79.4073 531.157 83.0873C533.357 86.7673 534.457 90.8673 534.457 95.3873Z" fill="#FFF1E3"/>
<path fill-rule="evenodd" clip-rule="evenodd" d="M466.339 78.5863C461.619 74.1863 455.179 71.9863 447.019 71.9863C436.539 71.9863 428.619 75.8263 423.259 83.5063L432.979 89.6263C436.579 84.4263 441.459 81.8263 447.619 81.8263C451.699 81.8263 455.259 83.1863 458.299 85.9063C461.339 88.5463 462.859 91.7863 462.859 95.6263V98.1463C458.619 95.7463 453.219 94.5463 446.659 94.5463C438.979 94.5463 432.819 96.3463 428.179 99.9463C423.619 103.546 421.339 108.386 421.339 114.466C421.339 120.226 423.499 125.026 427.819 128.866C432.219 132.706 437.659 134.626 444.139 134.626C451.739 134.626 457.819 131.266 462.379 124.546H462.859V132.706H473.419V96.4663C473.419 88.8663 471.059 82.9063 466.339 78.5863ZM436.339 121.906C433.939 119.986 432.739 117.586 432.739 114.706C432.739 111.506 434.219 108.826 437.179 106.666C440.219 104.506 443.979 103.426 448.459 103.426C454.619 103.426 459.419 104.786 462.859 107.506C462.859 112.146 461.019 116.186 457.339 119.626C453.739 123.066 449.619 124.786 444.979 124.786C441.699 124.786 438.819 123.826 436.339 121.906Z" fill="#FFF1E3"/>
<path fill-rule="evenodd" clip-rule="evenodd" d="M403.26 72.7079H413.34V134.628C413.34 138.588 412.48 142.268 410.76 145.668C409.08 149.108 406.8 152.088 403.92 154.608C401.04 157.168 397.76 159.148 394.08 160.548C390.4 161.988 386.56 162.708 382.56 162.708C378.4 162.708 374.38 161.768 370.5 159.888C366.62 158.048 363.22 155.568 360.3 152.448C357.42 149.368 355.34 145.908 354.06 142.068L363.3 137.868C364.06 140.628 365.42 143.108 367.38 145.308C369.38 147.548 371.7 149.308 374.34 150.588C377.02 151.908 379.76 152.568 382.56 152.568C385.2 152.568 387.74 152.108 390.18 151.188C392.66 150.268 394.88 148.988 396.84 147.348C398.84 145.748 400.4 143.848 401.52 141.648C402.68 139.488 403.26 137.148 403.26 134.628V122.688C401.22 126.128 398.52 128.928 395.16 131.088C391.84 133.208 387.96 134.268 383.52 134.268C379.28 134.268 375.3 133.448 371.58 131.808C367.86 130.168 364.6 127.908 361.8 125.028C359 122.108 356.8 118.748 355.2 114.948C353.6 111.148 352.8 107.068 352.8 102.708C352.8 98.3479 353.6 94.2679 355.2 90.4679C356.8 86.6279 359 83.2679 361.8 80.3879C364.6 77.4679 367.86 75.1879 371.58 73.5479C375.3 71.9079 379.28 71.0879 383.52 71.0879C387.96 71.0879 391.84 72.1479 395.16 74.2679C398.52 76.3879 401.22 79.1879 403.26 82.6679V72.7079ZM383.58 124.488C387.46 124.488 390.82 123.488 393.66 121.488C396.54 119.488 398.76 116.828 400.32 113.508C401.88 110.188 402.66 106.588 402.66 102.708C402.66 98.7079 401.86 95.0679 400.26 91.7879C398.7 88.4679 396.48 85.8279 393.6 83.8679C390.76 81.8679 387.42 80.8679 383.58 80.8679C379.82 80.8679 376.38 81.8479 373.26 83.8079C370.14 85.7679 367.66 88.4079 365.82 91.7279C364.02 95.0079 363.12 98.6679 363.12 102.708C363.12 106.748 364.04 110.428 365.88 113.748C367.76 117.028 370.24 119.648 373.32 121.608C376.44 123.528 379.86 124.488 383.58 124.488Z" fill="#FFF1E3"/>
<path d="M344.801 132.707V95.3873C344.801 90.8673 343.701 86.7673 341.501 83.0873C339.341 79.4073 336.401 76.4873 332.681 74.3273C329.001 72.1273 324.921 71.0273 320.441 71.0273C316.641 71.0273 313.121 71.8673 309.881 73.5473C306.641 75.1873 303.961 77.4073 301.841 80.2073V72.7073H291.761V132.707H301.841V97.6073C301.841 94.5673 302.581 91.8073 304.061 89.3273C305.541 86.8473 307.521 84.8873 310.001 83.4473C312.521 81.9673 315.281 81.2273 318.281 81.2273C321.321 81.2273 324.081 81.9673 326.561 83.4473C329.041 84.8873 331.021 86.8473 332.501 89.3273C333.981 91.8073 334.721 94.5673 334.721 97.6073V132.707H344.801Z" fill="#FFF1E3"/>
<path fill-rule="evenodd" clip-rule="evenodd" d="M257.363 71.9863C265.523 71.9863 271.963 74.1863 276.683 78.5863C281.403 82.9063 283.763 88.8663 283.763 96.4663V132.706H273.203V124.546H272.723C268.163 131.266 262.083 134.626 254.483 134.626C248.003 134.626 242.563 132.706 238.163 128.866C233.843 125.026 231.683 120.226 231.683 114.466C231.683 108.386 233.963 103.546 238.523 99.9463C243.163 96.3463 249.323 94.5463 257.003 94.5463C263.563 94.5463 268.963 95.7463 273.203 98.1463V95.6263C273.203 91.7863 271.683 88.5463 268.643 85.9063C265.603 83.1863 262.043 81.8263 257.963 81.8263C251.803 81.8263 246.923 84.4263 243.323 89.6263L233.603 83.5063C238.963 75.8263 246.883 71.9863 257.363 71.9863ZM243.083 114.706C243.083 117.586 244.283 119.986 246.683 121.906C249.163 123.826 252.043 124.786 255.323 124.786C259.963 124.786 264.083 123.066 267.683 119.626C271.363 116.186 273.203 112.146 273.203 107.506C269.763 104.786 264.963 103.426 258.803 103.426C254.323 103.426 250.563 104.506 247.523 106.666C244.563 108.826 243.083 111.506 243.083 114.706Z" fill="#FFF1E3"/>
<path d="M143.9 132.75V61.2374L148.003 62.8589C162.626 68.6382 172.98 82.9078 172.98 99.6052V162.707H183.791V99.6052C183.791 82.9078 194.145 68.6382 208.768 62.8589L212.871 61.2374V132.75H223.682V49.293H223.263C205.482 49.293 189.856 58.5243 180.911 72.4724L178.386 76.4101L175.86 72.4724C166.915 58.5243 151.289 49.293 133.509 49.293H133.089V132.75H143.9Z" fill="#FFF1E3"/>
</g>
<defs>
<clipPath id="clip0_496_5206">
<rect width="602.269" height="180" fill="white"/>
</clipPath>
</defs>
</svg>
