<?xml version="1.0" encoding="UTF-8" standalone="no"?>
<svg
   xmlns:dc="http://purl.org/dc/elements/1.1/"
   xmlns:cc="http://creativecommons.org/ns#"
   xmlns:rdf="http://www.w3.org/1999/02/22-rdf-syntax-ns#"
   xmlns:svg="http://www.w3.org/2000/svg"
   xmlns="http://www.w3.org/2000/svg"
   xmlns:xlink="http://www.w3.org/1999/xlink"
   xmlns:sodipodi="http://sodipodi.sourceforge.net/DTD/sodipodi-0.dtd"
   xmlns:inkscape="http://www.inkscape.org/namespaces/inkscape"
   id="svg6434"
   version="1.1"
   viewBox="0 0 386.04257 386.04257"
   height="15.198526in"
   width="15.198526in"
   sodipodi:docname="halloween-emblem.svg"
   inkscape:version="0.92.4 (unknown)">
  <sodipodi:namedview
     pagecolor="#ffffff"
     bordercolor="#666666"
     borderopacity="1"
     objecttolerance="10"
     gridtolerance="10"
     guidetolerance="10"
     inkscape:pageopacity="0"
     inkscape:pageshadow="2"
     inkscape:window-width="1366"
     inkscape:window-height="705"
     id="namedview45"
     showgrid="false"
     fit-margin-top="0"
     fit-margin-left="0"
     fit-margin-right="0"
     fit-margin-bottom="0"
     inkscape:zoom="0.28382577"
     inkscape:cx="509.73116"
     inkscape:cy="645.52281"
     inkscape:window-x="0"
     inkscape:window-y="30"
     inkscape:window-maximized="1"
     inkscape:current-layer="svg6434" />
  <title
     id="title60">Flying Witch during Full Moon</title>
  <defs
     id="defs6428" />
  <metadata
     id="metadata6431">
    <rdf:RDF>
      <cc:Work
         rdf:about="">
        <dc:format>image/svg+xml</dc:format>
        <dc:type
           rdf:resource="http://purl.org/dc/dcmitype/StillImage" />
        <dc:title>Flying Witch during Full Moon</dc:title>
        <dc:date>2017-10-10</dc:date>
        <dc:creator>
          <cc:Agent>
            <dc:title>Urs Roesch</dc:title>
          </cc:Agent>
        </dc:creator>
        <cc:license
           rdf:resource="http://creativecommons.org/publicdomain/zero/1.0/" />
        <dc:publisher>
          <cc:Agent>
            <dc:title>OpenClipart</dc:title>
          </cc:Agent>
        </dc:publisher>
        <dc:subject>
          <rdf:Bag>
            <rdf:li>remix+287475</rdf:li>
            <rdf:li>remix+288242</rdf:li>
            <rdf:li>remix+170669</rdf:li>
            <rdf:li>yellow</rdf:li>
            <rdf:li>moon</rdf:li>
            <rdf:li>yellow moon</rdf:li>
            <rdf:li>full moon</rdf:li>
            <rdf:li>moon</rdf:li>
            <rdf:li>witch</rdf:li>
            <rdf:li>cat</rdf:li>
            <rdf:li>silhouette</rdf:li>
            <rdf:li>bat</rdf:li>
            <rdf:li>bats</rdf:li>
            <rdf:li>flying bat</rdf:li>
            <rdf:li>flying witch</rdf:li>
            <rdf:li>black</rdf:li>
            <rdf:li>dark</rdf:li>
            <rdf:li>night</rdf:li>
            <rdf:li>halloween</rdf:li>
            <rdf:li>walpurgis night</rdf:li>
            <rdf:li>walpurgis</rdf:li>
          </rdf:Bag>
        </dc:subject>
        <dc:description>Flying witch with cat flying during full moon. </dc:description>
        <dc:contributor>
          <cc:Agent>
            <dc:title>gnokii</dc:title>
          </cc:Agent>
        </dc:contributor>
        <dc:coverage />
      </cc:Work>
      <cc:License
         rdf:about="http://creativecommons.org/publicdomain/zero/1.0/">
        <cc:permits
           rdf:resource="http://creativecommons.org/ns#Reproduction" />
        <cc:permits
           rdf:resource="http://creativecommons.org/ns#Distribution" />
        <cc:permits
           rdf:resource="http://creativecommons.org/ns#DerivativeWorks" />
      </cc:License>
    </rdf:RDF>
  </metadata>
  <g
     transform="translate(172.66216,-262.51124)"
     style="display:none"
     id="layer11">
    <g
       style="display:inline;stroke:#ffcc00;stroke-width:0.94905508;stroke-linecap:round;stroke-linejoin:round;stroke-miterlimit:4;stroke-dasharray:none;stroke-opacity:1"
       id="g7311"
       transform="matrix(1.5805194,0,0,1.5805194,-141.81646,143.0291)">
      <path
         style="display:inline;opacity:1;fill:#000000;fill-opacity:1;fill-rule:evenodd;stroke:#ffcc00;stroke-width:0.94905508;stroke-linecap:round;stroke-linejoin:round;stroke-miterlimit:4;stroke-dasharray:none;stroke-opacity:1"
         d="m 99.31285,106.83513 c -0.997839,0.31353 -1.9098,0.75674 -2.750021,1.49639 -3.21455,2.82977 -8.536419,10.65615 -10.51341,12.04443 -0.678399,0.33531 -1.5641,-1.98878 -1.5641,-1.98878 0.0402,0.45974 -0.413869,1.13386 -0.413869,1.13386 -0.23313,-0.11255 -0.392001,-0.0421 -0.497941,0.15881 0,0 -0.760478,-0.28673 -0.99392,-0.68486 0,0 0.623451,2.40773 -0.123809,2.52711 -2.41572,0.0127 -11.28617,-3.28721 -15.545501,-3.73329 -1.113309,-0.1166 -2.113439,0.0501 -3.10857,0.3722 -1.65857,0.53675 -3.30318,1.50519 -5.43451,2.31302 0,0 7.039331,-1.06016 8.85175,0.22997 4.78499,-0.82814 8.508141,0.70961 8.47208,1.84914 2.362359,-1.15547 6.12176,-0.004 8.37568,1.51868 0.25754,0.33066 0.563491,0.55476 0.870032,0.63728 0.004,0.004 0.01,0.008 0.015,0.0117 l 0.01601,-0.005 c 0.168121,0.0404 0.33179,0.0369 0.48297,-0.0105 0.15194,-0.0486 0.288539,-0.14086 0.403019,-0.27208 l 0.01299,-0.004 c 0.0011,-0.006 0.003,-0.0125 0.005,-0.0187 0.202309,-0.2448 0.322099,-0.60484 0.34062,-1.02379 0.95627,-2.5465 3.35453,-5.66108 5.94936,-6.08667 -0.68915,-0.90824 1.456161,-4.31765 5.837039,-6.41285 0.73079,-2.10125 7.084071,-5.31248 7.084071,-5.31248 -2.20549,0.57534 -4.10712,0.73791 -5.770201,1.2605 z"
         id="path7305"
         inkscape:connector-curvature="0" />
      <path
         id="path7307"
         d="m 137.97939,137.22712 c -1.25551,0.3317 -2.41193,0.82917 -3.49635,1.69839 -4.1488,3.32548 -11.19728,12.72723 -13.7287,14.3358 -0.86058,0.37701 -1.82596,-2.5561 -1.82596,-2.5561 0.0235,0.57247 -0.57821,1.38253 -0.57821,1.38253 -0.2827,-0.15293 -0.48376,-0.0746 -0.62666,0.16845 0,0 -0.92675,-0.39916 -1.19347,-0.90629 0,0 0.63534,3.02183 -0.29826,3.1271 -2.99678,-0.12256 -13.80918,-4.72316 -19.066174,-5.52029 -1.374077,-0.20837 -2.624017,-0.0589 -3.876642,0.28361 -2.087736,0.57071 -4.18288,1.67762 -6.87248,2.55747 0,0 8.791082,-0.91175 10.965022,0.79209 5.981884,-0.75308 10.511384,1.36727 10.401414,2.77849 2.99602,-1.29778 7.5926,0.34555 10.30077,2.36311 0.30048,0.42483 0.66709,0.72029 1.04255,0.84019 0.004,0.005 0.0119,0.0105 0.0179,0.0154 l 0.0201,-0.006 c 0.20619,0.0597 0.40939,0.0647 0.59959,0.0146 0.19122,-0.0516 0.36593,-0.15818 0.51542,-0.31437 l 0.0163,-0.004 c 10e-4,-0.007 0.005,-0.0152 0.007,-0.0229 0.26493,-0.29202 0.43411,-0.73169 0.48108,-1.25023 1.3318,-3.10348 4.48454,-6.82893 7.72708,-7.20818 -0.80269,-1.16588 2.05321,-5.27149 7.60647,-7.61914 1.02667,-2.56418 9.09007,-6.18303 9.09007,-6.18303 -2.76826,0.58726 -5.13602,0.67998 -7.22855,1.23288 z"
         style="display:inline;opacity:1;fill:#000000;fill-opacity:1;fill-rule:evenodd;stroke:#ffcc00;stroke-width:0.94905508;stroke-linecap:round;stroke-linejoin:round;stroke-miterlimit:4;stroke-dasharray:none;stroke-opacity:1"
         inkscape:connector-curvature="0" />
      <path
         style="display:inline;opacity:1;fill:#000000;fill-opacity:1;fill-rule:evenodd;stroke:#ffcc00;stroke-width:0.94905508;stroke-linecap:round;stroke-linejoin:round;stroke-miterlimit:4;stroke-dasharray:none;stroke-opacity:1"
         d="m 104.92262,125.95987 c -1.63632,0.33428 -3.15752,0.88864 -4.61338,1.9256 -5.569947,3.96724 -15.306658,15.52497 -18.674472,17.40567 -1.132536,0.4213 -2.158042,-3.4154 -2.158042,-3.4154 -0.01161,0.7368 -0.843361,1.73304 -0.843361,1.73304 -0.35183,-0.21702 -0.615717,-0.13113 -0.816942,0.17055 0,0 -1.160832,-0.58018 -1.466306,-1.25082 0,0 0.595251,3.92651 -0.611242,3.99353 -3.839022,-0.37608 -17.386768,-7.0726 -24.078758,-8.47984 -1.749144,-0.36783 -3.365012,-0.26709 -4.99842,0.0812 -2.722385,0.58044 -5.493425,1.84883 -9.011181,2.78229 0,0 11.354604,-0.52934 14.021662,1.81736 7.735925,-0.53037 13.397207,2.52283 13.152999,4.32686 3.941723,-1.44773 9.723944,0.99786 13.054083,3.78613 0.354806,0.56744 0.804001,0.97358 1.277348,1.15493 0.0053,0.007 0.0145,0.0142 0.02182,0.0211 l 0.02628,-0.005 c 0.260414,0.0918 0.520949,0.11297 0.768831,0.0626 0.249303,-0.0523 0.481415,-0.1764 0.684761,-0.36603 l 0.02134,-0.004 c 0.0017,-0.009 0.0081,-0.0193 0.01124,-0.0289 0.361494,-0.35563 0.610793,-0.90784 0.70897,-1.57023 1.936583,-3.88777 6.256727,-8.44128 10.44796,-8.69159 -0.945602,-1.55561 3.021135,-6.61892 10.32306,-9.22808 1.50544,-3.21757 12.12326,-7.27577 12.12326,-7.27577 -3.59741,0.55202 -6.64448,0.49826 -9.3717,1.05548 z"
         id="path7309"
         inkscape:connector-curvature="0" />
    </g>
    <g
       style="display:inline;fill:none;stroke:#ffcc00;stroke-width:5.31496048;stroke-linecap:round;stroke-linejoin:round;stroke-miterlimit:4;stroke-dasharray:none;stroke-opacity:1"
       id="g7868"
       transform="matrix(0.28222223,0,0,0.28222223,-135.53724,400.96064)">
      <g
         style="fill:none;stroke:#ffcc00;stroke-width:5.31496048;stroke-linecap:round;stroke-linejoin:round;stroke-miterlimit:4;stroke-dasharray:none;stroke-opacity:1"
         id="g7860"
         transform="translate(1224.1105,-2349.7383)">
        <path
           d="m -318.5965,3002.0627 c 1.6636,-0.7187 2.7098,-1.7411 1.6102,-3.8248 -64.54336,-25.4341 -141.04348,-46.8949 -163.83189,-119.8981 -2.71664,-8.7836 -2.74268,-17.7491 -1.59143,-26.785 3.97317,-18.8225 3.9691,-18.7999 21.81316,-15.0101 1.69745,0.3605 3.40093,0.644 5.04503,1.2388 4.95488,0.3867 7.93309,2.4294 7.1935,8.6499 -0.3836,9.618 3.71447,19.3737 11.06305,24.2965 11.49767,-0.4155 14.94946,7.9303 17.20643,18.0493 1.16208,5.2102 3.94924,9.795 6.58485,14.3462 18.47371,28.9582 36.11197,49.9879 62.25036,60.4852 54.95104,18.9324 102.67894,9.5708 147.15694,-4.2147 2.9416,-1.903 6.9396,-2.5189 7.5978,-7.2377 -0.981,-2.4515 -3.0813,-2.7807 -5.1395,-3.2018 -46.6295,2.439 -91.3389,7.2858 -127.8971,-22.728 -2.0883,-1.5462 -3.7611,-3.6862 -5.8939,-5.0075 0.072,0.087 0.3301,0.1951 0.3959,0.2591 46.3858,46.529 196.4414,25.9214 226.5187,-18.3357 3.9909,-5.2273 14.876001,-22.2116 9.594601,-25.9583 -34.154401,34.6685 -83.493001,31.9905 -115.680001,21.5357 58.3248,-2.2658 98.5722,-10.6729 131.948901,-48.4115 1.8456,-2.0867 3.9828,-4.1554 4.4831,-7.0108 -0.01,-0.7517 -0.1798,-1.4606 -0.4926,-2.1322 -0.9124,-1.3045 -2.1888,-1.6973 -3.6224,-1.7046 -10.4152,3.6388 -20.638901,9.7471 -31.650201,11.4531 -34.975,5.4187 -43.6555,6.9178 -105.9155,-4.3932 30.7565,10.0594 105.3692,7.9122 103.4295,-10.3252 -31.736,5.2201 -68.765,4.2687 -96.5482,-8.7254 -10.7881,-5.1073 -19.9764,-13.1168 -29.99,-19.7367 -37.0415,-24.4874 -72.9805,-19.1274 -105.99158,-14.5127 -11.3319,1.5841 -21.79533,7.3672 -31.81293,13.4663 -4.30823,2.623 -8.64249,3.6237 -13.53748,1.9088 -6.67521,-2.3386 -13.26652,-0.3914 -19.82842,1.0877 -2.15946,0.7217 -4.34382,1.3592 -6.5391,1.9535 -3.12183,1.2298 -5.89981,3.2046 -8.8516,4.7976 -3.12974,1.7685 -6.33668,1.0305 -9.48313,0.205 -7.50117,-1.9683 -15.08662,-3.4981 -22.63265,-5.2307 -4.85052,-1.1137 -5.97054,-3.8854 -4.24193,-8.7906 3.18872,-9.0485 9.16123,-17.4021 9.458,-27.207 1.01716,-33.609 -17.96829,-44.9397 -38.64029,-59.9577 40.78537,-0.1677 87.78537,-11.78 110.91923,-40.5735 17.49981,-21.7812 25.08263,-52.0165 47.64508,-64.9705 40.2792,-23.1258 99.2898,-13.9904 136.3811,-11.149 37.5147,2.8738 89.2778,-1.7813 105.327801,-42.4878 0.087,-0.22 0.4495,-0.2881 0.5593,-0.5282 4.673,-10.2167 7.1929,-34.3974 2.0909,-34.1294 -11.659001,20.2161 -24.737801,38.6485 -43.928801,46.1297 -68.0458,26.5265 -148.6317,-46.2061 -216.28511,-18.5278 -43.7294,17.8905 -49.23613,104.8774 -97.56835,109.0881 -82.93688,7.2256 -108.97994,-78.8087 -172.86003,-93.3384 -2.27202,-0.3275 -0.67992,-1.5446 -1.21928,-0.6286 -0.1152,0.1958 0.0791,0.3934 0.5882,0.411 37.78098,0.3496 77.82511,7.4479 107.63253,26.4117 24.34966,15.4916 42.36422,38.2145 72.13928,34.8378 31.08907,-3.5257 54.8726,-66.7802 73.29288,-101.2635 -24.75923,6.3876 -36.55667,64.3913 -66.32436,71.4003 -46.19277,10.8763 -57.48984,-29.4573 -91.80247,-50.8047 -25.34268,-15.598 -46.60542,-14.599 -71.14764,-14.6992 26.03448,-2.0617 56.99668,1.5923 78.34302,10.7025 27.34773,12.8155 53.34737,48.6488 82.08872,43.9583 4.93517,-2.536 11.59315,-2.4664 13.17924,-10.1223 -55.03858,-8.76 -67.31459,-64.9293 -130.6648,-65.4267 -83.90017,-0.6586 -115.90423,-5.8441 -150.03363,-6.8496 42.27792,-1.5166 83.75366,4.6399 113.27989,3.9033 36.80024,-6.77 16.32418,-5.3099 -11.2626,-8.5832 -38.82207,-4.6064 -89.17069,-16.9725 -89.17069,-16.9725 -7.9749,-2.5706 -9.6186,-5.0296 -11.9342,-13.3428 -0.6343,-16.2196 -9.4677,-47.8324 -0.408,-59.6853 4.8259,-5.6194 17.0939,-1.8368 28.8521,-0.097 11.7582,1.7397 29.10829,7.2187 50.20007,19.8597 -13.50851,-36.5177 -31.84986,-49.4459 -57.47827,-59.3715 -19.6633,-7.6154 -45.5777,-25.1088 -63.827,-16.577 -18.2494,8.5318 -21.8327,33.3447 -33.7975,52.1994 -11.9649,18.8547 -19.3449,40.8374 -19.2552,61.8805 v 0 0 0 0 c -1.1983,1.5203 -3.2463,0.1718 -4.4844,1.5577 -43.3521,-1.4568 -86.7306,-1.2349 -127.9987,-2.4344 0.2645,4.9574 2.8608,6.4778 6.1095,7.3563 l -0.021,-0.01 c 34.4324,11.8778 80.1738,6.2482 113.5988,18.5172 1.8855,0.7157 3.8429,1.249 5.5904,2.331 0,0 2.4749,3.732 -1.1456,6.5365 -3.6206,2.8045 -14.3455,-2.4658 -21.6652,5.7085 -7.3197,8.1743 -20.0987,40.5039 -8.1894,46.6199 0,0 15.9901,-17.0233 25.6242,-12.9207 0.9597,0.5378 1.7263,1.2963 2.2507,2.3323 2.0454,8.792 8.4131,17.8216 10.4965,26.5961 2.1912,7.9731 -12.6486,17.0532 -9.5629,23.4878 4.4417,7.6057 19.6017,4.5052 24.5811,1.0722 6.743,-4.7475 7.2724,-4.3841 10.7876,3.4885 2.5155,5.6341 3.12,11.0335 0.9659,17.1321 -14.45,40.0748 79.2361,86.2892 40.8363,96.9689 -79.7916,24.6363 -104.6375,-30.6599 -121.8022,-19.4995 -4.0528,3.9615 0.059,8.5154 0.01,13.3921 -4.6106,1.0119 -9.3948,-0.1162 -13.9523,1.0521 -2.2226,0.6984 -4.1821,1.5785 -5.9211,2.9278 -4.6981,6.094 -10.1727,10.8306 -16.4823,8.7266 l -324.6403,-75.2976 c -2.6631,-0.2276 -4.3596,-0.9616 -5.8773,1.6207 l 0.016,-0.032 c -4.0871,7.6348 -0.3114,17.6586 4.9559,18.8839 l 332.9971,77.1737 c 7.0607,4.1786 13.4591,8.5376 20.4657,12.3239 2.9227,1.4346 5.8876,2.7203 9.0747,3.3117 2.3059,0.2042 4.59,0.2292 6.747,-0.8763 1.577,-0.997 2.8251,-2.2313 2.7013,-3.6187 5.8748,8.7586 -0.3843,15.7502 -1.7308,23.9605 -6.3537,53.9224 28.1905,100.132 55.3359,136.3861 4.2533,5.6688 8.4643,11.4343 13.3184,16.5708 1.5291,1.3696 3.2638,3.3622 5.1817,1.6089 2.0408,-1.8656 0.7934,-4.5877 0.088,-6.8037 -23.9341,-51.0795 -32.1828,-102.5921 -17.6701,-143.3278 5.5475,-9.4167 11.9509,-12.8434 20.2163,-11.2944 5.3083,0.9947 7.7596,3.9615 7.5173,9.8431 19.8943,135.4175 43.3731,215.8737 172.36215,263.9483 1.40497,0.7054 1.88353,-0.2618 2.24064,-1.4513 -1.14996,-5.4478 -5.90531,-7.6289 -8.90171,-11.3992 -25.74614,-29.789 -51.27979,-63.2699 -39.49431,-102.177 1.92597,-6.0858 3.05645,-6.2377 6.54646,-1.128 31.87402,49.146 76.07966,42.2339 106.57203,73.7637 14.81649,15.3205 28.16037,38.2756 35.4541,54.3638 0.34447,0.5904 0.79323,1.0677 1.32153,1.464 21.93302,-11.6696 13.22356,-80.0606 5.69552,-96.8338 -11.38367,-28.256 -55.25815,-45.6485 -70.34786,-74.891 33.04792,31.8148 61.65044,63.3977 94.75607,86.7049 40.28288,28.3603 95.22447,33.0964 138.39413,32.2151 z"
           id="path7856"
           style="fill:none;stroke:#ffcc00;stroke-width:5.31496048;stroke-linecap:round;stroke-linejoin:round;stroke-miterlimit:4;stroke-dasharray:none;stroke-opacity:1"
           inkscape:connector-curvature="0" />
        <path
           id="path7858"
           d="m -980.99988,2469.6343 c -48.54392,5.3482 -38.44142,74.768 -62.30452,86.5948 -7.0721,2.9335 -11.4377,-1.1618 -12.1961,-1.3701 4.826,0.4523 8.7903,-1.7437 8.5378,-2.0268 -1.4258,0.4514 -10.8796,-4.1845 -11.8422,-5.8395 4.0445,1.5802 8.0759,-0.2178 7.7284,-0.5262 -3.3398,-0.7733 -13.8679,-4.778 -14.1702,-6.0735 4.2371,1.1235 7.6568,1.0686 10.4249,0.074 -3.1332,-0.9634 -12.8679,-4.81 -14.1232,-7.1423 0.7272,0.1569 6.0827,-0.6063 6.373,-1.2103 -5.1309,-2.0817 -10.823,-3.5656 -15.6402,-6.2857 3.4815,0.4824 3.3574,-1.1439 4.9666,-1.7567 -10.7558,-2.0742 -15.014,-8.0986 -15.014,-8.0986 1.8614,2.3129 6.7419,-0.086 6.7577,-0.4554 -5.2578,-2.2046 -13.0036,-9.7511 -19.5163,-12.0092 3.0272,0.325 6.9308,-0.5238 7.5307,-1.1104 -18.4956,-13.7206 -48.8152,-10.7435 -56.0823,6.6033 -1.9541,4.6648 -6.1051,22.5556 -6.9753,22.63 -1.0183,0.087 -4.6673,-0.866 -3.152,-2.6512 0.4246,-0.3297 -4.068,0.6207 -4.7761,0.1961 -1.7701,-1.0614 0.6551,-2.076 0.6551,-2.076 -2.9497,0.3671 -6.5969,0.5283 -2.9741,-1.7075 -3.9076,-0.1214 -4.2771,0.6793 -5.5273,-0.3357 4.207,-4.9911 6.19,-13.7594 2.4025,-10.8477 -1.2841,1.6327 -5.3833,3.6135 -6.42,4.0991 2.8803,-1.7286 7.3193,-11.9079 0.704,-6.6178 -6.9494,5.5571 -17.7791,8.0985 -23.8059,15.3716 -3.2194,3.8851 -6.2373,8.6851 -5.7051,14.0196 0.2244,2.2483 -0.1195,4.8045 -0.7512,5.6778 -1.6277,2.2158 -0.1715,6.4104 2.7436,7.9282 1.2136,0.6352 1.9985,0.8674 3.0704,0.6768 -0.01,0 -0.076,0.048 -0.076,0.048 0.5739,0.5101 2.9324,2.9342 2.9324,2.9342 0,0 -0.1903,-2.9987 -0.2541,-3.6365 -0.01,-0.088 0.033,-0.1863 0.096,-0.2867 0.059,-0.026 0.1036,-0.045 0.1633,-0.07 3.2273,-1.4368 3.6869,-1.4344 5.0682,0.059 2.0833,2.257 1.6485,3.3389 -1.7656,4.4004 -4.0752,1.2665 -4.2959,1.8704 -1.5551,4.2607 3.2626,2.8472 5.4938,2.3806 8.6248,-1.7983 4.0429,-6.9365 10.5892,1.0544 9.5757,8.5778 -0.1049,6.221 2.1929,6.1033 3.9159,8.5376 -1.0649,-3.9071 -0.6861,-6.0576 -0.2032,-6.1606 -0.1007,0.6872 1.6765,6.496 4.4422,10.8785 -0.041,-1.4585 0.2317,-4.5487 0.5099,-4.5763 1.3056,-1.1321 1.0168,7.1734 4.1936,9.1002 0,0.3033 0.1014,-4.968 1.0433,-4.4168 -0.2193,1.099 1.5915,7.1456 2.5078,7.1424 -0.041,-1.1879 0.3154,-2.0504 1.2267,-2.4588 0.6073,1.3138 0.5926,2.9221 1.6677,3.7871 1.9011,1.5296 3.8894,1.1145 7.1767,1.4481 5.4141,0.5475 7.6503,9.2219 7.5197,29.1552 -0.1129,16.9298 2.764,24.3967 -4.8849,28.0938 -7.3398,4.4577 -5.8848,10.3457 -2.134,13.2757 14.8311,4.3128 22.1051,-11.2251 20.4816,-20.3419 0.1547,-4.6873 -0.5764,-16.5958 0.2304,-18.1932 4.0852,10.6665 9.1323,21.588 3.5004,30.9972 -2.1293,1.2115 -5.0576,3.7648 -5.2987,6.567 -0.7263,8.4395 11.3532,12.5476 18.1189,1.1905 7.5504,-8.9798 1.4986,-22.5551 1.0471,-31.1497 0.2481,-13.284 -2.9776,-24.7354 -5.3786,-37.9271 -0.023,-0.8112 3.1072,-1.6391 4.1481,0.2668 2.0896,-0.8641 -1.2654,-6.5475 -4.1826,-7.2821 -0.053,-0.1178 4.3841,1.253 5.1208,-0.4754 -3.9136,-2.9004 -4.8156,-4.7698 -4.8159,-4.7706 4.6346,-0.1182 4.027,-0.3932 5.9954,-0.7602 -1.1789,-0.1491 -6.2746,-2.6965 -5.1988,-3.2537 1.6471,1.1653 5.2979,2.0798 4.6453,1.125 -0.5924,-0.7915 -2.8945,-3.7605 -1.7057,-2.9813 2.7343,1.1666 2.4012,2.054 6.9337,1.6568 -0.2074,-0.2665 -1.0636,-2.2579 -0.6079,-2.8164 0,0 1.9147,1.6745 6.2313,3.5929 0.212,-2.181 2.4552,-2.5539 4.6582,-1.7038 11.503,13.8257 9.2919,45.9042 15.0631,55.9788 7.6142,14.7698 25.9057,15.7527 27.4822,29.9011 0.5866,5.8797 -0.958,10.8895 -3.1756,10.2797 -8.6877,-1.17 -16.2705,7.919 -2.6875,13.9454 2.7156,1.2048 11.4933,1.0504 16.4023,-1.401 2.683,-1.3398 6.1772,-4.9037 5.9973,-6.7068 0.7092,-1.6267 1.5071,-1.4898 3.2046,-1.7112 -1.1115,-1.1169 -2.4855,-2.8415 -3.8452,-3.9939 -5e-4,-0.052 -0.012,-1.1865 4.0611,0.2305 -3.7593,-4.3291 -6.8268,-10.8646 -4.4494,-12.2377 1.2449,-0.1242 1.5672,-1.341 1.1868,-2.5949 0.736,0.68 3.1724,2.2706 4.6508,0.9199 -1.975,-1.7658 -5.8178,-4.5434 -5.3422,-7.0261 -0.1229,-0.5267 3.5122,-1.4463 5.0645,-1.3446 -2.0094,-0.6601 -8.3029,-3.1902 -7.3182,-4.8904 0,0 6.7514,-1.0708 7.4198,-2.4842 -8.9307,-1.9975 -10.4774,-4.7397 -10.4774,-4.7397 -0.031,-0.3051 5.0021,-0.6046 6.5507,-1.1795 -0.4477,-0.5409 -9.9784,-1.4186 -10.2562,-2.6167 -1.198,-0.5901 6.9785,-0.3455 7.1876,-1.3374 -6.7265,0.1512 -22.143,-14.0987 -17.9954,-13.996 l -3.2573,-3.1956 c -0.8169,-0.9898 4.8473,3.8368 9.2872,1.4771 -4.2555,-3.2539 -8.2198,-5.7709 -8.1076,-9.2545 0.4296,2.0148 3.5111,3.2671 9.1129,0.6188 -8.6419,-3.7268 -7.1971,-9.3068 -6.7086,-9.5122 4.2121,2.2774 4.7814,0.5888 6.8593,0.5426 -2.5493,-1.0655 -5.9546,-3.8929 -7.1623,-7.1459 3.4669,1.0584 8.3799,1.1631 8.3799,1.1631 -3.7181,-1.6355 -4.4499,-6.0086 -5.0972,-8.5649 3.7423,2.9909 4.703,1.8908 7.9115,1.4227 -1.6322,-0.4249 -4.7164,-5.3231 -3.7888,-7.1586 6.0877,7.1688 28.819,5.1216 28.4312,3.0212 -3.2708,0.1023 -5.3403,-1.673 -5.3403,-1.673 0,0 10.7361,0.094 15.9431,-5.2752 -3.3829,0.4002 -5.3345,0.6898 -5.8538,-1.3464 5.5346,-1.1365 12.2118,-3.7498 16.5382,-9.9331 -7.1164,3.152 -7.5374,1.364 -7.4525,1.1632 5.9343,-3.0246 13.55427,-10.3852 18.62333,-19.8392 -1.41648,1.1091 -12.07773,5.0129 -13.55883,2.6802 9.01804,0.2833 18.63309,-10.2891 19.26942,-17.2969 -8.21223,6.966 -8.8807,3.7563 -8.8807,3.7563 0,0 11.31173,-9.4558 11.99636,-10.9438 0,0 -8.60884,2.6163 -7.27655,1.4752 1.71843,-3.1801 4.38098,-4.7088 9.4087,-5.7142 -0.41391,-2.2747 -4.62319,-6.214 -8.50508,-5.3095 0.92481,-4.0681 8.25636,-1.9796 10.16544,-0.392 0,0 -2.30858,-7.3242 -6.12431,-8.6031 0.0486,-1.9503 8.44784,-0.3343 10.23622,2.0415 0.43045,-5.0821 -6.54025,-9.9067 -7.51068,-9.6283 -0.40461,-2.9342 8.57123,-1.174 7.86819,-1.5298 0.27919,-2.849 -7.50667,-6.052 -7.99157,-5.7069 0.45999,-1.0981 6.29731,0.046 7.23847,0.2903 -1.59338,-3.2876 -7.09632,-5.9047 -8.2782,-5.1408 0.1992,-1.2785 7.34912,-2.2737 7.34912,-2.2737 -0.10146,-1.0168 -7.1686,-3.5734 -7.8681,-2.7201 0.62044,-1.2672 8.03189,-2.565 7.42167,-2.5041 -0.53617,0.053 -1.81589,-3.5562 -7.37271,-3.2337 0.0856,-1.2942 7.59291,-2.8843 5.42564,-2.5204 -2.20713,-1.5506 -8.10399,0.1143 -8.10399,0.1143 -1.69297,-0.6516 3.24175,-4.2948 3.41688,-4.1101 z m 8.00969,22.3885 c 0.006,0.012 0.0127,0.023 0.0181,0.035 0.21304,0.034 0.15163,0.01 -0.0181,-0.035 z m -59.76421,159.6148 c 0.3999,0.1313 0.6896,0.2148 0.6533,0.1742 -0.098,-0.1098 -0.35,-0.1544 -0.6533,-0.1742 z m -73.8944,-73.3119 c 0.031,0.04 0.048,0.046 0.044,0 -0.017,0 -0.027,0 -0.044,0 z"
           style="fill:none;fill-rule:evenodd;stroke:#ffcc00;stroke-width:5.31496048;stroke-linecap:round;stroke-linejoin:round;stroke-miterlimit:4;stroke-dasharray:none;stroke-opacity:1"
           inkscape:connector-curvature="0" />
      </g>
      <g
         id="g7864"
         style="display:none;fill:none;stroke:#ffcc00;stroke-width:5.31496048;stroke-linecap:round;stroke-linejoin:round;stroke-miterlimit:4;stroke-dasharray:none;stroke-opacity:1"
         transform="translate(-74.179432,-1044.196)">
        <image
           xlink:href="/home/urs/ownCloud/Drawings/Halloween/ownCloud/Drawings/Halloween/OpenClipart/ownCloud/Drawings/Halloween/Downloads/katze-1.jpg"
           y="435.4621"
           x="-908.83575"
           id="image7862"
           style="fill:none;stroke:#ffcc00;stroke-width:5.31496048;stroke-linecap:round;stroke-linejoin:round;stroke-miterlimit:4;stroke-dasharray:none;stroke-opacity:1;image-rendering:optimizeQuality"
           preserveAspectRatio="none"
           height="900"
           width="1600"
           transform="rotate(-44.225215)" />
      </g>
      <g
         style="fill:none;stroke:#ffcc00;stroke-width:5.66929102;stroke-linecap:round;stroke-linejoin:round;stroke-miterlimit:4;stroke-dasharray:none;stroke-opacity:1"
         transform="matrix(0.93286821,-0.0930761,0.0930761,0.93286821,-373.14643,236.76321)"
         id="g7866" />
    </g>
  </g>
  <g
     transform="translate(172.66216,-262.51124)"
     style="display:inline"
     id="layer9">
    <ellipse
       ry="148.11203"
       rx="152.07483"
       cy="462.63028"
       cx="20.346254"
       id="path7301"
       style="display:inline;opacity:1;fill:#ffcc00;fill-opacity:1;stroke:none;stroke-width:0.6130904;stroke-linecap:round;stroke-linejoin:round;stroke-miterlimit:4;stroke-dasharray:none;stroke-dashoffset:0;stroke-opacity:1" />
    <g
       transform="translate(3.4936053,-1.5316578)"
       id="g54">
      <path
         d="m 20.564951,295.65709 c -92.610003,0 -167.698331,73.13164 -167.698331,163.32845 0,90.19678 75.088328,163.29535 167.698331,163.29535 92.610079,0 167.664349,-73.10597 167.664349,-163.29535 0,-90.19681 -75.06194,-163.32845 -167.664349,-163.32845 z"
         style="display:inline;fill:#ffcc00;stroke:none;stroke-width:0.8394146"
         id="path6735"
         inkscape:connector-curvature="0" />
      <path
         style="display:inline;fill:#d4aa00;fill-opacity:1;stroke:none;stroke-width:0.8394146"
         d="m 35.535044,306.81571 c -7.691323,-1.54673 -16.630936,9.42962 -3.213511,5.7244 7.245785,6.40008 25.92872,-5.16453 7.156796,-5.57857 l -1.992525,-0.12843 -1.951056,-0.0172 z m -14.698697,2.38167 c -5.668398,2.73059 4.82071,2.39364 0,0 z m -38.40836,4.81511 c -16.712621,4.76253 11.6534244,4.50953 0,0 z m 13.6890418,4.06432 c -3.3499472,2.52739 2.3720953,1.37142 0,0 z m -40.2319078,2.72546 c -7.37285,6.39625 4.70368,4.19371 3.69e-4,-2e-5 z m 7.548763,0.6731 c -7.140931,4.54994 2.52779,4.38768 0,0 z m 12.572319,4.16787 c -13.156212,6.37119 8.038427,5.6165 0,0 z m 73.122622,3.39132 c -14.062194,4.70729 17.825727,11.75693 -0.13282,13.07324 -13.73826,-6.06799 -24.50024,0.48574 -26.158058,13.98712 -6.040147,6.32677 -3.725459,-11.03625 -12.9879713,-7.89154 -1.2783213,-10.9243 -21.7594937,12.63212 -15.9549553,-4.98232 2.6900521,-4.98865 12.0467937,2.29899 1.7929991,-6.40473 -11.1338755,-7.67614 -30.7949585,-7.47326 -42.3013955,-0.37787 -7.859635,11.03249 -29.315045,6.79148 -28.740155,24.46595 -3.199638,6.05265 -12.529521,1.31314 -5.273774,8.5167 -5.83553,1.81628 -17.385428,2.16591 -10.280727,-5.46445 -10.045198,-8.97218 17.784848,-15.47082 5.572841,-21.46032 -3.719999,3.58693 -20.569789,13.8432 -13.615106,1.96707 -25.419283,25.25855 -42.984603,58.95521 -46.497583,94.19904 -0.81636,11.74815 2.3821,23.34146 8.35464,31.9027 0.10884,5.70064 10.14584,2.18668 8.43128,12.63049 3.14312,9.91523 -3.94653,30.54874 3.9283,33.50143 2.26961,-2.62311 12.0924,6.91971 6.27429,-2.29411 -7.6337,-0.20338 1.48049,-20.34647 3.30929,-4.74324 4.6777,2.10216 0.0938,9.41382 10.5958,7.4564 5.760859,0.38449 1.93726,9.47808 7.753088,6.35758 -1.048615,14.74026 -19.164478,-10.53229 -14.770938,6.36576 -9.1077,-4.24392 -6.74882,-2.58797 -2.84826,3.58059 -10.22375,1.87988 -5.30822,8.63364 2.4757,9.70172 1.7702,-5.33979 7.78504,-6.8086 5.81826,-14.50044 7.714056,7.88279 19.522584,-1.88944 18.044959,10.54701 10.060321,3.8051 3.796962,-10.1304 10.84669,-14.65351 -0.594002,-4.2215 12.572835,-0.61806 5.953813,-6.75658 7.02833,-2.30849 18.517501,2.62283 6.804602,2.8993 -11.315324,8.82718 -3.354449,23.57721 6.946054,28.05412 5.846009,6.04294 13.745491,6.25552 22.716464,6.24079 1.45475,-4.43135 -0.455278,-17.66745 4.104292,-16.02458 9.078705,-0.50595 -5.475514,19.507 10.462692,16.15753 13.123965,1.56222 2.99421,-0.70573 3.827288,-5.79881 10.967998,5.81391 12.2468354,-14.04474 -0.378538,-5.817 -7.228446,-4.8846 13.1947294,-4.61488 4.737697,-13.23646 8.6373728,10.21082 17.8934661,-0.6008 27.638338,2.76484 -4.098832,-12.59463 19.305345,-7.30125 9.627326,-22.72295 -14.249322,-0.68775 0.518736,-20.62229 -5.427108,-30.4017 -12.2769417,9.5161 -6.81257,-12.69265 -17.909183,-11.84607 -4.747585,-7.10176 -14.859779,-12.06161 -2.05074425,-12.63413 6.14662455,-4.66978 12.51808425,-2.26647 4.01825435,-5.04878 2.4526729,-10.51371 13.6777519,-9.99633 19.1635219,-3.86026 11.803217,-2.82205 7.75338,-19.74542 -5.409472,-14.48212 -18.56686428,-6.78655 2.940788,-27.49211 14.307099,-15.62776 3.077887,-4.8566 13.86038,6.72742 10.794816,0.60203 -5.192459,-4.10043 13.479628,-1.66834 7.468776,-8.69823 1.234637,-6.96027 10.839236,-5.7703 4.040169,-12.60777 14.073926,-1.75615 -1.077467,-4.20482 0.280399,-9.50936 16.422777,-2.17021 4.045998,15.14002 12.478901,22.66062 6.088996,9.73582 9.879759,21.74151 22.835338,20.38899 13.734276,-2.7725 7.405023,9.87974 10.474866,14.66895 5.28979,-6.79462 7.03925,3.38589 9.61729,1.96141 4.86491,-6.99744 -6.96583,-7.14717 0.86141,-14.3941 -1.05385,-10.6376 2.90603,-19.68294 13.32748,-12.02255 7.70631,0.33115 12.44828,-4.42237 10.54961,6.70536 6.32439,5.36919 5.81657,6.6788 1.46959,10.18501 2.79048,4.96008 20.12876,10.13425 8.72924,12.84982 8.65833,2.09158 24.1563,7.20709 14.38878,16.85069 -7.77626,-9.63459 -2.6412,24.25047 4.86203,8.54188 -0.63754,-9.80364 8.91297,-5.17746 5.82329,-17.14396 6.94185,-8.86637 -10.61795,-17.59846 2.12622,-24.61004 11.99544,-6.32811 17.77658,12.83341 10.77238,23.36705 -2.85209,-5.30415 -2.69071,14.58588 -6.10655,1.36841 -6.9893,-2.7658 -5.63431,12.82422 3.21101,11.52445 1.56055,5.11076 -8.38111,-1.06715 -4.17226,6.09 9.46764,-2.60809 0.42502,8.89223 6.05764,8.63919 -0.6678,14.33335 -8.03969,26.70756 -11.16178,38.74579 -9.30819,4.93168 -11.83148,10.50318 -13.0529,19.29392 -7.73405,-9.13296 0.42723,11.54158 -10.33836,12.55028 -6.81692,10.25798 -9.41799,21.42347 -19.60205,28.23386 -7.17037,7.66432 -30.601186,19.68452 -30.129157,21.49799 59.217377,-28.95382 96.592617,-94.43277 90.173497,-158.72774 -1.59798,-11.05215 -3.51716,-34.25968 -9.66239,-36.92866 -3.07448,3.97801 15.15465,27.23826 -1.5027,19.60078 -4.65159,8.29707 -7.07696,-11.27296 0.55193,-11.24226 -4.20781,-3.34887 -5.66205,-14.16409 -9.99516,-6.26278 -11.9761,-2.94408 -22.66643,-15.14355 -35.80855,-17.77973 3.65854,-8.71175 -22.30317,-8.60153 -18.04311,-22.37518 -7.15938,2.41134 -13.785042,-14.39686 -10.64731,-0.11699 -7.867312,-2.01047 -0.10699,8.72715 -6.745351,4.41867 -11.430138,-1.37284 -10.514343,-26.36273 -26.286079,-28.47234 -1.860148,-9.00201 -7.138866,-14.61876 -13.197239,-10.25184 9.240672,-9.29416 -1.871584,-0.47525 -7.212432,-6.94123 z m 23.018113,0.0259 c -12.750963,5.55483 14.396383,18.66235 6.139983,2.92527 -0.918969,-2.69633 -3.76324,-2.98487 -6.139983,-2.92527 z m -137.103376,3.1583 c -8.368264,-0.23838 -16.830683,9.63809 -3.91554,3.58133 0.492912,-0.35826 8.282595,-3.16165 3.91554,-3.58133 z m 31.338414,2.1228 c 14.00021,3.19316 -5.966727,3.43633 0,0 z m 9.967863,2.04516 c 3.427573,2.23027 -3.31143,1.95245 0,0 z M 3.7806817,350.5475 c 5.7573138,3.56412 11.2373283,11.64584 13.8217883,13.43575 10.640744,-2.26753 10.803081,19.4414 5.313989,22.39789 5.630692,9.93908 -3.767002,0.7995 -5.818559,5.35406 -2.44212,4.37382 -6.606476,11.67265 -11.4561119,10.27739 -4.2086301,3.74487 -14.2226841,-0.0739 -19.8023141,3.10652 11.0752878,-3.97205 27.017625,-24.32546 5.0767579,-23.16949 -11.9060779,-5.28092 6.9376427,-18.4474 11.0046716,-9.11246 7.0109151,10.73284 22.6758055,-6.04765 5.2827027,-4.64348 -10.3745135,1.30579 -11.9437843,-4.84921 -3.5285904,-9.72413 -4.8517012,-3.0057 -4.8561286,-4.52242 0.1055177,-7.92205 z m 133.5395083,4.86689 c -16.77593,7.26398 4.40963,31.13378 16.11729,33.48575 13.28631,-8.51834 -0.73198,-27.97375 -12.50259,-31.80293 l -1.71824,-1.28809 -1.89667,-0.39453 z M -8.4164941,367.81473 c 2.9888238,1.99587 -1.9134969,3.99308 0,0 z M -25.5078,379.07608 c 5.983035,1.75089 -6.976972,2.40959 0,0 z m 192.73062,11.41626 c -4.544,7.26649 5.66655,21.06372 5.72816,6.30984 -2.80581,-1.41844 -3.79459,-4.29895 -5.72816,-6.30984 z m -125.118856,1.43314 c 19.522726,11.15317 -17.976258,6.17937 0,0 z m 86.383916,1.00966 c 7.41888,3.67311 -4.67388,7.91251 0,0 z m 32.82688,0.62128 c 3.87185,4.51323 0.1616,0.58076 0,0 z m -22.54011,5.87655 c 12.30144,11.09265 -13.05763,4.76049 0,0 z m -182.447238,0.20712 c 3.777333,1.44935 -2.232339,2.00894 0,0 z m -20.998065,0.49185 c 2.989046,1.99626 -1.913865,3.99263 0,0 z m 125.935408,3.57249 c -4.651659,2.32154 5.552918,2.77676 1.48e-4,2e-5 z m -165.776085,0.033 c 5.965471,1.68379 0.4538,16.93311 -3.31711,9.28074 2.50794,-2.41023 0.8972,-7.5635 3.31711,-9.28074 z m 84.12648,2.51106 c 9.861458,1.27564 8.248504,15.75322 6.338328,21.14304 -8.858887,-2.88882 -11.752966,10.95874 -16.060325,3.96435 -6.972251,3.01648 -4.179631,7.08302 -6.17164,9.81524 -5.06163,7.17346 24.517211,9.39978 13.95483,17.58903 -4.508139,-1.4761 -13.703504,-12.08491 -11.031161,0.19575 -5.635636,-1.79063 -8.802292,-18.20146 -10.875098,-4.97359 -3.208863,-6.75828 -12.731925,-5.09379 -5.524067,-10.09294 3.454285,-8.71126 -17.72899,-9.82146 -13.394624,-21.07249 0.829167,-10.82832 16.545858,-7.04807 25.411016,-9.96673 7.372703,-4.99015 9.440567,-4.222 17.352741,-6.60162 z m 156.05409,3.88314 c 4.54541,3.46627 -5.22405,4.25446 0,0 z m -152.864486,0.95782 c -3.238674,2.9294 3.815925,2.76289 0,0 z m -34.740678,8.3354 c -4.360414,2.52841 5.786092,3.94147 0,0 z m 11.296433,17.13806 c -3.349947,2.52739 2.372096,1.37142 0,0 z m 67.460422,0.36242 c 3.777333,1.44937 -2.232339,2.00894 0,0 z M -41.6763,439.9801 c -5.792437,3.30066 2.41541,4.02019 0,0 z m -32.640642,1.24261 c 5.070411,6.3647 0.802012,24.42473 -7.601892,11.62352 -6.625589,-3.53724 -1.274631,-15.52094 6.511511,-10.87283 l 1.089716,-0.75075 z m 18.63261,2.07101 c 4.303154,4.30384 -5.812655,4.29019 0,8e-5 z m 176.969582,8.33543 c -6.17997,0.26885 5.84896,7.10133 -2.73786,12.19815 -5.14731,15.08895 28.36722,21.525 17.12104,3.12171 -5.35191,-7.91359 2.2569,-15.12661 -14.38318,-15.31986 z m -139.918792,5.92822 c 10.6237729,5.91312 8.27588,19.79845 16.5534577,28.75772 -3.5485873,10.51057 -8.2045997,-9.48662 -15.5435067,-8.1252 -7.577541,-4.92059 -6.048781,-15.1873 -1.009951,-20.63252 z m 203.371292,1.67339 c 2.95407,3.34094 -1.7947,4.85846 0,0 z m -39.44517,5.56589 c -3.46011,5.39239 3.28648,7.03517 0,0 z m 3.82751,7.45566 c -2.30066,5.30595 7.74578,8.51219 0,0 z m -192.654028,7.50743 c 1.026774,5.30085 0.234649,15.64499 -4.811191,6.39423 -6.988926,-1.70913 1.604689,-6.4155 4.811191,-6.39423 z m 168.336268,0.88015 c -8.39202,-0.10201 4.12747,1.04501 0,0 z m 15.44293,0.72484 c -5.13269,2.72 3.27661,4.63789 0,0 z m -128.46157,5.15173 c 5.908064,3.58138 -5.967391,4.05484 0,0 z m 5.79443,0.77666 c 3.935979,3.04051 -3.234984,2.74249 0,0 z m -142.73414,8.59469 c 8.22003,4.37436 -0.7629,6.92704 0,0 z m 98.18978,0.0504 c 3.723763,5.84732 -0.01475,19.48968 -3.702658,22.13428 3.569026,-6.51632 -6.651563,-11.74488 1.530015,-13.18932 -2.94219,-2.13744 -0.557107,-7.66252 2.172643,-8.94496 z m -109.91063,1.44968 c -9.80092,4.30938 10.89995,21.72917 5.05926,4.43522 0.0148,-4.16371 -0.76055,-4.87152 -5.05926,-4.43522 z m 0.58478,6.34248 c 3.08827,1.77847 -1.87234,2.31064 0,0 z m 67.407642,0 c 4.703238,3.23584 9.767451,17.65595 -0.352711,7.99928 2.85593,-3.10771 -2.3079,-6.1276 0.352711,-7.99928 z m 14.247035,5.7988 c 3.087995,1.77769 -1.872176,2.31152 0,0 z m 36.229223,2.48521 c 11.281085,6.52438 -8.678252,4.31989 0,0 z m -19.191415,5.79889 c 5.047094,7.22909 -8.075617,9.97769 -5.449171,0.28459 2.554133,-0.6238 3.620901,3.07688 5.449171,-0.28459 z m -54.410098,3.3136 c 3.355409,2.00859 -3.457826,3.35285 0,0 z m -34.209107,0.93196 c -2.349,4.10694 5.19491,3.44045 0,0 z m 106.533922,1.19083 c 7.267185,2.32581 -3.910669,3.05345 0,0 z m -72.324815,1.39794 c 5.536612,4.3635 -3.807512,5.68728 0,0 z m -37.585027,3.18424 c -1.24047,7.42293 11.16842,11.85233 2.0509,1.43999 l -1.13584,-1.07281 -0.91484,-0.36724 z m 102.204498,3.23592 c 12.557414,5.66458 -6.975938,3.77349 0,0 z m -50.954263,1.63094 c -2.472742,1.89547 2.523438,3.84182 0,0 z m -37.212385,3.44304 c 6.66499,2.47916 -5.54038,5.2941 0,0 z m -9.61146,4.26216 c 3.92668,6.59574 12.14316,18.55765 3.43694,4.82151 -1.02411,-1.68498 -2.18806,-3.28788 -3.43694,-4.82151 z m 52.947965,2.25222 c 2.133609,6.22598 14.489947,5.98265 0,0 z m 31.630988,4.97048 c 4.429185,2.09619 -4.269654,1.68807 0,0 z m -61.241043,8.5947 c -9.60497,2.39056 3.377472,4.6455 3e-4,-3e-4 z m 51.6985,0.88015 c 2.303176,8.88509 3.096925,17.56014 -9.258972,17.13326 2.868327,7.1266 1.912464,13.9682 12.847479,15.45949 6.82231,2.83361 17.719029,-2.20838 5.20611,-5.37387 -5.338192,-5.20254 -13.639309,-8.11197 -1.947957,-12.24578 -5.845196,-5.59788 16.332239,-0.1617 5.739088,-9.89095 5.596159,-5.16416 -10.175652,0.036 -12.585748,-5.08215 z m 22.353864,1.5533 c -3.290179,3.99031 7.067954,2.45891 -0.0012,-3.6e-4 z m -63.819156,1.39787 c -12.522878,0.97925 5.160361,5.62498 1.505518,0.2077 z m 78.465094,1.76037 c -2.34531,3.56959 4.8628429,1.62109 0,0 z m 6.6449951,0.18111 c -2.2488677,1.98062 3.7442019,1.50782 0,0 z m -48.0835751,1.372 c -4.429481,1.99988 2.980928,1.89698 0,0 z m -30.142516,0.33632 c -1.192946,8.94095 6.178871,3.75171 8.361329,2.97634 -2.46234,-1.41964 -5.753404,-1.60606 -8.361329,-2.97634 z m -5.820993,1.44969 c -6.884367,0.45923 -9.010598,6.80429 -2.41873,6.65338 7.007668,-2.49952 -1.571633,12.49939 10.539431,9.91293 6.4803,5.92091 -14.299276,-1.62943 -1.093921,5.572 17.355839,13.34095 37.450357,23.29177 58.759812,29.04243 -4.237925,-4.11241 -9.331727,-9.27779 0.717967,-8.85313 -5.026803,-5.23588 -16.337256,-10.48305 -1.621809,-12.63322 3.559877,4.87986 24.882761,9.83504 20.477926,2.85611 -7.461249,-2.8234 -10.503127,-7.19747 -10.270914,-11.96838 -8.302886,4.58693 -16.852745,-17.46485 -23.989987,-4.88632 15.583575,5.69022 4.12451,21.33261 -7.986554,12.21222 -4.73113,-2.91173 -24.279904,-7.63233 -15.708942,-1.96756 6.452627,-1.95576 2.031633,10.00184 -4.332596,3.1844 -10.260657,-0.30831 6.897945,-13.37682 -6.111206,-8.93664 -12.200496,-12.35969 23.530726,3.25353 5.44098,-8.3004 -7.188967,-3.76234 6.649129,-15.11008 -3.981433,-8.34158 -5.202863,-0.24866 1.296252,6.37862 -6.831534,4.66181 2.068233,8.21834 -8.290195,6.41578 -5.284474,-1.2826 -1.372401,-2.59616 -3.160752,-6.1345 -6.303721,-6.92545 z m -6.51225,10.53652 c 7.011432,7.40007 9.182822,6.18639 0,0 z m 64.138072,5.46234 c 4.42712,1.70667 -3.62245,1.41748 0,0 z m 14.858598,0.43981 c -3.427647,2.23044 3.311429,1.95225 0,0 z m -57.838703,4.16853 c 6.601017,2.49843 -3.70443,2.78762 0,0 z m 20.918888,9.13815 c 7.166905,2.35699 31.11594,18.23224 10.586141,10.56706 -3.265901,-2.35441 -17.021354,-4.74957 -10.586141,-10.56706 z m 144.146093,12.89165 c -7.964195,2.27068 -8.55185,4.16859 0,0 z m -8.845974,3.57289 c -19.488858,7.01559 -40.412617,10.78389 -61.188134,10.55793 -14.2719752,0.28028 -28.8167483,-3.44634 -41.890537,-4.9967 33.832703,8.70687 70.458985,6.76461 103.078671,-5.56123 z"
         id="path6729"
         inkscape:connector-curvature="0" />
    </g>
    <rect
       id="rect6077"
       style="color:#000000;display:inline;opacity:0;stroke:#ff0000;stroke-width:22.47508049"
       height="363.56747"
       width="363.56747"
       y="273.74878"
       x="-161.42462" />
  </g>
  <g
     transform="translate(172.66216,-262.51124)"
     style="display:inline"
     id="layer10">
    <g
       style="display:none;fill:none"
       transform="matrix(0.28222223,0,0,0.28222223,-132.48583,406.71374)"
       id="g7299">
      <g
         style="fill:none"
         transform="translate(1224.1105,-2349.7383)"
         id="g92272">
        <path
           style="fill:none;stroke-width:0.78303671"
           id="path74664"
           d="m -318.5965,3002.0627 c 1.6636,-0.7187 2.7098,-1.7411 1.6102,-3.8248 -64.54336,-25.4341 -141.04348,-46.8949 -163.83189,-119.8981 -2.71664,-8.7836 -2.74268,-17.7491 -1.59143,-26.785 3.97317,-18.8225 3.9691,-18.7999 21.81316,-15.0101 1.69745,0.3605 3.40093,0.644 5.04503,1.2388 4.95488,0.3867 7.93309,2.4294 7.1935,8.6499 -0.3836,9.618 3.71447,19.3737 11.06305,24.2965 11.49767,-0.4155 14.94946,7.9303 17.20643,18.0493 1.16208,5.2102 3.94924,9.795 6.58485,14.3462 18.47371,28.9582 36.11197,49.9879 62.25036,60.4852 54.95104,18.9324 102.67894,9.5708 147.15694,-4.2147 2.9416,-1.903 6.9396,-2.5189 7.5978,-7.2377 -0.981,-2.4515 -3.0813,-2.7807 -5.1395,-3.2018 -46.6295,2.439 -91.3389,7.2858 -127.8971,-22.728 -2.0883,-1.5462 -3.7611,-3.6862 -5.8939,-5.0075 0.072,0.087 0.3301,0.1951 0.3959,0.2591 46.3858,46.529 196.4414,25.9214 226.5187,-18.3357 3.9909,-5.2273 14.876001,-22.2116 9.594601,-25.9583 -34.154401,34.6685 -83.493001,31.9905 -115.680001,21.5357 58.3248,-2.2658 98.5722,-10.6729 131.948901,-48.4115 1.8456,-2.0867 3.9828,-4.1554 4.4831,-7.0108 -0.01,-0.7517 -0.1798,-1.4606 -0.4926,-2.1322 -0.9124,-1.3045 -2.1888,-1.6973 -3.6224,-1.7046 -10.4152,3.6388 -20.638901,9.7471 -31.650201,11.4531 -34.975,5.4187 -43.6555,6.9178 -105.9155,-4.3932 30.7565,10.0594 105.3692,7.9122 103.4295,-10.3252 -31.736,5.2201 -68.765,4.2687 -96.5482,-8.7254 -10.7881,-5.1073 -19.9764,-13.1168 -29.99,-19.7367 -37.0415,-24.4874 -72.9805,-19.1274 -105.99158,-14.5127 -11.3319,1.5841 -21.79533,7.3672 -31.81293,13.4663 -4.30823,2.623 -8.64249,3.6237 -13.53748,1.9088 -6.67521,-2.3386 -13.26652,-0.3914 -19.82842,1.0877 -2.15946,0.7217 -4.34382,1.3592 -6.5391,1.9535 -3.12183,1.2298 -5.89981,3.2046 -8.8516,4.7976 -3.12974,1.7685 -6.33668,1.0305 -9.48313,0.205 -7.50117,-1.9683 -15.08662,-3.4981 -22.63265,-5.2307 -4.85052,-1.1137 -5.97054,-3.8854 -4.24193,-8.7906 3.18872,-9.0485 9.16123,-17.4021 9.458,-27.207 1.01716,-33.609 -17.96829,-44.9397 -38.64029,-59.9577 40.78537,-0.1677 87.78537,-11.78 110.91923,-40.5735 17.49981,-21.7812 25.08263,-52.0165 47.64508,-64.9705 40.2792,-23.1258 99.2898,-13.9904 136.3811,-11.149 37.5147,2.8738 89.2778,-1.7813 105.327801,-42.4878 0.087,-0.22 0.4495,-0.2881 0.5593,-0.5282 4.673,-10.2167 7.1929,-34.3974 2.0909,-34.1294 -11.659001,20.2161 -24.737801,38.6485 -43.928801,46.1297 -68.0458,26.5265 -148.6317,-46.2061 -216.28511,-18.5278 -43.7294,17.8905 -49.23613,104.8774 -97.56835,109.0881 -82.93688,7.2256 -108.97994,-78.8087 -172.86003,-93.3384 -2.27202,-0.3275 -0.67992,-1.5446 -1.21928,-0.6286 -0.1152,0.1958 0.0791,0.3934 0.5882,0.411 37.78098,0.3496 77.82511,7.4479 107.63253,26.4117 24.34966,15.4916 42.36422,38.2145 72.13928,34.8378 31.08907,-3.5257 54.8726,-66.7802 73.29288,-101.2635 -24.75923,6.3876 -36.55667,64.3913 -66.32436,71.4003 -46.19277,10.8763 -57.48984,-29.4573 -91.80247,-50.8047 -25.34268,-15.598 -46.60542,-14.599 -71.14764,-14.6992 26.03448,-2.0617 56.99668,1.5923 78.34302,10.7025 27.34773,12.8155 53.34737,48.6488 82.08872,43.9583 4.93517,-2.536 11.59315,-2.4664 13.17924,-10.1223 -55.03858,-8.76 -67.31459,-64.9293 -130.6648,-65.4267 -83.90017,-0.6586 -115.90423,-5.8441 -150.03363,-6.8496 42.27792,-1.5166 83.75366,4.6399 113.27989,3.9033 36.80024,-6.77 16.32418,-5.3099 -11.2626,-8.5832 -38.82207,-4.6064 -89.17069,-16.9725 -89.17069,-16.9725 -7.9749,-2.5706 -9.6186,-5.0296 -11.9342,-13.3428 -0.6343,-16.2196 -9.4677,-47.8324 -0.408,-59.6853 4.8259,-5.6194 17.0939,-1.8368 28.8521,-0.097 11.7582,1.7397 29.10829,7.2187 50.20007,19.8597 -13.50851,-36.5177 -31.84986,-49.4459 -57.47827,-59.3715 -19.6633,-7.6154 -45.5777,-25.1088 -63.827,-16.577 -18.2494,8.5318 -21.8327,33.3447 -33.7975,52.1994 -11.9649,18.8547 -19.3449,40.8374 -19.2552,61.8805 v 0 0 0 0 c -1.1983,1.5203 -3.2463,0.1718 -4.4844,1.5577 -43.3521,-1.4568 -86.7306,-1.2349 -127.9987,-2.4344 0.2645,4.9574 2.8608,6.4778 6.1095,7.3563 l -0.021,-0.01 c 34.4324,11.8778 80.1738,6.2482 113.5988,18.5172 1.8855,0.7157 3.8429,1.249 5.5904,2.331 0,0 2.4749,3.732 -1.1456,6.5365 -3.6206,2.8045 -14.3455,-2.4658 -21.6652,5.7085 -7.3197,8.1743 -20.0987,40.5039 -8.1894,46.6199 0,0 15.9901,-17.0233 25.6242,-12.9207 0.9597,0.5378 1.7263,1.2963 2.2507,2.3323 2.0454,8.792 8.4131,17.8216 10.4965,26.5961 2.1912,7.9731 -12.6486,17.0532 -9.5629,23.4878 4.4417,7.6057 19.6017,4.5052 24.5811,1.0722 6.743,-4.7475 7.2724,-4.3841 10.7876,3.4885 2.5155,5.6341 3.12,11.0335 0.9659,17.1321 -14.45,40.0748 79.2361,86.2892 40.8363,96.9689 -79.7916,24.6363 -104.6375,-30.6599 -121.8022,-19.4995 -4.0528,3.9615 0.059,8.5154 0.01,13.3921 -4.6106,1.0119 -9.3948,-0.1162 -13.9523,1.0521 -2.2226,0.6984 -4.1821,1.5785 -5.9211,2.9278 -4.6981,6.094 -10.1727,10.8306 -16.4823,8.7266 l -324.6403,-75.2976 c -2.6631,-0.2276 -4.3596,-0.9616 -5.8773,1.6207 l 0.016,-0.032 c -4.0871,7.6348 -0.3114,17.6586 4.9559,18.8839 l 332.9971,77.1737 c 7.0607,4.1786 13.4591,8.5376 20.4657,12.3239 2.9227,1.4346 5.8876,2.7203 9.0747,3.3117 2.3059,0.2042 4.59,0.2292 6.747,-0.8763 1.577,-0.997 2.8251,-2.2313 2.7013,-3.6187 5.8748,8.7586 -0.3843,15.7502 -1.7308,23.9605 -6.3537,53.9224 28.1905,100.132 55.3359,136.3861 4.2533,5.6688 8.4643,11.4343 13.3184,16.5708 1.5291,1.3696 3.2638,3.3622 5.1817,1.6089 2.0408,-1.8656 0.7934,-4.5877 0.088,-6.8037 -23.9341,-51.0795 -32.1828,-102.5921 -17.6701,-143.3278 5.5475,-9.4167 11.9509,-12.8434 20.2163,-11.2944 5.3083,0.9947 7.7596,3.9615 7.5173,9.8431 19.8943,135.4175 43.3731,215.8737 172.36215,263.9483 1.40497,0.7054 1.88353,-0.2618 2.24064,-1.4513 -1.14996,-5.4478 -5.90531,-7.6289 -8.90171,-11.3992 -25.74614,-29.789 -51.27979,-63.2699 -39.49431,-102.177 1.92597,-6.0858 3.05645,-6.2377 6.54646,-1.128 31.87402,49.146 76.07966,42.2339 106.57203,73.7637 14.81649,15.3205 28.16037,38.2756 35.4541,54.3638 0.34447,0.5904 0.79323,1.0677 1.32153,1.464 21.93302,-11.6696 13.22356,-80.0606 5.69552,-96.8338 -11.38367,-28.256 -55.25815,-45.6485 -70.34786,-74.891 33.04792,31.8148 61.65044,63.3977 94.75607,86.7049 40.28288,28.3603 95.22447,33.0964 138.39413,32.2151 z"
           inkscape:connector-curvature="0" />
        <path
           style="fill:none;fill-rule:evenodd;stroke:none;stroke-width:0.87859851px;stroke-linecap:butt;stroke-linejoin:miter;stroke-opacity:1"
           d="m -980.99988,2469.6343 c -48.54392,5.3482 -38.44142,74.768 -62.30452,86.5948 -7.0721,2.9335 -11.4377,-1.1618 -12.1961,-1.3701 4.826,0.4523 8.7903,-1.7437 8.5378,-2.0268 -1.4258,0.4514 -10.8796,-4.1845 -11.8422,-5.8395 4.0445,1.5802 8.0759,-0.2178 7.7284,-0.5262 -3.3398,-0.7733 -13.8679,-4.778 -14.1702,-6.0735 4.2371,1.1235 7.6568,1.0686 10.4249,0.074 -3.1332,-0.9634 -12.8679,-4.81 -14.1232,-7.1423 0.7272,0.1569 6.0827,-0.6063 6.373,-1.2103 -5.1309,-2.0817 -10.823,-3.5656 -15.6402,-6.2857 3.4815,0.4824 3.3574,-1.1439 4.9666,-1.7567 -10.7558,-2.0742 -15.014,-8.0986 -15.014,-8.0986 1.8614,2.3129 6.7419,-0.086 6.7577,-0.4554 -5.2578,-2.2046 -13.0036,-9.7511 -19.5163,-12.0092 3.0272,0.325 6.9308,-0.5238 7.5307,-1.1104 -18.4956,-13.7206 -48.8152,-10.7435 -56.0823,6.6033 -1.9541,4.6648 -6.1051,22.5556 -6.9753,22.63 -1.0183,0.087 -4.6673,-0.866 -3.152,-2.6512 0.4246,-0.3297 -4.068,0.6207 -4.7761,0.1961 -1.7701,-1.0614 0.6551,-2.076 0.6551,-2.076 -2.9497,0.3671 -6.5969,0.5283 -2.9741,-1.7075 -3.9076,-0.1214 -4.2771,0.6793 -5.5273,-0.3357 4.207,-4.9911 6.19,-13.7594 2.4025,-10.8477 -1.2841,1.6327 -5.3833,3.6135 -6.42,4.0991 2.8803,-1.7286 7.3193,-11.9079 0.704,-6.6178 -6.9494,5.5571 -17.7791,8.0985 -23.8059,15.3716 -3.2194,3.8851 -6.2373,8.6851 -5.7051,14.0196 0.2244,2.2483 -0.1195,4.8045 -0.7512,5.6778 -1.6277,2.2158 -0.1715,6.4104 2.7436,7.9282 1.2136,0.6352 1.9985,0.8674 3.0704,0.6768 -0.01,0 -0.076,0.048 -0.076,0.048 0.5739,0.5101 2.9324,2.9342 2.9324,2.9342 0,0 -0.1903,-2.9987 -0.2541,-3.6365 -0.01,-0.088 0.033,-0.1863 0.096,-0.2867 0.059,-0.026 0.1036,-0.045 0.1633,-0.07 3.2273,-1.4368 3.6869,-1.4344 5.0682,0.059 2.0833,2.257 1.6485,3.3389 -1.7656,4.4004 -4.0752,1.2665 -4.2959,1.8704 -1.5551,4.2607 3.2626,2.8472 5.4938,2.3806 8.6248,-1.7983 4.0429,-6.9365 10.5892,1.0544 9.5757,8.5778 -0.1049,6.221 2.1929,6.1033 3.9159,8.5376 -1.0649,-3.9071 -0.6861,-6.0576 -0.2032,-6.1606 -0.1007,0.6872 1.6765,6.496 4.4422,10.8785 -0.041,-1.4585 0.2317,-4.5487 0.5099,-4.5763 1.3056,-1.1321 1.0168,7.1734 4.1936,9.1002 0,0.3033 0.1014,-4.968 1.0433,-4.4168 -0.2193,1.099 1.5915,7.1456 2.5078,7.1424 -0.041,-1.1879 0.3154,-2.0504 1.2267,-2.4588 0.6073,1.3138 0.5926,2.9221 1.6677,3.7871 1.9011,1.5296 3.8894,1.1145 7.1767,1.4481 5.4141,0.5475 7.6503,9.2219 7.5197,29.1552 -0.1129,16.9298 2.764,24.3967 -4.8849,28.0938 -7.3398,4.4577 -5.8848,10.3457 -2.134,13.2757 14.8311,4.3128 22.1051,-11.2251 20.4816,-20.3419 0.1547,-4.6873 -0.5764,-16.5958 0.2304,-18.1932 4.0852,10.6665 9.1323,21.588 3.5004,30.9972 -2.1293,1.2115 -5.0576,3.7648 -5.2987,6.567 -0.7263,8.4395 11.3532,12.5476 18.1189,1.1905 7.5504,-8.9798 1.4986,-22.5551 1.0471,-31.1497 0.2481,-13.284 -2.9776,-24.7354 -5.3786,-37.9271 -0.023,-0.8112 3.1072,-1.6391 4.1481,0.2668 2.0896,-0.8641 -1.2654,-6.5475 -4.1826,-7.2821 -0.053,-0.1178 4.3841,1.253 5.1208,-0.4754 -3.9136,-2.9004 -4.8156,-4.7698 -4.8159,-4.7706 4.6346,-0.1182 4.027,-0.3932 5.9954,-0.7602 -1.1789,-0.1491 -6.2746,-2.6965 -5.1988,-3.2537 1.6471,1.1653 5.2979,2.0798 4.6453,1.125 -0.5924,-0.7915 -2.8945,-3.7605 -1.7057,-2.9813 2.7343,1.1666 2.4012,2.054 6.9337,1.6568 -0.2074,-0.2665 -1.0636,-2.2579 -0.6079,-2.8164 0,0 1.9147,1.6745 6.2313,3.5929 0.212,-2.181 2.4552,-2.5539 4.6582,-1.7038 11.503,13.8257 9.2919,45.9042 15.0631,55.9788 7.6142,14.7698 25.9057,15.7527 27.4822,29.9011 0.5866,5.8797 -0.958,10.8895 -3.1756,10.2797 -8.6877,-1.17 -16.2705,7.919 -2.6875,13.9454 2.7156,1.2048 11.4933,1.0504 16.4023,-1.401 2.683,-1.3398 6.1772,-4.9037 5.9973,-6.7068 0.7092,-1.6267 1.5071,-1.4898 3.2046,-1.7112 -1.1115,-1.1169 -2.4855,-2.8415 -3.8452,-3.9939 -5e-4,-0.052 -0.012,-1.1865 4.0611,0.2305 -3.7593,-4.3291 -6.8268,-10.8646 -4.4494,-12.2377 1.2449,-0.1242 1.5672,-1.341 1.1868,-2.5949 0.736,0.68 3.1724,2.2706 4.6508,0.9199 -1.975,-1.7658 -5.8178,-4.5434 -5.3422,-7.0261 -0.1229,-0.5267 3.5122,-1.4463 5.0645,-1.3446 -2.0094,-0.6601 -8.3029,-3.1902 -7.3182,-4.8904 0,0 6.7514,-1.0708 7.4198,-2.4842 -8.9307,-1.9975 -10.4774,-4.7397 -10.4774,-4.7397 -0.031,-0.3051 5.0021,-0.6046 6.5507,-1.1795 -0.4477,-0.5409 -9.9784,-1.4186 -10.2562,-2.6167 -1.198,-0.5901 6.9785,-0.3455 7.1876,-1.3374 -6.7265,0.1512 -22.143,-14.0987 -17.9954,-13.996 l -3.2573,-3.1956 c -0.8169,-0.9898 4.8473,3.8368 9.2872,1.4771 -4.2555,-3.2539 -8.2198,-5.7709 -8.1076,-9.2545 0.4296,2.0148 3.5111,3.2671 9.1129,0.6188 -8.6419,-3.7268 -7.1971,-9.3068 -6.7086,-9.5122 4.2121,2.2774 4.7814,0.5888 6.8593,0.5426 -2.5493,-1.0655 -5.9546,-3.8929 -7.1623,-7.1459 3.4669,1.0584 8.3799,1.1631 8.3799,1.1631 -3.7181,-1.6355 -4.4499,-6.0086 -5.0972,-8.5649 3.7423,2.9909 4.703,1.8908 7.9115,1.4227 -1.6322,-0.4249 -4.7164,-5.3231 -3.7888,-7.1586 6.0877,7.1688 28.819,5.1216 28.4312,3.0212 -3.2708,0.1023 -5.3403,-1.673 -5.3403,-1.673 0,0 10.7361,0.094 15.9431,-5.2752 -3.3829,0.4002 -5.3345,0.6898 -5.8538,-1.3464 5.5346,-1.1365 12.2118,-3.7498 16.5382,-9.9331 -7.1164,3.152 -7.5374,1.364 -7.4525,1.1632 5.9343,-3.0246 13.55427,-10.3852 18.62333,-19.8392 -1.41648,1.1091 -12.07773,5.0129 -13.55883,2.6802 9.01804,0.2833 18.63309,-10.2891 19.26942,-17.2969 -8.21223,6.966 -8.8807,3.7563 -8.8807,3.7563 0,0 11.31173,-9.4558 11.99636,-10.9438 0,0 -8.60884,2.6163 -7.27655,1.4752 1.71843,-3.1801 4.38098,-4.7088 9.4087,-5.7142 -0.41391,-2.2747 -4.62319,-6.214 -8.50508,-5.3095 0.92481,-4.0681 8.25636,-1.9796 10.16544,-0.392 0,0 -2.30858,-7.3242 -6.12431,-8.6031 0.0486,-1.9503 8.44784,-0.3343 10.23622,2.0415 0.43045,-5.0821 -6.54025,-9.9067 -7.51068,-9.6283 -0.40461,-2.9342 8.57123,-1.174 7.86819,-1.5298 0.27919,-2.849 -7.50667,-6.052 -7.99157,-5.7069 0.45999,-1.0981 6.29731,0.046 7.23847,0.2903 -1.59338,-3.2876 -7.09632,-5.9047 -8.2782,-5.1408 0.1992,-1.2785 7.34912,-2.2737 7.34912,-2.2737 -0.10146,-1.0168 -7.1686,-3.5734 -7.8681,-2.7201 0.62044,-1.2672 8.03189,-2.565 7.42167,-2.5041 -0.53617,0.053 -1.81589,-3.5562 -7.37271,-3.2337 0.0856,-1.2942 7.59291,-2.8843 5.42564,-2.5204 -2.20713,-1.5506 -8.10399,0.1143 -8.10399,0.1143 -1.69297,-0.6516 3.24175,-4.2948 3.41688,-4.1101 z m 8.00969,22.3885 c 0.006,0.012 0.0127,0.023 0.0181,0.035 0.21304,0.034 0.15163,0.01 -0.0181,-0.035 z m -59.76421,159.6148 c 0.3999,0.1313 0.6896,0.2148 0.6533,0.1742 -0.098,-0.1098 -0.35,-0.1544 -0.6533,-0.1742 z m -73.8944,-73.3119 c 0.031,0.04 0.048,0.046 0.044,0 -0.017,0 -0.027,0 -0.044,0 z"
           id="path92265"
           inkscape:connector-curvature="0" />
      </g>
      <g
         transform="translate(-74.179432,-1044.196)"
         style="display:none;fill:none"
         id="layer1-7">
        <image
           xlink:href="/home/urs/ownCloud/Drawings/Halloween/ownCloud/Drawings/Halloween/OpenClipart/ownCloud/Drawings/Halloween/Downloads/katze-1.jpg"
           transform="rotate(-44.225215)"
           width="1600"
           height="900"
           preserveAspectRatio="none"
           style="fill:none;image-rendering:optimizeQuality"
           id="image4144"
           x="-908.83575"
           y="435.4621" />
      </g>
      <g
         style="fill:none"
         id="layer1-2"
         transform="matrix(0.93286821,-0.0930761,0.0930761,0.93286821,-373.14643,236.76321)" />
    </g>
    <g
       transform="matrix(1.5805194,0,0,1.5805194,-118.88066,146.43671)"
       id="layer1-6">
      <path
         id="path1898"
         d="m 99.31285,106.83513 c -0.997839,0.31353 -1.9098,0.75674 -2.750021,1.49639 -3.21455,2.82977 -8.536419,10.65615 -10.51341,12.04443 -0.678399,0.33531 -1.5641,-1.98878 -1.5641,-1.98878 0.0402,0.45974 -0.413869,1.13386 -0.413869,1.13386 -0.23313,-0.11255 -0.392001,-0.0421 -0.497941,0.15881 0,0 -0.760478,-0.28673 -0.99392,-0.68486 0,0 0.623451,2.40773 -0.123809,2.52711 -2.41572,0.0127 -11.28617,-3.28721 -15.545501,-3.73329 -1.113309,-0.1166 -2.113439,0.0501 -3.10857,0.3722 -1.65857,0.53675 -3.30318,1.50519 -5.43451,2.31302 0,0 7.039331,-1.06016 8.85175,0.22997 4.78499,-0.82814 8.508141,0.70961 8.47208,1.84914 2.362359,-1.15547 6.12176,-0.004 8.37568,1.51868 0.25754,0.33066 0.563491,0.55476 0.870032,0.63728 0.004,0.004 0.01,0.008 0.015,0.0117 l 0.01601,-0.005 c 0.168121,0.0404 0.33179,0.0369 0.48297,-0.0105 0.15194,-0.0486 0.288539,-0.14086 0.403019,-0.27208 l 0.01299,-0.004 c 0.0011,-0.006 0.003,-0.0125 0.005,-0.0187 0.202309,-0.2448 0.322099,-0.60484 0.34062,-1.02379 0.95627,-2.5465 3.35453,-5.66108 5.94936,-6.08667 -0.68915,-0.90824 1.456161,-4.31765 5.837039,-6.41285 0.73079,-2.10125 7.084071,-5.31248 7.084071,-5.31248 -2.20549,0.57534 -4.10712,0.73791 -5.770201,1.2605 z"
         style="display:inline;opacity:1;fill:#000000;fill-opacity:1;fill-rule:evenodd;stroke-width:0.0378278"
         inkscape:connector-curvature="0" />
      <path
         style="display:inline;opacity:1;fill:#000000;fill-opacity:1;fill-rule:evenodd;stroke-width:0.04696503"
         d="m 137.97939,137.22712 c -1.25551,0.3317 -2.41193,0.82917 -3.49635,1.69839 -4.1488,3.32548 -11.19728,12.72723 -13.7287,14.3358 -0.86058,0.37701 -1.82596,-2.5561 -1.82596,-2.5561 0.0235,0.57247 -0.57821,1.38253 -0.57821,1.38253 -0.2827,-0.15293 -0.48376,-0.0746 -0.62666,0.16845 0,0 -0.92675,-0.39916 -1.19347,-0.90629 0,0 0.63534,3.02183 -0.29826,3.1271 -2.99678,-0.12256 -13.80918,-4.72316 -19.066174,-5.52029 -1.374077,-0.20837 -2.624017,-0.0589 -3.876642,0.28361 -2.087736,0.57071 -4.18288,1.67762 -6.87248,2.55747 0,0 8.791082,-0.91175 10.965022,0.79209 5.981884,-0.75308 10.511384,1.36727 10.401414,2.77849 2.99602,-1.29778 7.5926,0.34555 10.30077,2.36311 0.30048,0.42483 0.66709,0.72029 1.04255,0.84019 0.004,0.005 0.0119,0.0105 0.0179,0.0154 l 0.0201,-0.006 c 0.20619,0.0597 0.40939,0.0647 0.59959,0.0146 0.19122,-0.0516 0.36593,-0.15818 0.51542,-0.31437 l 0.0163,-0.004 c 10e-4,-0.007 0.005,-0.0152 0.007,-0.0229 0.26493,-0.29202 0.43411,-0.73169 0.48108,-1.25023 1.3318,-3.10348 4.48454,-6.82893 7.72708,-7.20818 -0.80269,-1.16588 2.05321,-5.27149 7.60647,-7.61914 1.02667,-2.56418 9.09007,-6.18303 9.09007,-6.18303 -2.76826,0.58726 -5.13602,0.67998 -7.22855,1.23288 z"
         id="path5794"
         inkscape:connector-curvature="0" />
      <path
         id="path5796"
         d="m 104.92262,125.95987 c -1.63632,0.33428 -3.15752,0.88864 -4.61338,1.9256 -5.569947,3.96724 -15.306658,15.52497 -18.674472,17.40567 -1.132536,0.4213 -2.158042,-3.4154 -2.158042,-3.4154 -0.01161,0.7368 -0.843361,1.73304 -0.843361,1.73304 -0.35183,-0.21702 -0.615717,-0.13113 -0.816942,0.17055 0,0 -1.160832,-0.58018 -1.466306,-1.25082 0,0 0.595251,3.92651 -0.611242,3.99353 -3.839022,-0.37608 -17.386768,-7.0726 -24.078758,-8.47984 -1.749144,-0.36783 -3.365012,-0.26709 -4.99842,0.0812 -2.722385,0.58044 -5.493425,1.84883 -9.011181,2.78229 0,0 11.354604,-0.52934 14.021662,1.81736 7.735925,-0.53037 13.397207,2.52283 13.152999,4.32686 3.941723,-1.44773 9.723944,0.99786 13.054083,3.78613 0.354806,0.56744 0.804001,0.97358 1.277348,1.15493 0.0053,0.007 0.0145,0.0142 0.02182,0.0211 l 0.02628,-0.005 c 0.260414,0.0918 0.520949,0.11297 0.768831,0.0626 0.249303,-0.0523 0.481415,-0.1764 0.684761,-0.36603 l 0.02134,-0.004 c 0.0017,-0.009 0.0081,-0.0193 0.01124,-0.0289 0.361494,-0.35563 0.610793,-0.90784 0.70897,-1.57023 1.936583,-3.88777 6.256727,-8.44128 10.44796,-8.69159 -0.945602,-1.55561 3.021135,-6.61892 10.32306,-9.22808 1.50544,-3.21757 12.12326,-7.27577 12.12326,-7.27577 -3.59741,0.55202 -6.64448,0.49826 -9.3717,1.05548 z"
         style="display:inline;opacity:1;fill:#000000;fill-opacity:1;fill-rule:evenodd;stroke-width:0.06040214"
         inkscape:connector-curvature="0" />
    </g>
    <g
       transform="matrix(0.28222223,0,0,0.28222223,-141.88728,400.96065)"
       id="g7969"
       style="display:inline;fill:#000000;stroke:none;stroke-width:10.62992096;stroke-linecap:round;stroke-linejoin:round;stroke-miterlimit:4;stroke-dasharray:none;stroke-opacity:1">
      <g
         transform="translate(1224.1105,-2349.7383)"
         id="g7961"
         style="fill:#000000;stroke:none;stroke-width:10.62992096;stroke-linecap:round;stroke-linejoin:round;stroke-miterlimit:4;stroke-dasharray:none;stroke-opacity:1">
        <path
           style="fill:#000000;stroke:none;stroke-width:10.62992096;stroke-linecap:round;stroke-linejoin:round;stroke-miterlimit:4;stroke-dasharray:none;stroke-opacity:1"
           id="path7957"
           d="m -318.5965,3002.0627 c 1.6636,-0.7187 2.7098,-1.7411 1.6102,-3.8248 -64.54336,-25.4341 -141.04348,-46.8949 -163.83189,-119.8981 -2.71664,-8.7836 -2.74268,-17.7491 -1.59143,-26.785 3.97317,-18.8225 3.9691,-18.7999 21.81316,-15.0101 1.69745,0.3605 3.40093,0.644 5.04503,1.2388 4.95488,0.3867 7.93309,2.4294 7.1935,8.6499 -0.3836,9.618 3.71447,19.3737 11.06305,24.2965 11.49767,-0.4155 14.94946,7.9303 17.20643,18.0493 1.16208,5.2102 3.94924,9.795 6.58485,14.3462 18.47371,28.9582 36.11197,49.9879 62.25036,60.4852 54.95104,18.9324 102.67894,9.5708 147.15694,-4.2147 2.9416,-1.903 6.9396,-2.5189 7.5978,-7.2377 -0.981,-2.4515 -3.0813,-2.7807 -5.1395,-3.2018 -46.6295,2.439 -91.3389,7.2858 -127.8971,-22.728 -2.0883,-1.5462 -3.7611,-3.6862 -5.8939,-5.0075 0.072,0.087 0.3301,0.1951 0.3959,0.2591 46.3858,46.529 196.4414,25.9214 226.5187,-18.3357 3.9909,-5.2273 14.876001,-22.2116 9.594601,-25.9583 -34.154401,34.6685 -83.493001,31.9905 -115.680001,21.5357 58.3248,-2.2658 98.5722,-10.6729 131.948901,-48.4115 1.8456,-2.0867 3.9828,-4.1554 4.4831,-7.0108 -0.01,-0.7517 -0.1798,-1.4606 -0.4926,-2.1322 -0.9124,-1.3045 -2.1888,-1.6973 -3.6224,-1.7046 -10.4152,3.6388 -20.638901,9.7471 -31.650201,11.4531 -34.975,5.4187 -43.6555,6.9178 -105.9155,-4.3932 30.7565,10.0594 105.3692,7.9122 103.4295,-10.3252 -31.736,5.2201 -68.765,4.2687 -96.5482,-8.7254 -10.7881,-5.1073 -19.9764,-13.1168 -29.99,-19.7367 -37.0415,-24.4874 -72.9805,-19.1274 -105.99158,-14.5127 -11.3319,1.5841 -21.79533,7.3672 -31.81293,13.4663 -4.30823,2.623 -8.64249,3.6237 -13.53748,1.9088 -6.67521,-2.3386 -13.26652,-0.3914 -19.82842,1.0877 -2.15946,0.7217 -4.34382,1.3592 -6.5391,1.9535 -3.12183,1.2298 -5.89981,3.2046 -8.8516,4.7976 -3.12974,1.7685 -6.33668,1.0305 -9.48313,0.205 -7.50117,-1.9683 -15.08662,-3.4981 -22.63265,-5.2307 -4.85052,-1.1137 -5.97054,-3.8854 -4.24193,-8.7906 3.18872,-9.0485 9.16123,-17.4021 9.458,-27.207 1.01716,-33.609 -17.96829,-44.9397 -38.64029,-59.9577 40.78537,-0.1677 87.78537,-11.78 110.91923,-40.5735 17.49981,-21.7812 25.08263,-52.0165 47.64508,-64.9705 40.2792,-23.1258 99.2898,-13.9904 136.3811,-11.149 37.5147,2.8738 89.2778,-1.7813 105.327801,-42.4878 0.087,-0.22 0.4495,-0.2881 0.5593,-0.5282 4.673,-10.2167 7.1929,-34.3974 2.0909,-34.1294 -11.659001,20.2161 -24.737801,38.6485 -43.928801,46.1297 -68.0458,26.5265 -148.6317,-46.2061 -216.28511,-18.5278 -43.7294,17.8905 -49.23613,104.8774 -97.56835,109.0881 -82.93688,7.2256 -108.97994,-78.8087 -172.86003,-93.3384 -2.27202,-0.3275 -0.67992,-1.5446 -1.21928,-0.6286 -0.1152,0.1958 0.0791,0.3934 0.5882,0.411 37.78098,0.3496 77.82511,7.4479 107.63253,26.4117 24.34966,15.4916 42.36422,38.2145 72.13928,34.8378 31.08907,-3.5257 54.8726,-66.7802 73.29288,-101.2635 -24.75923,6.3876 -36.55667,64.3913 -66.32436,71.4003 -46.19277,10.8763 -57.48984,-29.4573 -91.80247,-50.8047 -25.34268,-15.598 -46.60542,-14.599 -71.14764,-14.6992 26.03448,-2.0617 56.99668,1.5923 78.34302,10.7025 27.34773,12.8155 53.34737,48.6488 82.08872,43.9583 4.93517,-2.536 11.59315,-2.4664 13.17924,-10.1223 -55.03858,-8.76 -67.31459,-64.9293 -130.6648,-65.4267 -83.90017,-0.6586 -115.90423,-5.8441 -150.03363,-6.8496 42.27792,-1.5166 83.75366,4.6399 113.27989,3.9033 36.80024,-6.77 16.32418,-5.3099 -11.2626,-8.5832 -38.82207,-4.6064 -89.17069,-16.9725 -89.17069,-16.9725 -7.9749,-2.5706 -9.6186,-5.0296 -11.9342,-13.3428 -0.6343,-16.2196 -9.4677,-47.8324 -0.408,-59.6853 4.8259,-5.6194 17.0939,-1.8368 28.8521,-0.097 11.7582,1.7397 29.10829,7.2187 50.20007,19.8597 -13.50851,-36.5177 -31.84986,-49.4459 -57.47827,-59.3715 -19.6633,-7.6154 -45.5777,-25.1088 -63.827,-16.577 -18.2494,8.5318 -21.8327,33.3447 -33.7975,52.1994 -11.9649,18.8547 -19.3449,40.8374 -19.2552,61.8805 v 0 0 0 0 c -1.1983,1.5203 -3.2463,0.1718 -4.4844,1.5577 -43.3521,-1.4568 -86.7306,-1.2349 -127.9987,-2.4344 0.2645,4.9574 2.8608,6.4778 6.1095,7.3563 l -0.021,-0.01 c 34.4324,11.8778 80.1738,6.2482 113.5988,18.5172 1.8855,0.7157 3.8429,1.249 5.5904,2.331 0,0 2.4749,3.732 -1.1456,6.5365 -3.6206,2.8045 -14.3455,-2.4658 -21.6652,5.7085 -7.3197,8.1743 -20.0987,40.5039 -8.1894,46.6199 0,0 15.9901,-17.0233 25.6242,-12.9207 0.9597,0.5378 1.7263,1.2963 2.2507,2.3323 2.0454,8.792 8.4131,17.8216 10.4965,26.5961 2.1912,7.9731 -12.6486,17.0532 -9.5629,23.4878 4.4417,7.6057 19.6017,4.5052 24.5811,1.0722 6.743,-4.7475 7.2724,-4.3841 10.7876,3.4885 2.5155,5.6341 3.12,11.0335 0.9659,17.1321 -14.45,40.0748 79.2361,86.2892 40.8363,96.9689 -79.7916,24.6363 -104.6375,-30.6599 -121.8022,-19.4995 -4.0528,3.9615 0.059,8.5154 0.01,13.3921 -4.6106,1.0119 -9.3948,-0.1162 -13.9523,1.0521 -2.2226,0.6984 -4.1821,1.5785 -5.9211,2.9278 -4.6981,6.094 -10.1727,10.8306 -16.4823,8.7266 l -324.6403,-75.2976 c -2.6631,-0.2276 -4.3596,-0.9616 -5.8773,1.6207 l 0.016,-0.032 c -4.0871,7.6348 -0.3114,17.6586 4.9559,18.8839 l 332.9971,77.1737 c 7.0607,4.1786 13.4591,8.5376 20.4657,12.3239 2.9227,1.4346 5.8876,2.7203 9.0747,3.3117 2.3059,0.2042 4.59,0.2292 6.747,-0.8763 1.577,-0.997 2.8251,-2.2313 2.7013,-3.6187 5.8748,8.7586 -0.3843,15.7502 -1.7308,23.9605 -6.3537,53.9224 28.1905,100.132 55.3359,136.3861 4.2533,5.6688 8.4643,11.4343 13.3184,16.5708 1.5291,1.3696 3.2638,3.3622 5.1817,1.6089 2.0408,-1.8656 0.7934,-4.5877 0.088,-6.8037 -23.9341,-51.0795 -32.1828,-102.5921 -17.6701,-143.3278 5.5475,-9.4167 11.9509,-12.8434 20.2163,-11.2944 5.3083,0.9947 7.7596,3.9615 7.5173,9.8431 19.8943,135.4175 43.3731,215.8737 172.36215,263.9483 1.40497,0.7054 1.88353,-0.2618 2.24064,-1.4513 -1.14996,-5.4478 -5.90531,-7.6289 -8.90171,-11.3992 -25.74614,-29.789 -51.27979,-63.2699 -39.49431,-102.177 1.92597,-6.0858 3.05645,-6.2377 6.54646,-1.128 31.87402,49.146 76.07966,42.2339 106.57203,73.7637 14.81649,15.3205 28.16037,38.2756 35.4541,54.3638 0.34447,0.5904 0.79323,1.0677 1.32153,1.464 21.93302,-11.6696 13.22356,-80.0606 5.69552,-96.8338 -11.38367,-28.256 -55.25815,-45.6485 -70.34786,-74.891 33.04792,31.8148 61.65044,63.3977 94.75607,86.7049 40.28288,28.3603 95.22447,33.0964 138.39413,32.2151 z"
           inkscape:connector-curvature="0" />
        <path
           style="fill:#000000;fill-rule:evenodd;stroke:none;stroke-width:10.62992096;stroke-linecap:round;stroke-linejoin:round;stroke-miterlimit:4;stroke-dasharray:none;stroke-opacity:1"
           d="m -980.99988,2469.6343 c -48.54392,5.3482 -38.44142,74.768 -62.30452,86.5948 -7.0721,2.9335 -11.4377,-1.1618 -12.1961,-1.3701 4.826,0.4523 8.7903,-1.7437 8.5378,-2.0268 -1.4258,0.4514 -10.8796,-4.1845 -11.8422,-5.8395 4.0445,1.5802 8.0759,-0.2178 7.7284,-0.5262 -3.3398,-0.7733 -13.8679,-4.778 -14.1702,-6.0735 4.2371,1.1235 7.6568,1.0686 10.4249,0.074 -3.1332,-0.9634 -12.8679,-4.81 -14.1232,-7.1423 0.7272,0.1569 6.0827,-0.6063 6.373,-1.2103 -5.1309,-2.0817 -10.823,-3.5656 -15.6402,-6.2857 3.4815,0.4824 3.3574,-1.1439 4.9666,-1.7567 -10.7558,-2.0742 -15.014,-8.0986 -15.014,-8.0986 1.8614,2.3129 6.7419,-0.086 6.7577,-0.4554 -5.2578,-2.2046 -13.0036,-9.7511 -19.5163,-12.0092 3.0272,0.325 6.9308,-0.5238 7.5307,-1.1104 -18.4956,-13.7206 -48.8152,-10.7435 -56.0823,6.6033 -1.9541,4.6648 -6.1051,22.5556 -6.9753,22.63 -1.0183,0.087 -4.6673,-0.866 -3.152,-2.6512 0.4246,-0.3297 -4.068,0.6207 -4.7761,0.1961 -1.7701,-1.0614 0.6551,-2.076 0.6551,-2.076 -2.9497,0.3671 -6.5969,0.5283 -2.9741,-1.7075 -3.9076,-0.1214 -4.2771,0.6793 -5.5273,-0.3357 4.207,-4.9911 6.19,-13.7594 2.4025,-10.8477 -1.2841,1.6327 -5.3833,3.6135 -6.42,4.0991 2.8803,-1.7286 7.3193,-11.9079 0.704,-6.6178 -6.9494,5.5571 -17.7791,8.0985 -23.8059,15.3716 -3.2194,3.8851 -6.2373,8.6851 -5.7051,14.0196 0.2244,2.2483 -0.1195,4.8045 -0.7512,5.6778 -1.6277,2.2158 -0.1715,6.4104 2.7436,7.9282 1.2136,0.6352 1.9985,0.8674 3.0704,0.6768 -0.01,0 -0.076,0.048 -0.076,0.048 0.5739,0.5101 2.9324,2.9342 2.9324,2.9342 0,0 -0.1903,-2.9987 -0.2541,-3.6365 -0.01,-0.088 0.033,-0.1863 0.096,-0.2867 0.059,-0.026 0.1036,-0.045 0.1633,-0.07 3.2273,-1.4368 3.6869,-1.4344 5.0682,0.059 2.0833,2.257 1.6485,3.3389 -1.7656,4.4004 -4.0752,1.2665 -4.2959,1.8704 -1.5551,4.2607 3.2626,2.8472 5.4938,2.3806 8.6248,-1.7983 4.0429,-6.9365 10.5892,1.0544 9.5757,8.5778 -0.1049,6.221 2.1929,6.1033 3.9159,8.5376 -1.0649,-3.9071 -0.6861,-6.0576 -0.2032,-6.1606 -0.1007,0.6872 1.6765,6.496 4.4422,10.8785 -0.041,-1.4585 0.2317,-4.5487 0.5099,-4.5763 1.3056,-1.1321 1.0168,7.1734 4.1936,9.1002 0,0.3033 0.1014,-4.968 1.0433,-4.4168 -0.2193,1.099 1.5915,7.1456 2.5078,7.1424 -0.041,-1.1879 0.3154,-2.0504 1.2267,-2.4588 0.6073,1.3138 0.5926,2.9221 1.6677,3.7871 1.9011,1.5296 3.8894,1.1145 7.1767,1.4481 5.4141,0.5475 7.6503,9.2219 7.5197,29.1552 -0.1129,16.9298 2.764,24.3967 -4.8849,28.0938 -7.3398,4.4577 -5.8848,10.3457 -2.134,13.2757 14.8311,4.3128 22.1051,-11.2251 20.4816,-20.3419 0.1547,-4.6873 -0.5764,-16.5958 0.2304,-18.1932 4.0852,10.6665 9.1323,21.588 3.5004,30.9972 -2.1293,1.2115 -5.0576,3.7648 -5.2987,6.567 -0.7263,8.4395 11.3532,12.5476 18.1189,1.1905 7.5504,-8.9798 1.4986,-22.5551 1.0471,-31.1497 0.2481,-13.284 -2.9776,-24.7354 -5.3786,-37.9271 -0.023,-0.8112 3.1072,-1.6391 4.1481,0.2668 2.0896,-0.8641 -1.2654,-6.5475 -4.1826,-7.2821 -0.053,-0.1178 4.3841,1.253 5.1208,-0.4754 -3.9136,-2.9004 -4.8156,-4.7698 -4.8159,-4.7706 4.6346,-0.1182 4.027,-0.3932 5.9954,-0.7602 -1.1789,-0.1491 -6.2746,-2.6965 -5.1988,-3.2537 1.6471,1.1653 5.2979,2.0798 4.6453,1.125 -0.5924,-0.7915 -2.8945,-3.7605 -1.7057,-2.9813 2.7343,1.1666 2.4012,2.054 6.9337,1.6568 -0.2074,-0.2665 -1.0636,-2.2579 -0.6079,-2.8164 0,0 1.9147,1.6745 6.2313,3.5929 0.212,-2.181 2.4552,-2.5539 4.6582,-1.7038 11.503,13.8257 9.2919,45.9042 15.0631,55.9788 7.6142,14.7698 25.9057,15.7527 27.4822,29.9011 0.5866,5.8797 -0.958,10.8895 -3.1756,10.2797 -8.6877,-1.17 -16.2705,7.919 -2.6875,13.9454 2.7156,1.2048 11.4933,1.0504 16.4023,-1.401 2.683,-1.3398 6.1772,-4.9037 5.9973,-6.7068 0.7092,-1.6267 1.5071,-1.4898 3.2046,-1.7112 -1.1115,-1.1169 -2.4855,-2.8415 -3.8452,-3.9939 -5e-4,-0.052 -0.012,-1.1865 4.0611,0.2305 -3.7593,-4.3291 -6.8268,-10.8646 -4.4494,-12.2377 1.2449,-0.1242 1.5672,-1.341 1.1868,-2.5949 0.736,0.68 3.1724,2.2706 4.6508,0.9199 -1.975,-1.7658 -5.8178,-4.5434 -5.3422,-7.0261 -0.1229,-0.5267 3.5122,-1.4463 5.0645,-1.3446 -2.0094,-0.6601 -8.3029,-3.1902 -7.3182,-4.8904 0,0 6.7514,-1.0708 7.4198,-2.4842 -8.9307,-1.9975 -10.4774,-4.7397 -10.4774,-4.7397 -0.031,-0.3051 5.0021,-0.6046 6.5507,-1.1795 -0.4477,-0.5409 -9.9784,-1.4186 -10.2562,-2.6167 -1.198,-0.5901 6.9785,-0.3455 7.1876,-1.3374 -6.7265,0.1512 -22.143,-14.0987 -17.9954,-13.996 l -3.2573,-3.1956 c -0.8169,-0.9898 4.8473,3.8368 9.2872,1.4771 -4.2555,-3.2539 -8.2198,-5.7709 -8.1076,-9.2545 0.4296,2.0148 3.5111,3.2671 9.1129,0.6188 -8.6419,-3.7268 -7.1971,-9.3068 -6.7086,-9.5122 4.2121,2.2774 4.7814,0.5888 6.8593,0.5426 -2.5493,-1.0655 -5.9546,-3.8929 -7.1623,-7.1459 3.4669,1.0584 8.3799,1.1631 8.3799,1.1631 -3.7181,-1.6355 -4.4499,-6.0086 -5.0972,-8.5649 3.7423,2.9909 4.703,1.8908 7.9115,1.4227 -1.6322,-0.4249 -4.7164,-5.3231 -3.7888,-7.1586 6.0877,7.1688 28.819,5.1216 28.4312,3.0212 -3.2708,0.1023 -5.3403,-1.673 -5.3403,-1.673 0,0 10.7361,0.094 15.9431,-5.2752 -3.3829,0.4002 -5.3345,0.6898 -5.8538,-1.3464 5.5346,-1.1365 12.2118,-3.7498 16.5382,-9.9331 -7.1164,3.152 -7.5374,1.364 -7.4525,1.1632 5.9343,-3.0246 13.55427,-10.3852 18.62333,-19.8392 -1.41648,1.1091 -12.07773,5.0129 -13.55883,2.6802 9.01804,0.2833 18.63309,-10.2891 19.26942,-17.2969 -8.21223,6.966 -8.8807,3.7563 -8.8807,3.7563 0,0 11.31173,-9.4558 11.99636,-10.9438 0,0 -8.60884,2.6163 -7.27655,1.4752 1.71843,-3.1801 4.38098,-4.7088 9.4087,-5.7142 -0.41391,-2.2747 -4.62319,-6.214 -8.50508,-5.3095 0.92481,-4.0681 8.25636,-1.9796 10.16544,-0.392 0,0 -2.30858,-7.3242 -6.12431,-8.6031 0.0486,-1.9503 8.44784,-0.3343 10.23622,2.0415 0.43045,-5.0821 -6.54025,-9.9067 -7.51068,-9.6283 -0.40461,-2.9342 8.57123,-1.174 7.86819,-1.5298 0.27919,-2.849 -7.50667,-6.052 -7.99157,-5.7069 0.45999,-1.0981 6.29731,0.046 7.23847,0.2903 -1.59338,-3.2876 -7.09632,-5.9047 -8.2782,-5.1408 0.1992,-1.2785 7.34912,-2.2737 7.34912,-2.2737 -0.10146,-1.0168 -7.1686,-3.5734 -7.8681,-2.7201 0.62044,-1.2672 8.03189,-2.565 7.42167,-2.5041 -0.53617,0.053 -1.81589,-3.5562 -7.37271,-3.2337 0.0856,-1.2942 7.59291,-2.8843 5.42564,-2.5204 -2.20713,-1.5506 -8.10399,0.1143 -8.10399,0.1143 -1.69297,-0.6516 3.24175,-4.2948 3.41688,-4.1101 z m 8.00969,22.3885 c 0.006,0.012 0.0127,0.023 0.0181,0.035 0.21304,0.034 0.15163,0.01 -0.0181,-0.035 z m -59.76421,159.6148 c 0.3999,0.1313 0.6896,0.2148 0.6533,0.1742 -0.098,-0.1098 -0.35,-0.1544 -0.6533,-0.1742 z m -73.8944,-73.3119 c 0.031,0.04 0.048,0.046 0.044,0 -0.017,0 -0.027,0 -0.044,0 z"
           id="path7959"
           inkscape:connector-curvature="0" />
      </g>
      <g
         transform="translate(-74.179432,-1044.196)"
         style="display:none;fill:#000000;stroke:none;stroke-width:10.62992096;stroke-linecap:round;stroke-linejoin:round;stroke-miterlimit:4;stroke-dasharray:none;stroke-opacity:1"
         id="g7965">
        <image
           xlink:href="/home/urs/ownCloud/Drawings/Halloween/ownCloud/Drawings/Halloween/OpenClipart/ownCloud/Drawings/Halloween/Downloads/katze-1.jpg"
           transform="rotate(-44.225215)"
           width="1600"
           height="900"
           preserveAspectRatio="none"
           style="fill:#000000;stroke:none;stroke-width:10.62992096;stroke-linecap:round;stroke-linejoin:round;stroke-miterlimit:4;stroke-dasharray:none;stroke-opacity:1;image-rendering:optimizeQuality"
           id="image7963"
           x="-908.83575"
           y="435.4621" />
      </g>
      <g
         id="g7967"
         transform="matrix(0.93286821,-0.0930761,0.0930761,0.93286821,-373.14643,236.76321)"
         style="fill:#000000;stroke:none;stroke-width:11.33858299;stroke-linecap:round;stroke-linejoin:round;stroke-miterlimit:4;stroke-dasharray:none;stroke-opacity:1" />
    </g>
  </g>
</svg>
