<?xml version="1.0" encoding="UTF-8" standalone="no"?>
<svg
   xmlns:dc="http://purl.org/dc/elements/1.1/"
   xmlns:cc="http://creativecommons.org/ns#"
   xmlns:rdf="http://www.w3.org/1999/02/22-rdf-syntax-ns#"
   xmlns:svg="http://www.w3.org/2000/svg"
   xmlns="http://www.w3.org/2000/svg"
   xmlns:sodipodi="http://sodipodi.sourceforge.net/DTD/sodipodi-0.dtd"
   xmlns:inkscape="http://www.inkscape.org/namespaces/inkscape"
   id="svg8"
   version="1.1"
   viewBox="0 0 127.50402 24.105707"
   height="24.105707mm"
   width="127.50401mm"
   sodipodi:docname="logo.svg"
   inkscape:version="0.92.4 (unknown)">
  <sodipodi:namedview
     pagecolor="#ffffff"
     bordercolor="#666666"
     borderopacity="1"
     objecttolerance="10"
     gridtolerance="10"
     guidetolerance="10"
     inkscape:pageopacity="0"
     inkscape:pageshadow="2"
     inkscape:window-width="1366"
     inkscape:window-height="705"
     id="namedview6"
     showgrid="false"
     inkscape:zoom="1"
     inkscape:cx="302.38248"
     inkscape:cy="44.554092"
     inkscape:window-x="0"
     inkscape:window-y="30"
     inkscape:window-maximized="1"
     inkscape:current-layer="svg8" />
  <defs
     id="defs2" />
  <metadata
     id="metadata5">
    <rdf:RDF>
      <cc:Work
         rdf:about="">
        <dc:format>image/svg+xml</dc:format>
        <dc:type
           rdf:resource="http://purl.org/dc/dcmitype/StillImage" />
        <dc:title />
      </cc:Work>
    </rdf:RDF>
  </metadata>
  <path
     style="font-style:normal;font-variant:normal;font-weight:800;font-stretch:normal;font-size:23.45910072px;line-height:1.25;font-family:Montserrat;-inkscape-font-specification:'Montserrat Ultra-Bold';letter-spacing:0px;word-spacing:0px;fill:#1e00ff;fill-opacity:1;stroke:none;stroke-width:5.54151964"
     d="M 0 0 L 0 26.310547 L 9.0410156 26.310547 L 9.0410156 9.0410156 L 26.308594 9.0410156 L 26.308594 0 L 0 0 z M 92.537109 1.8222656 C 89.463414 1.8222656 86.981351 2.6803545 85.089844 4.3945312 C 83.198339 6.108708 82.251953 8.2356332 82.251953 10.777344 C 82.251953 13.319054 83.198339 15.447933 85.089844 17.162109 C 86.981351 18.876286 89.463414 19.734375 92.537109 19.734375 C 95.610805 19.734375 98.094823 18.876286 99.986328 17.162109 C 101.87784 15.388823 102.82227 13.171648 102.82227 10.511719 C 102.82227 7.9700082 101.87784 5.9025983 99.986328 4.3066406 C 98.094823 2.6515734 95.610805 1.8222656 92.537109 1.8222656 z M 51.798828 9.8027344 C 45.828762 9.8027344 40.774386 10.689604 36.636719 12.462891 C 32.55816 14.236177 29.48485 16.660679 27.416016 19.734375 C 25.347182 22.748962 24.3125 26.146677 24.3125 29.929688 C 24.3125 34.244684 25.435478 37.673134 27.681641 40.214844 C 29.927803 42.756556 32.617194 44.61859 35.75 45.800781 C 38.882807 46.923863 42.783471 47.987327 47.453125 48.992188 C 51.709012 49.937941 54.782323 50.855546 56.673828 51.742188 C 58.624442 52.569723 59.599609 53.869292 59.599609 55.642578 C 59.599609 59.011823 56.230674 60.697266 49.492188 60.697266 C 45.945615 60.697266 42.340572 60.1348 38.675781 59.011719 C 35.010989 57.888637 31.789867 56.410521 29.011719 54.578125 L 23.248047 67.523438 C 26.203524 69.592273 30.044674 71.246981 34.773438 72.488281 C 39.5022 73.729581 44.379985 74.351562 49.404297 74.351562 C 55.315251 74.351562 60.338895 73.464693 64.476562 71.691406 C 68.61423 69.859011 71.718274 67.434508 73.787109 64.419922 C 75.855942 61.405335 76.890625 58.036403 76.890625 54.3125 C 76.890625 49.997504 75.736913 46.597835 73.431641 44.115234 C 71.185478 41.573522 68.496086 39.742222 65.363281 38.619141 C 62.289586 37.436951 58.38892 36.342753 53.660156 35.337891 C 49.463376 34.451247 46.418849 33.595112 44.527344 32.767578 C 42.635839 31.940045 41.689453 30.698036 41.689453 29.042969 C 41.689453 27.387902 42.488026 26.057597 44.083984 25.052734 C 45.67994 23.988763 48.221521 23.457031 51.708984 23.457031 C 57.265283 23.457031 62.999202 25.054178 68.910156 28.246094 L 74.318359 15.210938 C 71.303773 13.437651 67.815809 12.107346 63.855469 11.220703 C 59.895129 10.27495 55.877384 9.8027344 51.798828 9.8027344 z M 233.66797 11.044922 L 233.66797 73.109375 L 280.83789 73.109375 L 280.83789 59.189453 L 251.22266 59.189453 L 251.22266 11.044922 L 233.66797 11.044922 z M 113.77344 14.324219 L 113.77344 26.826172 L 106.76758 26.826172 L 106.76758 39.416016 L 113.77344 39.416016 L 113.77344 55.554688 C 113.77344 61.64297 115.45693 66.223179 118.82617 69.296875 C 122.19542 72.370573 127.01368 73.908203 133.2793 73.908203 C 135.58457 73.908203 137.74223 73.670142 139.75195 73.197266 C 141.82079 72.724389 143.56379 72.044848 144.98242 71.158203 L 140.81641 59.367188 C 139.33867 60.37205 137.62444 60.873047 135.67383 60.873047 C 134.13698 60.873047 132.89497 60.400832 131.94922 59.455078 C 131.06258 58.450215 130.61914 57.091128 130.61914 55.376953 L 130.61914 39.416016 L 141.61328 39.416016 L 141.61328 26.826172 L 130.61914 26.826172 L 130.61914 14.324219 L 113.77344 14.324219 z M 173.5 24.255859 C 168.47569 24.255859 163.955 25.319322 159.93555 27.447266 C 155.9161 29.575209 152.75254 32.531442 150.44727 36.314453 C 148.2011 40.038354 147.07812 44.263424 147.07812 48.992188 C 147.07813 53.78006 148.23184 58.066597 150.53711 61.849609 C 152.90149 65.632619 156.21091 68.586899 160.4668 70.714844 C 164.72269 72.842788 169.65803 73.908203 175.27344 73.908203 C 184.25809 73.908203 191.08621 71.307109 195.75586 66.105469 L 186.88867 56.882812 C 185.17449 58.360552 183.46027 59.425967 181.74609 60.076172 C 180.09103 60.726377 178.11191 61.050781 175.80664 61.050781 C 172.73294 61.050781 170.16063 60.400019 168.0918 59.099609 C 166.08207 57.740088 164.72299 55.820491 164.01367 53.337891 L 198.94727 53.337891 C 199.1246 50.677965 199.21289 49.288145 199.21289 49.169922 C 199.21289 44.027393 198.06113 39.594996 195.75586 35.871094 C 193.5097 32.088083 190.43639 29.220146 186.53516 27.269531 C 182.63393 25.259807 178.28787 24.255859 173.5 24.255859 z M 310.84375 24.255859 C 305.64211 24.255859 300.97165 25.319322 296.83398 27.447266 C 292.75543 29.5161 289.5343 32.441598 287.16992 36.224609 C 284.86465 40.00762 283.71094 44.263424 283.71094 48.992188 C 283.71094 53.78006 284.86465 58.066597 287.16992 61.849609 C 289.5343 65.632619 292.78421 68.586899 296.92188 70.714844 C 301.05954 72.842788 305.70122 73.908203 310.84375 73.908203 C 316.04539 73.908203 320.71389 72.842788 324.85156 70.714844 C 328.98923 68.586899 332.21035 65.632619 334.51562 61.849609 C 336.82089 58.066597 337.97461 53.78006 337.97461 48.992188 C 337.97461 44.204315 336.82089 39.94851 334.51562 36.224609 C 332.21035 32.441598 328.98923 29.5161 324.85156 27.447266 C 320.71389 25.319322 316.04539 24.255859 310.84375 24.255859 z M 366.34766 24.255859 C 362.09177 24.255859 358.16232 25.231026 354.55664 27.181641 C 350.95096 29.073146 348.08302 31.791318 345.95508 35.337891 C 343.82713 38.825354 342.76367 42.845051 342.76367 47.396484 C 342.76367 52.007029 343.82713 56.08624 345.95508 59.632812 C 348.08302 63.120276 350.95096 65.838446 354.55664 67.789062 C 358.16232 69.680567 362.09177 70.626953 366.34766 70.626953 C 372.61327 70.626953 377.37203 68.736137 380.62305 64.953125 L 380.62305 66.548828 C 380.62305 70.39095 379.58835 73.285714 377.51953 75.236328 C 375.4507 77.186942 372.2008 78.164062 367.76758 78.164062 C 364.87121 78.164063 361.91498 77.689892 358.90039 76.744141 C 355.94491 75.857496 353.49163 74.61744 351.54102 73.021484 L 345.42383 84.8125 C 348.3202 86.881333 351.83694 88.447746 355.97461 89.511719 C 360.11228 90.575691 364.54467 91.107422 369.27344 91.107422 C 378.37631 91.107422 385.35223 88.861467 390.19922 84.369141 C 395.04619 79.935926 397.46875 73.257572 397.46875 64.332031 L 397.46875 25.052734 L 381.42188 25.052734 L 381.42188 30.904297 C 378.22995 26.471081 373.20436 24.255859 366.34766 24.255859 z M 432.41016 24.255859 C 427.20852 24.255859 422.53807 25.319322 418.40039 27.447266 C 414.32183 29.5161 411.1007 32.441598 408.73633 36.224609 C 406.43104 40.00762 405.2793 44.263424 405.2793 48.992188 C 405.2793 53.78006 406.43104 58.066597 408.73633 61.849609 C 411.1007 65.632619 414.35256 68.586899 418.49023 70.714844 C 422.62791 72.842788 427.26763 73.908203 432.41016 73.908203 C 437.61179 73.908203 442.28225 72.842788 446.41992 70.714844 C 450.55757 68.586899 453.7787 65.632619 456.08398 61.849609 C 458.38924 58.066597 459.54102 53.78006 459.54102 48.992188 C 459.54102 44.204315 458.38924 39.94851 456.08398 36.224609 C 453.7787 32.441598 450.55757 29.5161 446.41992 27.447266 C 442.28225 25.319322 437.61179 24.255859 432.41016 24.255859 z M 84.115234 25.052734 L 84.115234 73.109375 L 100.96094 73.109375 L 100.96094 25.052734 L 84.115234 25.052734 z M 173.58984 36.224609 C 176.19067 36.224609 178.34832 36.963668 180.0625 38.441406 C 181.83579 39.919146 182.95877 41.928994 183.43164 44.470703 L 163.74805 44.470703 C 164.22092 41.928994 165.31317 39.919146 167.02734 38.441406 C 168.80063 36.963668 170.98902 36.224609 173.58984 36.224609 z M 310.84375 37.644531 C 313.79923 37.644531 316.22178 38.648478 318.11328 40.658203 C 320.00479 42.667927 320.95117 45.445615 320.95117 48.992188 C 320.95117 52.597869 320.00479 55.435071 318.11328 57.503906 C 316.22178 59.51363 313.79923 60.519531 310.84375 60.519531 C 307.88827 60.519531 305.46377 59.51363 303.57227 57.503906 C 301.68076 55.435071 300.73633 52.597869 300.73633 48.992188 C 300.73633 45.445615 301.68076 42.667927 303.57227 40.658203 C 305.46377 38.648478 307.88827 37.644531 310.84375 37.644531 z M 370.33789 37.644531 C 373.41159 37.644531 375.92439 38.560181 377.875 40.392578 C 379.82561 42.165864 380.80078 44.500119 380.80078 47.396484 C 380.80078 50.292852 379.79487 52.657836 377.78516 54.490234 C 375.83454 56.32263 373.35248 57.238281 370.33789 57.238281 C 367.3233 57.238281 364.81246 56.32263 362.80273 54.490234 C 360.79301 52.657836 359.78711 50.292852 359.78711 47.396484 C 359.78711 44.500119 360.76227 42.165864 362.71289 40.392578 C 364.72261 38.560181 367.26419 37.644531 370.33789 37.644531 z M 432.41016 37.644531 C 435.36562 37.644531 437.79011 38.648478 439.68164 40.658203 C 441.57314 42.667927 442.51758 45.445615 442.51758 48.992188 C 442.51758 52.597869 441.57314 55.435071 439.68164 57.503906 C 437.79011 59.51363 435.36562 60.519531 432.41016 60.519531 C 429.45467 60.519531 427.03213 59.51363 425.14062 57.503906 C 423.24912 55.435071 422.30273 52.597869 422.30273 48.992188 C 422.30273 45.445615 423.24912 42.667927 425.14062 40.658203 C 427.03213 38.648478 429.45467 37.644531 432.41016 37.644531 z M 472.86328 56.703125 L 472.86328 73.970703 L 455.5957 73.970703 L 455.5957 83.013672 L 481.9043 83.013672 L 481.9043 56.703125 L 472.86328 56.703125 z "
     transform="scale(0.26458334)"
     id="path866" />
</svg>
