<svg xmlns="http://www.w3.org/2000/svg" viewBox="0 0 95 95" width="100" height="100"><path d="M94.909 19.374C94.909 8.674 86.235 0 75.534 0c-10.647 0-19.28 8.591-19.365 19.217l-15.631 2.09c-1.961-6.007-7.598-10.35-14.258-10.35-8.284 0-15.002 6.716-15.002 15.002 0 6.642 4.321 12.267 10.303 14.24l-2.205 16.056c-10.66.049-19.285 8.7-19.285 19.37C.091 86.325 8.765 95 19.466 95c10.677 0 19.332-8.638 19.37-19.304l18.093-2.501c1.979 5.972 7.598 10.285 14.234 10.285 8.284 0 15.002-6.716 15.002-15.002 0-6.891-4.652-12.682-10.983-14.441l1.365-15.339c10.229-.53 18.363-8.966 18.363-19.324zM56.194 67.8l-18.116 2.505a19.39 19.39 0 0 0-13.312-13.3l2.205-16.077a14.98 14.98 0 0 0 14.27-14.222l15.655-2.094c1.894 6.757 7.351 12.009 14.225 13.612l-1.365 15.322c-7.4.688-13.224 6.753-13.562 14.254z" fill="#ffffff"/></svg>
