<?xml version="1.0" encoding="UTF-8" standalone="no"?>
<svg
   xmlns:dc="http://purl.org/dc/elements/1.1/"
   xmlns:cc="http://creativecommons.org/ns#"
   xmlns:rdf="http://www.w3.org/1999/02/22-rdf-syntax-ns#"
   xmlns:svg="http://www.w3.org/2000/svg"
   xmlns="http://www.w3.org/2000/svg"
   xmlns:sodipodi="http://sodipodi.sourceforge.net/DTD/sodipodi-0.dtd"
   xmlns:inkscape="http://www.inkscape.org/namespaces/inkscape"
   version="1.1"
   viewBox="0 0 931.71 636.39"
   id="svg2"
   sodipodi:docname="spiderweb.svg"
   inkscape:version="0.92.4 (unknown)"
   width="931.71002"
   height="636.39001">
  <sodipodi:namedview
     pagecolor="#ffffff"
     bordercolor="#666666"
     borderopacity="1"
     objecttolerance="10"
     gridtolerance="10"
     guidetolerance="10"
     inkscape:pageopacity="0"
     inkscape:pageshadow="2"
     inkscape:window-width="1366"
     inkscape:window-height="705"
     id="namedview344"
     showgrid="false"
     inkscape:zoom="0.70710678"
     inkscape:cx="373.83674"
     inkscape:cy="308.97896"
     inkscape:window-x="0"
     inkscape:window-y="30"
     inkscape:window-maximized="1"
     inkscape:current-layer="layer1" />
  <defs
     id="defs345" />
  <title
     id="title3321">Realistic spider web</title>
  <g
     transform="translate(-50.754,-109.33)"
     id="layer1">
    <path
       style="color:#000000;font-style:normal;font-variant:normal;font-weight:normal;font-stretch:normal;font-size:medium;line-height:normal;font-family:sans-serif;font-variant-ligatures:normal;font-variant-position:normal;font-variant-caps:normal;font-variant-numeric:normal;font-variant-alternates:normal;font-feature-settings:normal;text-indent:0;text-align:start;text-decoration:none;text-decoration-line:none;text-decoration-style:solid;text-decoration-color:#000000;letter-spacing:normal;word-spacing:normal;text-transform:none;writing-mode:lr-tb;direction:ltr;text-orientation:mixed;dominant-baseline:auto;baseline-shift:baseline;text-anchor:start;white-space:normal;shape-padding:0;clip-rule:nonzero;display:inline;overflow:visible;visibility:visible;opacity:0.3;isolation:auto;mix-blend-mode:normal;color-interpolation:sRGB;color-interpolation-filters:linearRGB;solid-color:#000000;solid-opacity:1;vector-effect:none;fill:#000000;fill-opacity:1;fill-rule:nonzero;stroke:none;stroke-width:3.29109073;stroke-linecap:butt;stroke-linejoin:miter;stroke-miterlimit:4;stroke-dasharray:none;stroke-dashoffset:0;stroke-opacity:1;color-rendering:auto;image-rendering:auto;shape-rendering:auto;text-rendering:auto;enable-background:accumulate"
       d="M 38.583984 0 L 41.195312 141.80469 L 27.919922 159.23242 L 0 145.79297 L 0 149.44727 L 10.40625 154.45508 L 18.080078 174.07422 L 22.833984 192.77148 L 22.890625 192.75781 L 12.115234 223.28906 L 0 191.64062 L 0 200.84375 L 10.970703 229.50195 L 11.902344 229.14453 L 29.597656 273.80469 L 28.876953 287.48438 L 0 296.01562 L 0 299.44922 L 28.757812 290.95508 L 59.71875 351.08594 L 69.652344 400.75195 L 61.183594 411.76172 L 61.669922 412.13281 L 11.228516 412.85547 L 0 299.71289 L 0 333.02539 L 8.0390625 414.04688 L 8.0703125 416.19141 L 8.1855469 416.18945 L 8.1855469 455.93555 L 0 455.22656 L 0 458.52734 L 8.0742188 459.22656 L 0 482.91211 L 0 493.11328 L 10.570312 462.10547 L 120.63477 556.39062 L 120.64453 556.54688 L 120.80664 556.53711 L 156.71875 587.29883 L 87.900391 636.39062 L 93.564453 636.39062 L 159.29297 589.50391 L 214.02734 636.39062 L 219.08594 636.39062 L 162.05273 587.53516 L 195.4375 563.71875 L 309.07812 633.78516 L 307.18555 636.39062 L 311.25391 636.39062 L 311.88672 635.51953 L 313.30078 636.39062 L 313.32227 636.39062 L 315.04297 633.59961 L 313.82617 632.84961 L 323.60938 619.38086 L 324.35742 620.65625 L 327.19727 618.99023 L 325.7207 616.47266 L 340.03516 596.76562 L 413.14648 636.39062 L 420.05273 636.39062 L 400.92578 626.02539 L 406.75 597.82031 L 407.14453 598.10547 L 456.49219 613.35938 L 457.46484 610.21484 L 408.63672 595.12109 L 408.63281 595.11914 L 460.51562 576.99805 L 456.29102 628.68164 L 455.33008 628.58984 L 454.58008 636.39062 L 457.88672 636.39062 L 458.53125 629.68945 L 459.50391 629.76953 L 459.95898 624.22266 L 481.03125 614.24219 L 541.375 636.39062 L 550.92773 636.39062 L 485.20117 612.26953 L 492.48828 608.81641 L 492.1582 608.12305 L 497.54492 609.78906 L 497.72461 609.20703 L 527.4082 613.44727 L 536.7168 612.94336 L 575.25391 634.06055 L 574.56641 636.39062 L 577.99805 636.39062 L 578.20898 635.67773 L 579.50977 636.39062 L 586.35742 636.39062 L 579.16016 632.44727 L 589.33789 597.93359 L 614.68359 636.39062 L 624.43945 636.39062 L 651.41602 622.16992 L 651.0957 621.56055 L 652.99609 620.35742 L 714.97852 609.88281 L 717.46289 610.08984 L 738.09766 627.46484 L 744.35547 630.49219 L 739.97461 636.39062 L 744.07227 636.39062 L 747.36914 631.95312 L 756.53906 636.39062 L 764.0957 636.39062 L 739.90039 624.68359 L 723.13281 610.5625 L 726.03906 610.80469 L 740.40234 601.51562 L 760.87109 621.52734 L 755.44141 630.57812 L 758.26562 632.26953 L 762.99219 624.39258 L 764.07812 624.66406 L 774.69922 635.04883 L 770.67578 636.39062 L 780.7832 636.39062 L 780.60938 636.2207 L 838.42383 593.77148 L 898.47461 615.04102 L 847.63281 632.75781 L 845.70898 636.39062 L 849.43359 636.39062 L 849.9375 635.43945 L 903.43555 616.79688 L 931.71094 626.81055 L 931.71094 623.32031 L 908.4043 615.06641 L 908.66211 614.97656 L 931.71094 587.44336 L 931.71094 582.31641 L 906.71875 612.16797 L 903.44336 613.31055 L 841.63281 591.41602 L 849.65234 585.5293 L 877.59961 571.23047 L 931.71094 576.74414 L 931.71094 573.43359 L 882.99414 568.4707 L 888.51172 565.64844 L 888.70508 565.07031 L 916.88281 561.75586 L 931.71094 571.3457 L 931.71094 567.42383 L 866.56445 525.29883 L 860.36719 500.5 L 863.17773 498.87109 L 931.16211 430.88672 L 928.83398 428.56055 L 861.15625 496.23828 L 844.38477 505.94727 L 846.03516 508.79492 L 857.40234 502.21289 L 862.51953 522.67969 L 840.39453 508.37305 L 840.55078 507.8125 L 838.75781 507.31445 L 826.19336 499.18945 L 840.51758 490.07422 L 838.22656 505.33984 L 841.48047 505.82812 L 844.16016 487.97656 L 843.83008 487.92773 L 877.02734 420.63281 L 874.61523 419.44336 L 931.71094 428.55859 L 931.71094 425.22656 L 931.04492 425.12109 L 931.71094 422.33398 L 931.71094 408.16797 L 927.78516 424.60156 L 878.38477 416.71289 L 910.0957 328.61914 L 931.71094 284.03906 L 931.71094 276.5 L 909.6875 321.92188 L 904.76562 292.38867 L 890.06641 277.32031 L 911.73047 274.26367 L 903.53516 290.65234 L 906.47852 292.125 L 915.68945 273.70508 L 931.71094 271.44141 L 931.71094 268.11719 L 887.2168 274.40039 L 868.80273 255.52539 L 839.68164 169.61523 L 829.94727 105.9082 L 844.83984 63.900391 L 848.04297 61.492188 L 865.13672 46.070312 L 891.31055 90.144531 L 891.36719 90.109375 L 931.71094 253.89062 L 931.71094 240.13672 L 894.17578 87.744141 L 898.4668 16.001953 L 916.20508 0 L 911.29102 0 L 898.74805 11.316406 L 899.42578 0 L 896.12891 0 L 895.26367 14.458984 L 845.94922 58.951172 L 807.0918 88.160156 L 807.10938 88.060547 L 755.3457 79.136719 L 754.87109 81.884766 L 753.56055 80.486328 L 702.90039 32.494141 L 690.01172 2.2519531 L 691.44141 0 L 687.54297 0 L 664.27344 36.675781 L 626.75586 52.988281 L 554.5625 0 L 548.99805 0 L 623.0957 54.382812 L 586.79492 107.10742 L 566.28711 113.08594 L 566.62695 114.25391 L 510.40039 109.51562 L 511.38477 107.9082 L 497.2168 99.25 L 507.61328 25.111328 L 508.04688 24.96875 L 507.75586 24.089844 L 511.13477 0 L 507.81055 0 L 504.63867 22.626953 L 380.80078 63.486328 L 381.83398 66.611328 L 504.12891 26.259766 L 503.04688 33.966797 L 502.2832 33.123047 L 425.70703 102.57617 L 404.32812 112.83984 L 347.52539 0 L 343.8418 0 L 354.64844 21.46875 L 354.58594 21.439453 L 346.48047 38.664062 L 343.07227 39.464844 L 343.82617 42.667969 L 344.69141 42.464844 L 344.51758 42.835938 L 286.49023 143.75195 L 287.25 144.18945 L 271.5625 144.18945 L 175.69922 65.285156 L 175.13086 64.099609 L 174.57812 64.363281 L 96.380859 0 L 91.201172 0 L 132.28516 33.816406 L 137.56641 66.390625 L 109.2793 170.69727 L 83.101562 185.5332 L 83.302734 185.88867 L 59.175781 174.27539 L 60.238281 173.48047 L 48.703125 158.09766 L 44.492188 142.10742 L 41.878906 0 L 38.583984 0 z M 767.4375 0 L 821.55273 76.345703 L 824.23633 74.441406 L 771.47266 0 L 767.4375 0 z M 687.87109 5.625 L 697.36133 27.890625 L 690.22266 72.195312 L 662.48633 51.027344 L 679.75781 19.066406 L 679.44922 18.898438 L 687.87109 5.625 z M 894.98242 19.144531 L 891.13867 83.40625 L 867.63086 43.822266 L 894.98242 19.144531 z M 356.48828 25.126953 L 361.52148 35.125 L 350.57031 37.701172 L 356.48828 25.126953 z M 699.7793 33.570312 L 700.13867 34.414062 L 751.22461 82.808594 L 777.26172 110.58203 L 741.56055 137.41602 L 698.55469 98.625 L 693.1875 74.476562 L 699.7793 33.570312 z M 136.13281 36.982422 L 160.66992 57.179688 L 144.00586 54.148438 L 143.54297 56.701172 L 138.22266 49.859375 L 136.13281 36.982422 z M 502.58203 37.294922 L 494.08984 97.847656 L 488.61133 97.847656 L 490.03906 98.720703 L 415.05469 111.33984 L 427.5625 105.33789 L 502.58203 37.294922 z M 363.04297 38.148438 L 401.35938 114.26562 L 401.35352 114.26758 L 401.36719 114.27734 L 403.36523 118.25 L 400.96094 151.0957 L 332.5293 185.31055 L 321.52344 185.31055 L 291.99609 161.00781 L 290.70117 144.18945 L 290.03516 144.18945 L 347.4375 44.359375 L 348.78125 41.503906 L 363.04297 38.148438 z M 661.12891 41.632812 L 644.83594 67.316406 L 613.91797 107.11328 L 613.54492 105.96094 L 587.29297 114.45703 L 588.76367 110.05078 L 625.75195 56.330078 L 626.33398 56.759766 L 661.12891 41.632812 z M 660.9043 53.958984 L 690.23047 76.339844 L 694.57422 95.890625 L 659.69141 102.3457 L 654.79297 88.003906 L 654.1543 87.167969 L 654.48828 87.09375 L 651.16406 71.982422 L 660.9043 53.958984 z M 656.91211 54.425781 L 650.08203 67.0625 L 649.77539 65.671875 L 656.91211 54.425781 z M 139.32227 56.634766 L 153.64648 75.054688 L 151.69727 78.957031 L 153.7832 77.958984 L 156.29492 148.2832 L 155.62109 149.63672 L 156.1543 149.9043 L 144.64453 190.53711 L 116.32422 186.60352 L 115.27734 184.60938 L 114.52734 185.00391 L 112.30078 172.39258 L 112.22852 172.40625 L 140.92969 66.564453 L 139.32227 56.634766 z M 144.18555 57.525391 L 160.89258 60.564453 L 155.2793 71.791016 L 144.18555 57.525391 z M 164.63477 60.441406 L 171.30469 65.929688 L 158.93164 71.847656 L 164.63477 60.441406 z M 840.08203 67.476562 L 827.93945 101.72461 L 819.95508 82.794922 L 819.38281 83.037109 L 840.08203 67.476562 z M 174.10742 68.240234 L 186.57031 78.496094 L 182.72656 98.482422 L 181.50391 97.869141 L 159.36719 142.13867 L 157.02344 76.410156 L 174.10742 68.240234 z M 647.26172 69.556641 L 647.6875 71.494141 L 645.40234 75.720703 L 643.94922 73.820312 L 647.26172 69.556641 z M 648.76953 76.412109 L 649.91602 81.625 L 647.59375 78.587891 L 648.76953 76.412109 z M 641.85938 76.509766 L 643.68555 78.898438 L 632.56055 99.482422 L 627.17773 95.410156 L 641.85938 76.509766 z M 189.46289 80.876953 L 199.32422 88.992188 L 186.22461 97.726562 L 189.46289 80.876953 z M 645.87695 81.763672 L 651.85156 89.576172 L 656.41992 102.94922 L 640.93164 105.81641 L 635.21484 101.49219 L 645.87695 81.763672 z M 755.44141 82.494141 L 803.58594 90.794922 L 779.91016 108.5918 L 755.44141 82.494141 z M 817.18359 84.6875 L 826.5332 106.85547 L 826.75 106.76367 L 829.24609 123.09961 L 798.02734 99.087891 L 817.18359 84.6875 z M 201.97852 91.177734 L 230.61523 114.74805 L 229.54492 114.9082 L 234.83008 150.13086 L 212.81641 199.43945 L 186.72656 228.69336 L 178.4082 231.66406 L 155.70312 220.73828 L 156.86133 220.33789 L 147.41016 192.8418 L 159.63867 149.67773 L 159.61328 149.00781 L 181.80078 104.62695 L 201.97852 91.177734 z M 625.1582 98.007812 L 630.97852 102.41211 L 599.29102 161.05078 L 597.75586 162.91992 L 586.83594 147.63086 L 586.32227 147.99609 L 625.1582 98.007812 z M 695.28906 99.105469 L 695.56836 100.36328 L 738.88281 139.43359 L 725 149.86719 L 724.86523 149.86133 L 724.86133 149.9707 L 713.0625 158.8418 L 702.06055 166.17578 L 701.02539 163.41406 L 694.12891 160.45898 L 693.30273 162.38672 L 668.80273 126.9043 L 666.48828 125.15234 L 667.375 124.84961 L 660.76367 105.49414 L 695.28906 99.105469 z M 797.99414 99.115234 L 796.01172 101.68945 L 829.96484 127.80469 L 836.4707 170.40039 L 868.81055 265.80078 L 863.82422 277.70117 L 845.15039 280.33789 L 844.55273 280.12891 L 844.44531 280.4375 L 813.80469 284.76367 L 773.58789 163.24219 L 773.07227 163.41211 L 779.82617 112.76953 L 797.99414 99.115234 z M 493.58203 101.46094 L 491.61328 115.50781 L 462.82031 129.10352 L 425.43164 130.84375 L 408.17383 115.83789 L 493.58203 101.46094 z M 496.7168 102.80273 L 509.6582 110.71094 L 509.60938 111.29883 L 495.16016 113.92578 L 496.7168 102.80273 z M 633.63477 104.41992 L 639.72852 109.0332 L 639.79297 109.375 L 640.10352 109.31641 L 666.39453 129.21094 L 691.78906 165.98633 L 691.10742 173.47852 L 641.39844 206.62109 L 628.76562 199.04102 L 629.51953 198.31445 L 604.61523 172.52148 L 599.73828 165.69336 L 602.03516 162.89453 L 633.63477 104.41992 z M 657.49219 106.09766 L 663.13281 122.61328 L 644.48438 108.50586 L 657.49219 106.09766 z M 611.65039 110.03125 L 597.25781 128.55664 L 587.35352 117.89258 L 611.65039 110.03125 z M 584.95312 111.07031 L 583.41992 115.66992 L 572.38086 114.74023 L 584.95312 111.07031 z M 515.21484 113.22461 L 583.89844 119.01172 L 594.99414 130.95898 L 596.42773 129.62891 L 552.16016 186.60547 L 488.00586 164.9375 L 494.62695 117.72656 L 495.86328 117.14062 L 515.28516 113.60938 L 515.21484 113.22461 z M 776.13477 115.54492 L 773.625 134.37109 L 764.33203 124.41797 L 776.13477 115.54492 z M 233.16406 116.84766 L 257.36719 136.76953 L 237.63281 146.63672 L 233.16406 116.84766 z M 491.06836 119.40625 L 484.57031 165.73047 L 484.10938 167.09766 L 484.36719 167.18555 L 480.39844 195.47852 L 441.72266 205.35547 L 416.01562 140.18164 L 423.45508 133.48828 L 424.26562 134.19141 L 463.63086 132.36133 L 464.00781 132.18164 L 463.81055 133.24609 L 487.9082 137.70898 L 488.50781 134.47266 L 467.42578 130.56836 L 491.06836 119.40625 z M 407.91992 119.97852 L 420.95117 131.31055 L 414.72461 136.91406 L 408.50391 121.13672 L 407.91992 119.97852 z M 406.21875 124.31836 L 412.42578 140.05664 L 411.3418 148.52734 L 409.98438 147.84766 L 403.57617 160.66016 L 401.38672 155.11523 L 398.32812 156.32422 L 404.39844 171.70312 L 377.95312 166.2793 L 404.10547 153.20117 L 406.21875 124.31836 z M 761.6875 126.40625 L 772.60938 138.10547 L 773.20117 137.55469 L 769.9043 162.27734 L 744.05469 139.66016 L 761.6875 126.40625 z M 258.92578 138.05078 L 267.7207 145.29102 L 267.7207 147.48047 L 270.38281 147.48047 L 322.01172 189.97656 L 335.68164 202.77148 L 309.96289 257.75781 L 303.66602 277.55273 L 272.47852 270.04883 L 272.01367 268.57422 L 269.56445 269.34766 L 265.57617 268.38867 L 223.41211 252.22656 L 222.72656 251.19727 L 221.99805 251.68359 L 212.19336 247.92578 L 210.85547 247.2832 L 215.85352 202.31445 L 214.76758 202.19531 L 215.61133 201.24805 L 238.22461 150.5957 L 238.14453 150.05859 L 259.57227 139.3457 L 258.92578 138.05078 z M 741.99023 141.21094 L 741.48633 141.78516 L 771.79688 168.30664 L 810.49219 285.23047 L 777.30273 289.91797 L 761.125 275.75781 L 726.38086 194.68555 L 726.44531 193.05078 L 726.63477 192.81055 L 726.45898 192.67188 L 728.08594 151.66406 L 741.37109 141.67578 L 741.47656 141.77344 L 741.97266 141.22461 L 741.99023 141.21094 z M 42.121094 146.02344 L 45.724609 159.71289 L 46.679688 159.46289 L 45.076172 167.48828 L 31.085938 160.75586 L 31.097656 160.49414 L 42.121094 146.02344 z M 414.93164 146.40625 L 438.16016 205.29492 L 426.48633 218.03125 L 414.31836 186.99219 L 413.98242 187.02148 L 409.68945 176.15039 L 411.08008 176.43359 L 414.93164 146.40625 z M 275.56055 147.48047 L 287.6543 147.48047 L 288.4707 158.10547 L 275.56055 147.48047 z M 584.61914 150.18945 L 595.5918 165.55469 L 590.33789 171.94922 L 571.5918 167.51172 L 570.83398 170.71484 L 579.77734 172.83203 L 569.85938 180.76172 L 569.56836 180.77344 L 569.56836 180.78906 L 561.38086 180.10547 L 584.61914 150.18945 z M 410.65625 153.86133 L 408.26758 172.49805 L 408.24805 172.49414 L 405.20117 164.77539 L 410.65625 153.86133 z M 724.69141 154.21289 L 723.26758 190.14258 L 714.44336 183.1582 L 714.74023 183.10742 L 711.39844 163.90234 L 714.96484 161.52539 L 724.69141 154.21289 z M 14.757812 156.55078 L 27.708984 162.7832 L 27.0625 178.33008 L 21.726562 175.05664 L 21.220703 173.06445 L 14.757812 156.55078 z M 49.103516 164.12109 L 55.333984 172.42773 L 48.134766 168.96289 L 49.103516 164.12109 z M 694.57812 164.23242 L 698.43555 165.88477 L 699.24805 168.05078 L 694.62695 171.13281 L 695.17578 165.09766 L 694.57812 164.23242 z M 30.935547 164.33789 L 72.708984 184.44336 L 72.457031 184.4707 L 75.109375 207.81055 L 30.273438 180.30078 L 30.935547 164.33789 z M 708.4082 165.89844 L 710.92383 180.37305 L 705.88867 176.38477 L 703.24609 169.33984 L 708.4082 165.89844 z M 374.75195 167.87891 L 374.53516 168.9375 L 405.83984 175.35938 L 410.5625 187.32031 L 331.42383 194.2793 L 329.62305 192.5918 L 333.94336 189.13672 L 333.45703 188.52734 L 374.75195 167.87891 z M 487.54102 168.25586 L 550.02148 189.35938 L 533.38086 210.78125 L 483.55664 196.66602 L 487.54102 168.25586 z M 597.57422 168.32617 L 602.07812 174.63477 L 602.19727 174.75977 L 593.90234 172.79492 L 597.57422 168.32617 z M 700.43555 171.21484 L 702.39844 176.44922 L 695.52734 174.48633 L 700.43555 171.21484 z M 583.84375 173.79492 L 588.01367 174.7832 L 578.97266 185.78516 L 573.23242 190.37695 L 572.93164 182.51953 L 583.84375 173.79492 z M 109.32227 174.45898 L 111.46875 186.61719 L 98.736328 193.31641 L 86.464844 187.41211 L 109.32227 174.45898 z M 591.57812 175.625 L 604.75391 178.74414 L 605.00781 177.66797 L 627.15234 200.60156 L 627.45508 200.31055 L 629.25391 214.71875 L 625.21094 217.41406 L 624.83789 216.76758 L 588.67969 237.57227 L 573.73828 203.53906 L 573.38867 194.4668 L 581.29883 188.14062 L 591.57812 175.625 z M 691.93359 176.88281 L 706.45312 181.03125 L 723.10352 194.21484 L 723.06055 195.29883 L 760.5625 282.79688 L 760.5625 291.38867 L 763.85352 291.38867 L 763.85352 282.52148 L 772.99805 290.52344 L 746.86328 294.21289 L 738.07617 294.93555 L 738.34766 294.65039 L 703.53906 261.62695 L 701.85352 263.4043 L 666.60156 193.77539 L 691.93359 176.88281 z M 22.890625 179.62891 L 26.699219 181.9668 L 24.830078 187.26367 L 22.890625 179.62891 z M 559.53516 182.47852 L 559.4707 183.24805 L 569.69727 184.10156 L 570.03711 192.93555 L 562.59375 198.88867 L 550.13867 194.57617 L 559.53516 182.47852 z M 29.568359 183.72656 L 75.580078 211.95898 L 75.736328 213.33789 L 75.607422 213.46484 L 75.769531 213.62695 L 81.375 262.95703 L 82.65625 291.15625 L 73.226562 298.01367 L 47.537109 289.00586 L 47.011719 286.96875 L 33.306641 273.26367 L 32.900391 273.66992 L 32.921875 273.25977 L 14.435547 226.60352 L 29.568359 183.72656 z M 75.941406 186 L 85.427734 190.56445 L 83.160156 190.44531 L 82.300781 206.77148 L 78.921875 210.15039 L 78.669922 209.99414 L 75.941406 186 z M 325.35938 188.60156 L 329.34375 188.60156 L 327.42578 190.13672 L 328.70117 191.73047 L 325.35938 188.60156 z M 113.09766 189.47656 L 143.73828 193.73242 L 141.50391 201.61328 L 124.64062 204.98438 L 124.81836 205.87305 L 102.42578 195.0918 L 113.09766 189.47656 z M 412.15234 190.48633 L 424.00977 220.73438 L 419.51953 225.62891 L 386.63086 232.74023 L 385.77539 233.42578 L 336.49805 197.13672 L 412.15234 190.48633 z M 86.425781 191.04492 L 97.015625 196.14258 L 96.087891 196.99805 L 106.56836 208.35156 L 115.5 232.59375 L 81.806641 211.91992 L 85.521484 208.20508 L 86.425781 191.04492 z M 663.8418 195.61328 L 699.03906 265.12695 L 704.32227 297.70508 L 678.21875 299.84766 L 677.86523 299.35352 L 677.03516 299.94727 L 675.63672 300.06055 L 644.23828 229.41797 L 643.36523 209.26562 L 663.8418 195.61328 z M 548.71875 196.40234 L 548.35742 197.44531 L 559.55273 201.32031 L 534.89062 221.05078 L 532.33008 217.49805 L 548.71875 196.40234 z M 570.19336 197.02344 L 570.36914 201.58008 L 566.26953 200.16211 L 570.19336 197.02344 z M 145.83789 198.39258 L 153.08594 219.47852 L 137.39844 211.92773 L 138.20117 205.91797 L 137.33789 205.80078 L 144.12305 204.44531 L 145.83789 198.39258 z M 101.98828 198.53516 L 106.36133 200.64062 L 106.36133 203.27539 L 101.98828 198.53516 z M 479.90625 199.00195 L 475.22852 232.35352 L 457.76172 246.02344 L 442.9375 208.44141 L 479.90625 199.00195 z M 483.09766 199.95117 L 531.20312 213.58398 L 509.81836 241.10938 L 479.13672 228.19141 L 483.09766 199.95117 z M 109.65234 202.22266 L 120.16797 207.28711 L 119.95898 207.4043 L 131.32422 227.51758 L 130.91992 235.62695 L 130.83203 236.2832 L 130.89062 236.23828 L 130.60742 241.86133 L 120.03125 235.37109 L 109.65234 207.20312 L 109.65234 202.22266 z M 563.23047 202.59375 L 570.89258 205.24609 L 585.81055 239.22266 L 559.07812 254.60156 L 536.81641 223.72461 L 563.23047 202.59375 z M 631.2793 204.38867 L 638.36914 208.64258 L 632.31641 212.67773 L 631.2793 204.38867 z M 212.24219 205.02734 L 207.71484 245.76953 L 196.21094 240.23438 L 197.50391 239.23828 L 192.17969 227.52148 L 212.24219 205.02734 z M 338.20703 205.13672 L 356.90234 222.63672 L 354.47461 222.70703 L 355.36523 253.05273 L 356.77734 253.01172 L 336.09961 285.35547 L 329.17383 283.6875 L 329.18945 283.5957 L 328.10547 283.43164 L 306.875 278.32422 L 306.87695 278.30859 L 313.03516 258.95898 L 338.20703 205.13672 z M 134.83008 206.30273 L 134.2793 210.42578 L 128.39258 207.58984 L 134.83008 206.30273 z M 439.50195 208.70312 L 454.91992 247.78711 L 438.15039 247.78711 L 427.82227 221.44336 L 439.50195 208.70312 z M 347.49023 209.31445 L 383.11719 235.55273 L 379.01953 238.83008 L 347.49023 209.31445 z M 124.98047 209.60156 L 133.82422 213.85742 L 132.59375 223.07031 L 124.98047 209.60156 z M 640.16406 211.40039 L 640.81055 226.34375 L 631.96484 216.86914 L 640.16406 211.40039 z M 79.416016 214.3125 L 117.33789 237.58203 L 119.23633 242.73633 L 132.27734 246.74805 L 132.7168 247.01758 L 132.28516 247.11133 L 145.49414 307.87109 L 139.30469 314.74805 L 118.94141 311.50977 L 117.71484 309.68164 L 122.13867 244.19531 L 118.85742 243.97266 L 114.35547 310.57812 L 114.50781 310.80859 L 105.73633 309.41211 L 84.859375 302.09375 L 86.445312 302.02148 L 84.658203 262.69531 L 79.185547 214.54102 L 79.416016 214.3125 z M 136.94141 215.35938 L 146.3125 219.86719 L 135.16602 228.66797 L 136.94141 215.35938 z M 629.18945 218.7168 L 641.41602 231.81445 L 641.61719 231.62695 L 672.16016 300.3457 L 627.36133 304.02344 L 626.24219 304.05078 L 627.96875 303.05273 L 601.65625 257.48828 L 603.18164 257.75195 L 607.64453 231.86914 L 605.75781 231.54297 L 626.14062 219.81641 L 626.57227 220.46289 L 629.18945 218.7168 z M 530.22656 220.20703 L 532.31836 223.10938 L 520.83008 232.29883 L 530.22656 220.20703 z M 149.61328 221.45703 L 164.04883 228.40625 L 163.58008 228.57812 L 176.9668 265.17188 L 177.64062 264.92578 L 176.92773 270.28125 L 133.80664 243.82422 L 134.32031 233.5293 L 149.61328 221.45703 z M 357.78906 223.46484 L 368.97266 233.93359 L 358.57617 250.19922 L 357.78906 223.46484 z M 425.3457 224.14453 L 430.68555 237.76367 L 404.39062 247.09375 L 404.36523 247.11523 L 388.78711 235.64258 L 421.23828 228.625 L 425.3457 224.14453 z M 534.24609 225.7832 L 546.54102 242.83984 L 519.26367 242.01172 L 519.25977 242.17578 L 516.19531 240.22266 L 534.24609 225.7832 z M 167.6582 230.14453 L 177.27734 234.77344 L 181.17773 245.16992 L 178.66992 257.19531 L 178.37305 259.43359 L 167.6582 230.14453 z M 190.13477 230.97266 L 193.42969 238.22266 L 192.89062 238.63477 L 182.57422 233.66992 L 184.38086 233.02539 L 185.99023 234.46094 L 188.61914 231.51367 L 190.13477 230.97266 z M 478.66406 231.56445 L 507.72656 243.80273 L 476.10547 284.50391 L 474.22852 283.71289 L 473.34766 283.56641 L 471.38477 280.3418 L 471.31445 280.38477 L 471.31055 280.37109 L 471.70312 279.08203 L 471.99414 279.12305 L 476.88477 244.23633 L 476.91211 244.15625 L 476.89844 244.15234 L 478.66406 231.56445 z M 604.20508 232.4375 L 600.29492 255.13086 L 591.43359 239.78516 L 604.20508 232.4375 z M 371.41797 236.22266 L 395.20312 258.48633 L 385.89258 274.57227 L 384.68555 274.57227 L 384.68555 275.16016 L 384.59766 274.89453 L 362.04883 291.59766 L 339.48438 286.16992 L 371.41797 236.22266 z M 181.56641 236.83789 L 182.79102 237.42773 L 182.43164 239.14648 L 181.56641 236.83789 z M 474.57031 237.04883 L 473.66406 243.50586 L 466.10938 267.1875 L 459.02148 249.2168 L 474.57031 237.04883 z M 385.85938 237.57227 L 401.73633 249.26562 L 395.56445 254.31445 L 381.44727 241.10352 L 385.85938 237.57227 z M 185.84375 238.89648 L 189.9707 240.88281 L 184.625 244.99414 L 184.59375 244.90625 L 185.84375 238.89648 z M 431.88867 240.82617 L 435.54883 250.17188 L 435.54883 251.07812 L 435.9043 251.07812 L 441.12109 264.38281 L 431.34766 266.63867 L 431.09375 266.79883 L 407.55469 249.46484 L 431.88867 240.82617 z M 515.27344 240.96094 L 514.10547 242.79492 L 533.72656 255.28125 L 533.17578 255.58594 L 539.00586 266.15039 L 494.66406 291.66406 L 493.80078 291.9668 L 485.37891 288.41602 L 514.44531 241.62109 L 515.27344 240.96094 z M 588.58008 241.42773 L 624.76172 304.08398 L 591.80469 304.85547 L 574.20898 270.49805 L 573.74805 270.2832 L 573.74805 258.67773 L 577.22656 249.10547 L 576.00391 248.66016 L 588.58008 241.42773 z M 193.29102 242.47852 L 207.32812 249.23633 L 207.15234 250.82422 L 225.06836 273.21875 L 225.06836 310.19531 L 217.8418 326.00586 L 218.14453 327.36523 L 214.66016 326.87891 L 185.24414 296.71484 L 184.39453 295.29492 L 180.17578 270.82812 L 181.91602 257.75 L 183.53516 249.98438 L 193.29102 242.47852 z M 524.42383 245.45898 L 548.96875 246.20508 L 556.21289 256.25195 L 550.56445 259.5 L 535.41602 252.45508 L 524.42383 245.45898 z M 136.08203 249.08203 L 176.75977 274.04297 L 177.25 273.24219 L 180.98047 294.88086 L 171.08008 319.79688 L 154.21289 317.11523 L 148.75781 307.39258 L 136.08203 249.08203 z M 573.32812 250.20117 L 571.38672 255.54102 L 568.47461 252.99219 L 573.32812 250.20117 z M 439.44141 251.07812 L 456.2168 251.07812 L 464.24414 271.42773 L 449.9043 277.77539 L 439.44141 251.07812 z M 211.72266 251.26953 L 221.25586 254.92383 L 230.00195 268.04297 L 226.89453 270.23438 L 211.72266 251.26953 z M 404.4707 251.2793 L 428.0918 268.67578 L 417.78516 275.11523 L 397.98633 256.58398 L 404.4707 251.2793 z M 565.45898 254.72852 L 570.45703 259.09961 L 570.45703 268.75391 L 554.21484 261.19922 L 565.45898 254.72852 z M 226.56836 256.96094 L 238.96875 261.71484 L 232.69141 266.14453 L 226.56836 256.96094 z M 537.82812 257.20898 L 547.07617 261.50781 L 541.85938 264.50977 L 537.82812 257.20898 z M 397.66992 260.79688 L 431.19922 292.18164 L 427.81445 307.41797 L 380.16211 295.95508 L 379.30273 292.51953 L 389.03906 275.70117 L 390.56445 274.57227 L 389.69336 274.57227 L 397.66992 260.79688 z M 498.53906 260.99414 L 482.30859 287.12109 L 479.24414 285.83008 L 498.53906 260.99414 z M 871.25195 262.74805 L 883.17383 274.9707 L 867.61523 277.16602 L 870.4043 270.50781 L 872.2168 275.85352 L 875.33398 274.79492 L 872.32617 265.91992 L 872.60938 265.24414 L 872.01367 264.99414 L 871.25195 262.74805 z M 470.95703 262.82227 L 469.23438 275.10742 L 468.01953 272.0293 L 470.95703 262.82227 z M 550.72461 263.20703 L 571.79297 273.00586 L 588.15234 304.94141 L 564.4707 305.49414 L 543.44922 267.39453 L 550.72461 263.20703 z M 244.7168 263.91797 L 251.83594 266.64648 L 251.83594 278.15625 L 244.7168 263.91797 z M 241.17188 264.1875 L 251.85352 285.54883 L 252.7168 318.38867 L 240.54883 330.50391 L 235.86719 329.84766 L 228.35938 309.82617 L 228.35938 272.82422 L 228.55078 273.0957 L 241.17188 264.1875 z M 702.35938 265.04297 L 734.19922 295.25195 L 706.7793 297.50391 L 707.59961 297.37109 L 702.35938 265.04297 z M 442.33594 267.48242 L 446.52148 278.16016 L 434.48047 269.29297 L 442.33594 267.48242 z M 255.12695 267.9082 L 258.74219 269.29297 L 255.12695 276.92383 L 255.12695 267.9082 z M 540.5957 269.0332 L 560.75977 305.58203 L 501.10547 306.97656 L 497.88477 301.58594 L 499.82812 300.07422 L 497.10742 299.61914 L 495.88477 294.72266 L 496.04492 294.66602 L 540.5957 269.0332 z M 261.82227 270.47461 L 264.59766 271.53711 L 269.90234 272.81445 L 274.20508 286.44141 L 280.36914 316.37891 L 278.28125 326.97656 L 278.41016 327.00195 L 275.82617 331.54688 L 262.74805 332.20312 L 255.99023 317.72266 L 255.12305 284.73047 L 255.0957 284.67578 L 261.82227 270.47461 z M 430.94141 270.77344 L 444 280.39062 L 441.23828 281.61328 L 443.50391 281.98633 L 434.61719 290.87305 L 420.26953 277.44336 L 430.94141 270.77344 z M 273.63672 273.71289 L 280.72461 275.41797 L 276.95312 284.21484 L 273.63672 273.71289 z M 463.50391 275.35547 L 461.50586 281.61719 L 452.6543 280.1582 L 463.50391 275.35547 z M 283.9707 276.19922 L 303.38477 280.86914 L 300.93164 313.57617 L 299.99805 327.60938 L 302.09375 330.22656 L 285.13086 331.08008 L 281.75781 326.36133 L 283.72656 316.36719 L 277.67383 286.96289 L 279.09375 287.57227 L 283.9707 276.19922 z M 466.4375 276.98828 L 467.82812 280.51367 L 467.20703 282.55469 L 464.78711 282.15625 L 466.4375 276.98828 z M 32.708984 277.32031 L 42.699219 287.31055 L 36.650391 285.18945 L 32.224609 286.49609 L 32.708984 277.32031 z M 886.02539 277.89062 L 901.68945 293.94727 L 906.95898 325.56836 L 908.00391 325.39453 L 907.06055 327.3418 L 875.07812 416.18555 L 849.07227 412.0332 L 848.98438 412.01562 L 849.0918 411.87891 L 838.4707 398.36328 L 836.98242 399.53125 L 836.14453 371.84766 L 843.62891 334.41992 L 866.13477 280.69922 L 886.02539 277.89062 z M 382.38281 280.63281 L 375.78711 292.02344 L 376.55273 295.08789 L 366.22461 292.60156 L 382.38281 280.63281 z M 862.34375 281.23633 L 844.15234 324.65625 L 840.55469 301.63867 L 846.89453 283.41406 L 862.34375 281.23633 z M 306.62695 281.64844 L 325.46484 286.18164 L 318.85742 329.38477 L 306.14453 330.02344 L 303.36523 326.55078 L 304.2168 313.80859 L 306.62695 281.64844 z M 447.50195 282.64258 L 448.33398 282.78125 L 454.80273 299.2832 L 449.28906 301.12109 L 447.3418 298.88086 L 447.01953 299.7207 L 437.0625 293.08203 L 447.50195 282.64258 z M 453.38281 283.61328 L 460.49609 284.78516 L 458.6582 290.54492 L 453.38281 283.61328 z M 843.23047 283.93359 L 838.14258 298.56445 L 827.66992 286.12891 L 843.23047 283.93359 z M 463.77734 285.32617 L 466.23828 285.73047 L 465.44141 288.35156 L 463.06055 287.56836 L 463.77734 285.32617 z M 469.51367 286.27148 L 471.32031 286.56836 L 472.71875 288.86523 L 471.55664 290.35938 L 468.57031 289.37695 L 469.51367 286.27148 z M 823.82227 286.67188 L 837.4082 302.80078 L 841.45703 328.72852 L 824.30078 316.25 L 815.37891 287.86523 L 823.82227 286.67188 z M 328.67383 286.95312 L 334.96289 288.46484 L 338.39453 299.61719 L 336.875 328.47852 L 322.21484 329.21484 L 328.67383 286.95312 z M 812.07422 288.33203 L 821.48633 318.27344 L 840.70703 332.25391 L 833.00391 370.77148 L 793.5 400.82812 L 763.99023 394.87891 L 765.2793 393.26758 L 765.21289 393.21484 L 765.63867 393.24609 L 771.2832 316.30469 L 771.5293 316.49609 L 791.16602 291.50586 L 790.92578 291.31641 L 812.07422 288.33203 z M 477.1543 288.52148 L 480.54883 289.95117 L 478.875 292.64648 L 476.71094 289.08984 L 477.1543 288.52148 z M 36.564453 288.64648 L 44.791016 291.53125 L 56.880859 338.38867 L 32.033203 290.13086 L 32.041016 289.98438 L 36.564453 288.64648 z M 338.68359 289.36133 L 351.80078 292.51562 L 352.58203 327.68945 L 340.17773 328.31445 L 341.71094 299.20508 L 338.68359 289.36133 z M 462.06055 290.70703 L 464.48438 291.50195 L 463.02734 296.28711 L 461.0918 293.74414 L 462.06055 290.70703 z M 483.61914 291.24609 L 489.19141 293.5957 L 484.91406 295.10547 L 485.01953 294.7832 L 482.03125 293.80273 L 483.61914 291.24609 z M 455.32422 291.59961 L 457.4375 294.375 L 456.97852 295.81445 L 455.32422 291.59961 z M 786.6543 291.91797 L 771.67578 310.98633 L 772.77734 295.96484 L 769.49414 295.72266 L 762.46484 391.51758 L 760.36133 394.14648 L 738.48047 389.73438 L 729.9707 387.52734 L 742.17383 375.32617 L 745.42773 390.78711 L 748.64844 390.10938 L 745.11523 373.31836 L 745.11523 298.51953 L 741.82422 298.51953 L 741.82422 371.85547 L 741.40625 371.43945 L 726.27734 386.56836 L 685.35547 375.94922 L 686.14648 375.7207 L 685.88086 374.79102 L 707.54102 338.69336 L 703.45508 380.46875 L 706.73047 380.78906 L 711.49414 332.10547 L 730.59766 300.26562 L 728.52344 299.02148 L 747.22852 297.48633 L 786.6543 291.91797 z M 467.60938 292.5293 L 468.82031 292.92773 L 466.80273 295.18555 L 467.60938 292.5293 z M 48.527344 292.8418 L 99.751953 310.80273 L 99.457031 310.98047 L 121.70508 347.625 L 123.26172 398.49414 L 118.36914 400.06055 L 72.232422 368.19922 L 62.857422 349.99219 L 61.416016 342.7832 L 48.527344 292.8418 z M 355.11133 293.31055 L 362.18164 295.01367 L 362.45898 295.39062 L 362.77734 295.15625 L 377.45117 298.6875 L 384.30664 326.09766 L 355.87109 327.52539 L 355.11133 293.31055 z M 472.23242 294.04883 L 476.78516 295.54492 L 476.92773 295.7793 L 475.24609 298.49023 L 469.09766 304.26562 L 466.33984 300.64062 L 472.23242 294.04883 z M 433.95508 294.96484 L 445.80859 302.86719 L 442.68359 310.99414 L 431.01758 308.1875 L 433.95508 294.96484 z M 82.835938 295.0957 L 83.125 301.48633 L 77.001953 299.33789 L 82.835938 295.0957 z M 492.76562 295.82227 L 493.56836 299.0293 L 486.84766 297.91211 L 492.76562 295.82227 z M 480.24414 296.68164 L 480.34766 296.7168 L 480.18945 296.77148 L 480.24414 296.68164 z M 479.79102 297.41211 L 479.98438 297.95898 L 479.38867 298.06055 L 479.79102 297.41211 z M 459.86914 297.57227 L 462.07617 300.47266 L 460.58984 302.13477 L 458.91406 300.56445 L 459.86914 297.57227 z M 727.45312 299.10938 L 712.24023 324.46289 L 714.61719 300.16211 L 727.45312 299.10938 z M 381.0625 299.55469 L 427.5 310.72656 L 426.74805 322.77539 L 427.06445 323.94922 L 387.6543 325.92969 L 381.0625 299.55469 z M 711.2832 300.43555 L 708.28711 331.04883 L 684.64258 370.45898 L 677.22266 344.48242 L 683.48633 324.99219 L 707.12109 302.38477 L 705.69531 300.89453 L 711.2832 300.43555 z M 182.22852 300.6582 L 182.22852 321.56836 L 174.41211 320.32617 L 182.22852 300.6582 z M 703.75195 301.05469 L 685.27734 318.72266 L 682.52734 305.88086 L 680.44727 302.96875 L 703.75195 301.05469 z M 482.99023 301.07617 L 489.77148 307.24219 L 487.80469 307.28711 L 482.99023 301.07617 z M 479.10938 301.44141 L 482.6875 306.05664 L 477.5625 303.15234 L 478.13477 301.60352 L 479.10938 301.44141 z M 488.34375 301.49609 L 491.88086 302.08594 L 490.32422 303.29688 L 488.34375 301.49609 z M 454.75781 302.76758 L 453.67188 306.16992 L 451.625 303.8125 L 454.75781 302.76758 z M 464.10742 303.14258 L 466.68359 306.53125 L 465.98438 307.18945 L 462.99219 304.38672 L 464.10742 303.14258 z M 676.62891 303.28125 L 679.45312 307.23633 L 681.96484 318.96875 L 680.60938 323.19141 L 657.5293 345.26562 L 654.25 305.11719 L 676.62891 303.28125 z M 185.51953 303.56836 L 197.80273 324.04297 L 185.51953 322.0918 L 185.51953 303.56836 z M 495.26758 303.62109 L 497.32422 307.06445 L 494.54297 307.12891 L 492.79688 305.54297 L 495.26758 303.62109 z M 457.80664 304.03711 L 458.39648 304.58984 L 457.71484 305.35352 L 458.24609 305.82812 L 458.24609 306.54883 L 456.33008 309.22852 L 456.19727 309.07617 L 457.80664 304.03711 z M 448.44727 305.17188 L 454.36328 311.98438 L 454.33594 312.02344 L 454.08594 311.85938 L 453.0293 313.48438 L 445.91211 311.77344 L 448.44727 305.17188 z M 650.9707 305.38672 L 654.375 347.07617 L 654.70508 347.96875 L 643.26367 358.91211 L 645.53906 361.29102 L 655.94922 351.33203 L 660.59961 363.88086 L 660.59961 367.06445 L 660.07422 369.38867 L 642.52734 364.83398 L 644.55078 362.00391 L 638.70117 351.2832 L 638.4082 351.44336 L 628.58008 307.22656 L 650.9707 305.38672 z M 476.4082 306.28125 L 478.56445 307.50391 L 475.93164 307.56641 L 476.4082 306.28125 z M 472.59961 307.08594 L 472.39648 307.63477 L 471.72852 307.63477 L 472.59961 307.08594 z M 625.24219 307.36523 L 635.46875 353.38477 L 628.45117 361.18164 L 611.30664 356.73438 L 601.7168 307.91602 L 625.24219 307.36523 z M 461.53711 307.53516 L 463.84766 309.70117 L 463.8418 309.74805 L 461.36133 312.9707 L 459.05078 312.35938 L 458.55078 311.78516 L 461.53711 307.60352 L 461.53711 307.53516 z M 598.37891 307.99219 L 607.77344 355.81641 L 597.56836 353.16797 L 567.76562 343.13281 L 569.26562 342.87695 L 563.44727 308.81055 L 589.81641 308.19336 L 590.06445 308.67383 L 586.53516 349.25781 L 589.8125 349.54297 L 593.41406 308.11133 L 598.37891 307.99219 z M 560.12305 308.88867 L 565.86133 342.49219 L 511.35938 324.14062 L 503.04688 310.22266 L 560.12305 308.88867 z M 192.5957 308.96875 L 209.04102 325.82812 L 202.04492 324.7168 L 192.5957 308.96875 z M 493.30273 310.45312 L 493.74609 310.85547 L 492.74023 317.60547 L 490.52734 310.81445 L 490.5332 310.80859 L 490.51758 310.78711 L 490.42969 310.51953 L 493.30273 310.45312 z M 482.51172 310.70508 L 480.89453 319.60742 L 478.07227 316.92188 L 476.98633 310.83398 L 482.51172 310.70508 z M 486.30469 310.72461 L 487.56836 312.35352 L 490.01367 319.85156 L 485.07227 321.19922 L 486.30469 310.72461 z M 470.93359 310.92578 L 471.17969 310.92578 L 471.12109 311.08398 L 470.93359 310.92578 z M 147.04492 311.06641 L 150.06836 316.45898 L 143.17773 315.36328 L 147.04492 311.06641 z M 430.75 311.50977 L 441.49414 314.09375 L 441.32617 314.52734 L 446.51758 322.49023 L 447.66211 321.74414 L 446.875 322.95508 L 430.42578 323.78125 L 430.06641 322.44336 L 430.75 311.50977 z M 466.87109 311.82617 L 469.96484 314.40625 L 468.6875 314.66992 L 468.73633 314.91211 L 466.51367 314.32422 L 466.87109 311.82617 z M 496.88086 312.15039 L 499.18555 317.88086 L 499.16602 317.85938 L 497.12109 319.73047 L 495.77539 319.56055 L 496.88086 312.15039 z M 104.13281 312.33789 L 104.92578 312.61719 L 117.00391 314.53711 L 140.91602 350.25195 L 124.06445 345.17188 L 104.13281 312.33789 z M 500.56055 312.48242 L 506.48633 322.40039 L 504.2207 321.57422 L 500.56055 312.48242 z M 473.99414 312.80859 L 474.07812 313.2832 L 473.86133 313.36914 L 473.80469 313.32227 L 473.99414 312.80859 z M 474.11719 313.49609 L 474.13477 313.5957 L 474.08203 313.55273 L 474.11719 313.49609 z M 456.28906 314.50781 L 456.49805 314.6582 L 456.58398 314.53906 L 457.06641 315.0957 L 457.38867 314.81445 L 457.26367 315.29297 L 459.1875 315.79883 L 455.48828 320.60742 L 451.23828 322.28125 L 456.28906 314.50781 z M 226.65039 314.64844 L 232.1582 329.33008 L 221.625 327.85547 L 221.29492 326.37109 L 226.65039 314.64844 z M 445.61914 315.08594 L 451.12891 316.41211 L 448.81055 319.97852 L 445.61914 315.08594 z M 121.4375 315.24023 L 137.69141 317.82422 L 146.59766 337.41602 L 151.13672 359.60352 L 121.4375 315.24023 z M 462.63867 316.70703 L 462.83789 316.75977 L 462.69531 317.76758 L 461.44336 318.25977 L 462.63867 316.70703 z M 141.58789 318.44336 L 152.12109 320.11523 L 152.57617 320.92578 L 147.69727 331.88281 L 141.58789 318.44336 z M 466.28516 319.89062 L 465.9707 320.40039 L 465.7793 320.08984 L 466.28516 319.89062 z M 156.24609 320.77148 L 169.83398 322.93164 L 169.52539 323.70703 L 182.22852 342.75977 L 182.22852 343.14648 L 182.33984 343.14648 L 189.36523 389.68164 L 189.36523 400.57422 L 164.10547 403.00195 L 157.8125 375.82422 L 149.74805 336.39062 L 149.51758 335.88672 L 156.24609 320.77148 z M 462.66797 321.31641 L 464.03125 323.53125 L 460.70117 328.91211 L 459.11328 322.7168 L 462.66797 321.31641 z M 491.0332 322.98438 L 491.61328 324.76367 L 489.31055 326.86914 L 489.25195 326.81836 L 488.81641 327.32227 L 488.12109 327.95508 L 488.19336 328.03516 L 487.23633 329.13672 L 485.71094 327.61133 L 485.41016 324.51953 L 491.0332 322.98438 z M 252.73633 323.01367 L 252.73633 330.87109 L 252.04297 332.11328 L 244.63867 331.07617 L 252.73633 323.01367 z M 498.21875 323.18359 L 499.42773 323.33398 L 501.71484 324.16602 L 502.29688 325.61328 L 500.96875 325.05469 L 499.68359 328.10547 L 496.09961 325.12109 L 498.21875 323.18359 z M 476.14648 323.33789 L 477.70312 325.02344 L 477.05078 325.7207 L 476.14648 323.33789 z M 173.33594 323.48633 L 182.22852 324.90039 L 182.22852 336.82617 L 173.33594 323.48633 z M 470.76562 324.74609 L 472.01172 330.78125 L 465.34375 331.43164 L 468.41602 325.53125 L 470.76562 324.74609 z M 453.44531 324.94922 L 451.98438 327.33594 L 451.61523 325.67188 L 453.44531 324.94922 z M 185.51953 325.42383 L 200.01172 327.72656 L 200.91211 329.22461 L 195.57227 371.04688 L 207.36523 398.84375 L 203.67383 399.19922 L 193.91211 390.13281 L 192.65625 391.48438 L 192.65625 389.43555 L 185.51953 342.1582 L 185.51953 325.42383 z M 256.02734 325.58203 L 259.19922 332.38281 L 255.55664 332.56445 L 255.91016 331.93359 L 255.22656 331.55078 L 256.02734 331.55078 L 256.02734 325.58203 z M 505.87109 325.67773 L 508.64648 326.6875 L 508.26367 331.62695 L 505.87109 325.67773 z M 456.58789 326.11914 L 457.83984 331.00195 L 454.23828 329.95703 L 456.58789 326.11914 z M 445.38867 326.32617 L 445.21094 327.19922 L 438.64648 327.19922 L 437.11719 326.74023 L 445.38867 326.32617 z M 448.57422 327.17383 L 449.50977 331.37695 L 447.125 335.27539 L 446.95117 335.11523 L 448.57422 327.17383 z M 427.93945 327.20117 L 432.48828 344.0957 L 432.17773 344.31055 L 378.22266 359.24609 L 369.77344 337.41992 L 370.61133 330.08203 L 427.93945 327.20117 z M 493.64844 327.36328 L 497.92383 330.92383 L 492.16406 334.06641 L 489.57031 331.47266 L 491.16992 329.62891 L 493.64844 327.36328 z M 479.94531 327.44531 L 481.17188 328.77148 L 478.74219 331.59375 L 477.42383 331.74609 L 479.09766 331.10938 L 478.35352 329.15039 L 479.94531 327.44531 z M 511.86133 327.7832 L 557.35352 343.09961 L 544.91211 360.20508 L 511.12109 337.41406 L 511.86133 327.7832 z M 503.27734 328.05078 L 505.12305 332.64062 L 502.32617 330.30859 L 503.27734 328.05078 z M 204.36133 328.41602 L 210.44922 329.38477 L 210.41602 329.60938 L 213.09375 329.98438 L 220.38867 337.46484 L 221.02148 340.32031 L 207.40625 335.58398 L 204.36133 328.41602 z M 431.71289 328.55664 L 436.67773 330.04492 L 443.35547 336.26367 L 443.26953 336.68555 L 435.36523 342.11914 L 431.71289 328.55664 z M 678.49414 329.76562 L 674.29688 342.82812 L 658.77539 349.48047 L 658.54297 348.85156 L 678.49414 329.76562 z M 280.41406 330.14062 L 281.22461 331.27539 L 279.72656 331.34961 L 280.41406 330.14062 z M 367.2793 330.24805 L 366.41016 337.85352 L 375.03711 360.12891 L 352.00586 366.50391 C 349.86969 354.01997 346.45172 341.25274 348.57812 331.18945 L 352.6582 330.98438 L 352.68945 332.47656 L 355.98047 332.4043 L 355.94531 330.81836 L 367.2793 330.24805 z M 441.98633 330.49023 L 444.53516 330.49023 L 444.12891 332.48633 L 441.98633 330.49023 z M 218.41602 330.73047 L 218.9082 330.79883 L 219.0332 331.36328 L 218.41602 330.73047 z M 222.38672 331.28516 L 233.09961 332.78516 L 233.09961 349.21094 L 226.89648 343.48438 L 227.24414 342.48438 L 224.95117 341.6875 L 224.63281 341.39258 L 222.38672 331.28516 z M 345.17773 331.36133 C 343.10763 342.53749 346.74946 355.36569 348.81055 367.38867 L 342.45312 369.14844 L 334.67578 345.03516 L 339.89453 333.72852 L 340.00586 331.61914 L 345.17773 331.36133 z M 336.70117 331.78711 L 336.64062 332.92383 L 332.81055 341.22656 L 328.58008 332.19336 L 336.70117 331.78711 z M 475.85156 331.83008 L 476.02148 332.27734 L 476.27734 332.18164 L 476.50586 334.19141 L 475.55859 335.29297 L 475.57031 333.97656 L 476.01172 333.88477 L 475.63672 332.0625 L 475.85156 331.83008 z M 482.81836 331.9043 L 483.02148 333.99219 L 480.17188 337.27148 L 479.94141 335.24805 L 482.81836 331.9043 z M 325.0293 332.37109 L 331.39258 345.96094 L 331.5 345.9082 L 339.28125 370.02734 L 319.5957 375.47656 L 313.11719 364.94922 L 312.32422 351.45508 L 320.33789 343.80469 L 319.47852 332.65039 L 325.0293 332.37109 z M 316.19141 332.81641 L 316.9375 342.50195 L 311.20508 347.97266 L 307.75391 341.76367 L 307.04688 333.27344 L 316.19141 332.81641 z M 452.45508 332.86914 L 457.37109 334.29688 L 456.58984 335.55664 L 456.94922 335.7793 L 455.45312 338.77148 L 452.45312 338.85938 L 449.80273 337.20312 L 452.45508 332.86914 z M 500.64453 333.19141 L 506.75781 338.28516 L 496.96094 338.86133 L 494.58984 336.49219 L 500.64453 333.19141 z M 236.39062 333.24609 L 237.10352 333.34766 L 241.99805 351.30273 L 240.92188 360.27539 L 236.39062 351.66602 L 236.39062 333.24609 z M 303.75781 333.43945 L 304.13867 338 L 299.24609 333.66602 L 303.75781 333.43945 z M 240.65039 333.84375 L 250.32031 335.19531 L 244.07031 346.39062 L 240.65039 333.84375 z M 294.54688 333.90234 L 304.54297 342.75586 L 308.98633 350.75586 L 309.88086 365.96875 L 316.29688 376.39062 L 293.94531 382.57812 L 294.1543 382.44727 L 287.08008 370.94922 L 274.93164 342.3125 L 278.73828 334.69727 L 294.54688 333.90234 z M 487.4082 333.96094 L 489.1543 335.70703 L 488.49414 336.06836 L 486.72852 338.12891 L 486.43359 335.08203 L 487.4082 333.96094 z M 472.27734 334.06055 L 472.24219 338.28711 L 461.61523 338.59375 L 463.5293 334.91602 L 472.27734 334.06055 z M 203.51172 334.83789 L 204.94531 338.21289 L 223.22266 344.57031 L 233.62305 354.17188 L 233.85742 353.91797 L 240.23047 366.03125 L 236.83398 394.32031 L 211.26758 398.64062 L 211.53906 400.25586 L 198.95117 370.58203 L 203.51172 334.83789 z M 274.96289 334.88672 L 273.75 337.31445 L 273.19922 334.97461 L 274.96289 334.88672 z M 269.85938 335.14258 L 271.45117 341.91406 L 271.30859 342.19727 L 284.14844 372.46289 L 290.89062 383.42188 L 283.30469 385.52148 L 268.39844 344.31055 L 264.25195 335.42578 L 269.85938 335.14258 z M 260.70312 335.60352 L 265.35352 345.56836 L 280.125 386.40234 L 274.55078 387.94531 L 251.88086 391.77734 L 245.20703 368.41602 L 243.62109 365.40039 L 245.3418 351.05664 L 245.30664 350.92969 L 253.81445 335.6875 L 255.19531 335.87891 L 260.70312 335.60352 z M 491.58008 338.13281 L 492.56641 339.12109 L 490.08789 339.26758 L 490.59961 338.66992 L 491.58008 338.13281 z M 483.45898 338.50586 L 483.5293 339.24219 L 482.87695 339.17773 L 483.45898 338.50586 z M 448.35938 340.18359 L 451.55273 342.17969 L 453.78125 342.11523 L 451.89062 345.89258 L 448.14648 341.25586 L 448.35938 340.18359 z M 509.52344 340.30859 L 542.57422 362.59766 L 522.69336 369.96094 L 503.75 346.50977 L 509.52344 340.30859 z M 443.38477 340.59766 L 444.61719 342.12305 L 441.88672 355.77344 L 436.32812 345.45117 L 443.38477 340.59766 z M 472.2168 341.58008 L 472.12695 352.76367 L 458.39062 352.76367 L 460.52148 341.91992 L 472.2168 341.58008 z M 475.50586 341.75391 L 482.625 349.11328 L 475.42188 352.07812 L 475.50586 341.75391 z M 503.66992 341.76562 L 501.66016 343.92383 L 500.14844 342.05078 L 500.07422 341.97656 L 503.66992 341.76562 z M 495.67969 342.23438 L 497.69922 344.25195 L 498.96484 345.82227 L 487.66406 347.81641 L 487.17383 342.73633 L 495.67969 342.23438 z M 480.74219 342.27148 L 483.85352 342.58203 L 484.18164 345.98828 L 480.76367 342.45508 L 480.74219 342.27148 z M 557.50391 343.15234 L 596.62891 356.32422 L 597.3418 356.50781 L 596.3418 356.46875 L 595.44727 377.88867 L 595.6875 377.89844 L 590.00586 382.86914 L 547.9375 362.24414 L 547.64453 362.04492 L 560.04297 344.99805 L 557.50391 343.15234 z M 456.91406 343.20703 L 455.47852 350.50781 L 454.13281 348.76758 L 456.91406 343.20703 z M 447.30664 345.45312 L 449.75781 348.48633 L 449.80078 348.54297 L 446.14844 351.24609 L 447.30664 345.45312 z M 674.34375 346.38867 L 682.32617 374.32227 L 682.25781 374.43555 L 682.37891 374.50977 L 682.58398 375.22852 L 665.1875 370.71484 L 666.46289 370.24219 L 663.89062 363.29492 L 663.89062 361.89453 L 663.37109 361.89453 L 659.91992 352.56836 L 674.34375 346.38867 z M 433.59961 347.32812 L 440.87305 360.83398 L 440.14844 364.46875 L 387.41992 412.01758 L 367.17188 373.64258 L 372.16797 364.33789 L 433.58594 347.33594 L 433.59961 347.32812 z M 501.32812 348.74609 L 519.25781 370.94336 L 493.33594 370.94336 L 488.04883 351.77539 L 487.98438 351.10352 L 501.32812 348.74609 z M 125.03516 348.90234 L 143.79883 354.55859 L 152.83984 368.0625 L 152.86328 368.04492 L 154.59766 376.52539 L 160.80273 403.32031 L 131.95898 406.09375 L 126.58984 399.65039 L 125.03516 348.90234 z M 451.8125 351.14648 L 454.63477 354.79688 L 452.57422 365.26172 L 451.80078 365.08008 L 451.43359 366.6543 L 449.21484 365.69727 L 448.43359 367.50195 L 448.1875 367.47656 L 444.33398 360.32227 L 445.1875 356.05469 L 451.8125 351.14648 z M 484.74414 351.79883 L 484.80078 352.37695 L 489.88867 370.82227 L 475.27539 370.1875 L 475.39453 355.65039 L 484.74414 351.79883 z M 637.5332 356.01172 L 640.67578 361.77148 L 639.11914 363.94922 L 632.04102 362.11328 L 637.5332 356.01172 z M 457.74023 356.05469 L 472.09766 356.05469 L 471.98438 370.02734 L 455.34375 368.24414 L 457.74023 356.05469 z M 599.60742 357.09766 L 605.00977 358.5 L 599.33203 363.70312 L 599.60742 357.09766 z M 608.80469 359.48438 L 628.12109 364.49609 L 631.78711 374.02734 L 621.3457 398.23438 L 603.27148 389.37305 L 598.53906 378.01562 L 598.73633 378.02539 L 599.20898 366.70898 L 599.99219 367.5625 L 608.80469 359.48438 z M 65.207031 361.74805 L 90.113281 410.11719 L 70.431641 412.00977 L 65.085938 412.08594 L 73.173828 401.57227 L 65.207031 361.74805 z M 545.70508 364.70898 L 546.28516 365.10156 L 588.06445 385.58398 L 584.03516 397.67188 L 570.32422 414.36133 L 555.02539 409.99023 L 524.87305 372.66211 L 545.46875 365.03516 L 545.70508 364.70898 z M 632.04102 365.51367 L 637.06836 366.81836 L 634.12695 370.93945 L 632.04102 365.51367 z M 367.7793 365.55273 L 364.74609 371.20312 L 359.00781 367.98242 L 367.7793 365.55273 z M 443.56055 365.82227 L 446.11328 370.56445 L 447.06641 370.66797 L 440.0918 386.80078 L 440.76172 378.18164 L 443.16211 366.18359 L 443.56055 365.82227 z M 640.48047 367.70508 L 641.85938 368.0625 L 636.7168 405.76953 L 624.30469 399.68555 L 634.47461 376.11328 L 640.48047 367.70508 z M 645.06641 368.89453 L 659.3457 372.59961 L 650.32812 412.44141 L 639.83008 407.29883 L 645.06641 368.89453 z M 354.50586 369.22656 L 363.9043 374.50391 L 384.90039 414.29102 L 373.52148 424.55078 L 369.42188 425.23438 L 354.91992 402.20117 L 343.47852 372.28125 L 354.50586 369.22656 z M 439.06641 369.87695 L 437.49414 377.73047 L 436.06641 396.11719 L 414.63867 445.68164 L 379.67188 423.52539 L 379.55078 423.54492 L 439.06641 369.87695 z M 450.29883 371.48242 L 437.02148 428.08789 L 436.86914 428.21289 L 439.30469 396.91211 L 450.29883 371.48242 z M 454.70508 371.48633 L 471.95898 373.33203 L 471.59766 418.31445 L 443.35938 424.78711 L 450.55664 392.57422 L 454.70508 371.48633 z M 242.82227 372.05273 L 248.61523 392.33008 L 240.21875 393.74805 L 242.82227 372.05273 z M 340.29492 373.16016 L 349.27148 396.64844 L 322.82617 377.99609 L 340.29492 373.16016 z M 662.5332 373.42773 L 680.39648 378.0625 L 659.98828 417.17969 L 653.36328 413.93164 L 662.5332 373.42773 z M 475.25 373.48047 L 490.80859 374.1543 L 499.0918 404.17969 L 498.33398 404.54297 L 499.88086 407.79297 L 502.43555 419.52539 L 474.89062 418.10156 L 475.25 373.48047 z M 521.61914 373.86719 L 550.61523 409.76562 L 512.14062 420.02734 L 509.28125 419.87891 L 503.01562 406.71875 L 502.30273 403.44727 L 494.24414 374.23438 L 520.62891 374.23438 L 521.61914 373.86719 z M 75.427734 374.4082 L 115.81641 402.29883 L 118.25 407.41016 L 94.867188 409.6582 L 93.160156 408.8418 L 75.427734 374.4082 z M 833.01367 377.13477 L 833.71875 400.4082 L 825.47656 407.27539 L 815.27539 405.21875 L 833.01367 377.13477 z M 828.23438 378.53711 L 811.82422 404.52344 L 797.79883 401.69531 L 828.23438 378.53711 z M 684.08203 379.01953 L 690.9082 380.79102 L 689.31055 420.79492 L 689.16797 420.79492 L 689.16797 423.75977 L 684.50391 429.19727 L 675.14648 424.60938 L 675.4668 424.66992 L 684.08203 379.01953 z M 318.72461 379.13281 L 351.33984 402.13086 L 351.35938 402.10352 L 351.96094 403.67773 L 366.51172 426.78906 L 363.33398 433.74023 L 344.07227 451.10742 L 280.20117 389.79688 L 318.72461 379.13281 z M 596.46289 381.58984 L 598.79102 387.17578 L 593.20898 384.43945 L 596.46289 381.58984 z M 694.16992 381.63672 L 699.88281 383.11914 L 693.91016 388.0957 L 694.16992 381.63672 z M 703.80273 384.13867 L 737.74023 392.94336 L 745.60742 394.5293 L 747.14258 409.85938 L 730.86719 451.83398 L 730.79297 451.89062 L 691.0293 432.39648 L 692.45898 432.39648 L 692.45898 424.41211 L 693.73242 392.5293 L 703.80273 384.13867 z M 591.04492 387.04492 L 597.9082 390.41016 L 586.94141 399.31641 L 586.96289 399.29102 L 591.04492 387.04492 z M 679.09961 387.66406 L 672.38672 423.25586 L 662.94531 418.62695 L 679.09961 387.66406 z M 276.51367 390.81836 L 341.88672 453.57422 L 322.03516 478.39062 L 313.98828 482.41406 L 253.58008 477.18164 L 221.13867 429.10156 L 220.88477 427.47852 L 221.58008 426.73242 L 220.63086 425.8457 L 216.75586 401.05078 L 275.26758 391.16406 L 276.51367 390.81836 z M 601.16016 392.00391 L 620.04102 401.25977 L 613.56641 416.26953 L 583.23438 444.91602 L 569.55859 427.98242 L 570.91797 427.18359 L 572.86914 416.44727 L 586.36133 400.02344 L 588.32227 402.43555 L 601.16016 392.00391 z M 192.65625 393.45898 L 199.29102 399.61914 L 192.65625 400.25586 L 192.65625 393.45898 z M 748.98438 395.21094 L 758.04688 397.03906 L 750.1543 406.89844 L 748.98438 395.21094 z M 761.67578 397.76953 L 788.4375 403.16406 L 785.47852 412.8457 L 784.42383 411.44531 L 735.85547 448.07227 L 750.37695 410.62109 L 750.99414 411.11523 L 761.67578 397.76953 z M 213.50977 401.59961 L 216.72852 422.20508 L 196.37109 403.20508 L 202.51562 402.61328 L 204.16797 404.14844 L 205.89258 402.29102 L 211.78711 401.72266 L 211.81445 401.88672 L 213.50977 401.59961 z M 124.02148 401.70703 L 127.99414 406.47461 L 121.73633 407.07617 L 119.82031 403.05078 L 124.02148 401.70703 z M 837.05664 401.88672 L 844.26367 411.0625 L 829.61719 408.10938 L 837.05664 401.91016 L 837.05664 401.88672 z M 623 402.71094 L 633.05273 407.64062 L 618.40039 413.37109 L 623 402.71094 z M 193.15039 403.51562 L 192.65625 404.04492 L 192.65625 403.5625 L 193.15039 403.51562 z M 791.67969 403.81836 L 812.78125 408.07227 L 816.75977 413.75586 L 799.47461 441.12109 L 798.48047 440.20703 L 778.92188 461.46484 L 778.29102 460.45508 L 773.45117 463.48047 L 791.67969 403.81836 z M 185.98633 404.20312 L 177.86133 407.68555 L 178.50391 409.18555 L 177.0918 408.36328 L 174.94336 412.04688 L 166.92969 406.03516 L 185.98633 404.20312 z M 192.65625 404.23828 L 217.55273 427.47656 L 217.99805 430.33398 L 248.78516 475.96094 L 248.28711 475.88672 L 248.16602 476.71484 L 216.66992 473.98633 L 195.86914 451.00781 L 174.2168 419.82617 L 176.91992 415.19141 L 177.7168 414.12891 L 177.59375 414.03711 L 179.6582 410.49609 L 191.65234 405.35547 L 191.38477 404.73047 L 192.65625 404.73047 L 192.65625 404.23828 z M 435.2793 406.22656 L 433.3457 431.09375 L 419.71094 442.23828 L 435.2793 406.22656 z M 162.06641 406.50391 L 173.27344 414.9082 L 171.67383 417.6543 L 153.73242 407.30664 L 162.06641 406.50391 z M 148.30469 407.82617 L 148.24414 407.93555 L 171.11719 421.13281 L 191.28516 450.17188 L 152.7793 431.07812 L 134.50977 409.15234 L 148.30469 407.82617 z M 817.46094 409.01758 L 822.23242 409.98047 L 819.64453 412.13477 L 817.46094 409.01758 z M 130.54297 409.53516 L 150.69727 433.71875 L 196.20898 456.28711 L 211.85352 473.56836 L 147.4707 467.99414 L 113.58594 418.61133 L 100.625 412.41211 L 130.54297 409.53516 z M 637.06055 409.60352 L 644.37695 413.18945 C 635.64949 426.44689 622.28967 437.65178 609.5 449.31836 L 588.76172 444.22461 L 616.32031 418.19531 L 617.57031 415.29297 L 618.22852 416.97461 L 637.06055 409.60352 z M 826.37305 410.81445 L 843.07812 414.18164 L 819.48047 444.07422 L 817.86719 443.24609 L 817.34961 444.25781 L 800.97266 444.91406 L 818.80469 416.67773 L 819 416.95703 L 826.37305 410.81445 z M 552.46094 412.67969 L 553.12109 412.86914 L 564.59961 427.08008 L 553.63281 433.53125 L 532.75 438.75 L 517.21094 436.5332 L 510.89062 423.25586 L 512.48828 423.33984 L 552.46094 412.67969 z M 94.271484 413.02344 L 111.37109 421.20117 L 143.22461 467.62695 L 110.39648 464.78516 L 76.779297 414.70508 L 94.271484 413.02344 z M 558.61914 414.43945 L 568.04883 417.13477 L 564.39062 421.58594 L 558.61914 414.43945 z M 647.35547 414.65039 L 657.59375 419.66992 L 644.21289 457.84375 L 613.34766 450.26367 C 625.70233 439.09598 638.64238 428.05246 647.35547 414.65039 z M 846.69531 414.91211 L 848.48633 415.27344 L 873.99609 419.3457 L 841.25586 485.70312 L 823.15234 497.22461 L 822.81836 497.00781 L 815.80273 493.56836 L 815.81445 493.23242 L 815.07031 493.20898 L 789.74219 480.79297 L 789.74219 480.59375 L 789.33789 480.59375 L 777.45898 474.76953 L 780.62695 464.4707 L 795.38867 448.42969 L 815.63281 447.61914 L 797.33789 483.41016 L 800.26953 484.9082 L 819.4043 447.4707 L 821.04297 447.4043 L 846.69531 414.91211 z M 73.058594 415.0625 L 106.1875 464.41992 L 11.476562 456.2207 L 11.476562 416.14258 L 70.613281 415.29883 L 73.058594 415.0625 z M 784.71289 415.35156 L 769.5625 464.94141 L 770.60352 465.25977 L 765.0918 468.70508 L 762.08008 467.23047 L 762.05273 467.00391 L 761.70898 467.04688 L 734.10742 453.51562 L 784.71289 415.35156 z M 660.56836 421.12891 L 674.7793 428.0957 L 671.13672 441.45312 L 670.97266 441.47461 L 671.02148 441.87305 L 669.74414 446.55664 L 651.07617 459.53125 L 647.42188 458.63281 L 660.56836 421.12891 z M 474.86328 421.39453 L 490.92969 422.22461 L 474.80078 429.17969 L 474.86328 421.39453 z M 568.57227 421.67773 L 567.94922 425.10938 L 567.46484 425.39453 L 566.50195 424.19922 L 568.57227 421.67773 z M 471.57227 421.69727 L 471.39062 443.92383 L 470.20898 458.38867 L 436.07812 457.38477 L 442.56445 428.34375 L 471.57227 421.69727 z M 497.94141 422.58789 L 503.16016 422.85742 L 506.01562 435.97266 L 484.3418 447.58203 L 474.5918 445.14258 L 474.67969 444.07031 L 474.77344 432.77734 L 498.01367 422.75586 L 497.94141 422.58789 z M 506.56641 423.0332 L 507.15234 423.0625 L 513.30078 435.97461 L 509.25977 435.39844 L 506.56641 423.0332 z M 378.97266 426.98047 L 413.31836 448.73828 L 403.72852 470.91797 L 362.50195 438.91992 L 365.7832 435.96094 L 365.91016 436.01953 L 366.04297 435.72852 L 375.01172 427.64062 L 378.97266 426.98047 z M 689.16797 428.81445 L 689.16797 431.48438 L 687.55664 430.69336 L 689.16797 428.81445 z M 677.78711 429.57031 L 682.61328 431.93555 L 681.47852 434.77734 L 677.12891 431.98047 L 677.78711 429.57031 z M 566.69141 429.66797 L 578.64258 444.4668 L 545.53125 438.94922 L 554.89062 436.61133 L 566.69141 429.66797 z M 685.57617 433.38867 L 695.75195 438.37695 L 687.92578 439.35547 L 688.125 439.04688 L 684.29883 436.58789 L 685.57617 433.38867 z M 676.22266 435.30859 L 680.23633 437.88867 L 679.46484 439.82031 L 680.59375 440.27344 L 674.66797 441.01367 L 676.22266 435.30859 z M 432.99023 435.62891 L 432.01172 448.22656 L 429.67188 457.19727 L 413.45117 456.71875 L 416.87305 448.80859 L 432.99023 435.62891 z M 510.00781 438.83008 L 515 439.54297 L 518.38867 446.6582 L 511.50586 445.70898 L 510.00781 438.83008 z M 506.74414 439.31445 L 508.0332 445.22852 L 498.22656 443.87695 L 506.74414 439.31445 z M 683.05664 439.70117 L 683.39844 439.92188 L 682.94531 439.97852 L 683.05664 439.70117 z M 518.91016 440.10156 L 532.92188 442.09766 L 535.01562 441.57617 L 529.43359 447.71484 L 522.53711 447.71484 L 518.91016 440.10156 z M 699.83984 440.38281 L 704.84961 442.83789 L 681.64453 467.03906 L 655.33398 460.57617 L 672.60352 448.57617 L 673.73242 444.44727 L 699.9375 441.16992 L 699.83984 440.38281 z M 360.01953 441.16016 L 402.37891 474.03906 L 395.20508 490.63281 L 379.58398 491.9082 L 379.51172 491.8457 L 379.44727 491.91992 L 352.41992 494.125 L 352.42578 494.20898 L 351.7207 493.50391 L 342.7832 489.37695 L 342.99609 489.09961 L 327.29102 477.08984 L 345.71484 454.05859 L 360.01953 441.16016 z M 539.70117 441.31445 L 581.65625 448.30469 L 581.67188 448.21484 L 589.91016 458.41406 L 588.97656 466.30859 L 579.60938 470.99023 L 553.05078 475.96875 L 551.44336 473.95508 L 549.36523 475.61719 L 533.83398 471.4375 L 530.02539 463.43945 L 530.02539 451.00586 L 530.89062 451.00586 L 539.70117 441.31445 z M 707.95117 444.35938 L 722.48438 451.48242 L 699.71094 452.95312 L 707.95117 444.35938 z M 493.3457 446.49023 L 493.3418 446.52734 L 508.7793 448.6543 L 511.33203 460.38477 L 491.07031 465.06055 L 486.58594 450.11133 L 493.3457 446.49023 z M 585.91211 446.91406 L 606.60547 451.99805 C 605.88138 452.66981 605.14435 453.33318 604.42773 454.00977 L 591.46094 455.09961 L 585.30859 447.48242 L 585.91211 446.91406 z M 474.32031 448.4668 L 481.09375 450.16016 L 473.33789 460.50195 L 474.32031 448.4668 z M 512.25195 449.13477 L 517.83203 449.9043 L 518.41211 461.51758 L 514.77148 460.70703 L 512.25195 449.13477 z M 524.10547 451.00586 L 526.73438 451.00586 L 526.73438 456.52734 L 524.10547 451.00586 z M 483.74805 452.10742 L 487.92773 466.04492 L 471.77344 479.65039 L 472.83398 466.66016 L 483.74805 452.10742 z M 521.26758 452.70508 L 526.29688 463.26758 L 521.74609 462.25586 L 521.26758 452.70508 z M 610.42578 452.93359 L 643.11719 460.96484 L 641.21875 466.37891 L 618.57227 482.11914 L 618.22266 481.77734 L 618.19922 481.65625 L 618.11328 481.67188 L 601.81641 465.8125 L 607.43359 456.44922 L 606.94531 456.15625 C 608.09157 455.07697 609.25709 454.00457 610.42578 452.93359 z M 725.62695 453.02344 L 759.03711 469.4043 L 761.18359 486.57227 L 685.33594 467.94531 L 697.95898 454.7832 L 698.05859 456.35742 L 725.72656 454.57227 L 725.62695 453.02344 z M 603.00781 457.43164 L 599.60352 463.10547 L 599.1543 463.2207 L 593.98438 458.19141 L 603.00781 457.43164 z M 12.736328 459.63086 L 108.54102 467.92773 L 116.20703 479.34766 L 120.37305 551.83398 L 12.736328 459.63086 z M 412.04492 459.9707 L 428.82031 460.46289 L 421.27734 489.375 L 419.88672 489.58398 L 403.95703 478.68359 L 412.04492 459.9707 z M 435.34766 460.65625 L 469.94141 461.67383 L 469.63281 465.44141 L 469.04688 466.22266 L 469.53906 466.58984 L 467.55273 490.90625 L 456.18945 493.17969 L 437.48828 486.94336 L 429.40039 488.15625 L 431.8125 476.47656 L 435.34766 460.65625 z M 592.83984 461.66797 L 595.42578 464.18555 L 592.45117 464.95508 L 592.83984 461.66797 z M 646.33008 461.75195 L 647.47266 462.0332 L 645.83008 463.17578 L 646.33008 461.75195 z M 651.73242 463.07812 L 679.01562 469.78125 L 644.11523 506.17578 L 643.27344 505.27734 L 642.8125 505.71094 L 633.94531 497.08008 L 643.97461 468.47266 L 651.73242 463.07812 z M 512.0332 463.60156 L 515.18555 478.07031 L 500.22461 484.37109 L 497.36523 484.94336 L 492.04492 468.21289 L 512.0332 463.60156 z M 515.54297 464.25195 L 518.58398 464.92578 L 518.68945 467.0625 L 517.38477 472.7168 L 515.54297 464.25195 z M 776.97266 465.16211 L 774.4668 473.30273 L 768.56836 470.41016 L 776.97266 465.16211 z M 521.91797 465.66797 L 528.09375 467.04102 L 528.59766 468.09961 L 521.95703 467.54492 L 522 467.35547 L 521.91797 465.66797 z M 430.80859 465.87891 L 428.59375 475.78516 L 425.93164 488.67773 L 424.81641 488.84375 L 430.80859 465.87891 z M 598.18555 466.87109 L 604.69141 473.20117 L 586.14062 471.40625 L 591.58789 468.68164 L 591.54297 468.5918 L 598.18555 466.87109 z M 112.74805 468.29297 L 145.63281 471.13867 L 194.70508 542.65625 L 193.88086 560.78906 L 159.47656 585.33203 L 123.83789 554.80273 L 119.44141 478.26172 L 112.74805 468.29297 z M 488.98438 469.45703 L 494.11914 485.5918 L 470.9082 490.23438 L 471.66992 480.91016 L 473.21094 482.74023 L 488.98438 469.45703 z M 682.70508 470.6875 L 761.62109 490.07031 L 763.03711 501.39062 L 760.49023 502.35742 L 722.28125 533.25 L 721.63281 530.76758 L 681.68359 541.18945 L 678.49609 540.4375 L 674.21094 536.26758 L 674.46484 535.69141 L 672.92969 535.01758 L 646.07617 508.88672 L 682.70508 470.6875 z M 521.21094 470.78516 L 528.45117 471.38867 L 527.94727 473.26172 L 531.51172 474.2207 L 536.4375 484.56055 L 521.06836 486.09766 L 521.39648 489.37305 L 537.93945 487.71875 L 542.88477 498.10352 L 545.94531 510.63086 L 525.36523 503.14844 L 524.51758 505.47266 L 518.98242 480.04492 L 519.08203 480.00195 L 521.21094 470.78516 z M 762.57031 471.13477 L 771.74609 475.63477 L 765.46484 487.625 L 764.60547 487.41211 L 762.57031 471.13477 z M 149.87891 471.50586 L 215.09766 477.1543 L 228.08984 491.50781 L 238.02539 512.14062 L 237.61914 512.25 L 241.25 525.87109 L 209.66992 548.87891 L 209.97852 549.30469 L 197.2832 558.35938 L 198.04297 541.70508 L 149.87891 471.50586 z M 639.36328 471.67578 L 631.3457 494.55078 L 620.97266 484.45703 L 639.36328 471.67578 z M 580.89062 474.0293 L 580.87305 474.20117 L 608.46484 476.87305 L 614.19141 482.44727 L 545.90625 495.93555 L 546.54492 499.16602 L 617.05859 485.23633 L 630.14648 497.97461 L 628.0332 504.00391 L 627.36914 503.91992 L 564.19141 517.26562 L 549.66211 511.98242 L 546.00195 496.99219 L 541.01172 486.51367 L 550.11719 479.23047 L 551.51562 479.60742 L 580.66992 474.13867 L 580.89062 474.0293 z M 535.69727 475.34766 L 546.17578 478.16992 L 539.55859 483.46289 L 535.69727 475.34766 z M 774.70117 477.08398 L 786.45117 482.8418 L 786.45117 492.50977 L 786.02148 492.67383 L 768.75586 488.43359 L 774.70117 477.08398 z M 219.91406 477.57031 L 247.68164 479.97461 L 245.04688 497.75391 L 230.29102 489.0332 L 219.91406 477.57031 z M 325.23438 479.6582 L 336.23828 488.07227 L 332.94531 488.30469 L 332.99023 488.14453 L 318.20703 483.98242 L 324.1543 481.01172 L 325.23438 479.6582 z M 250.96484 480.25781 L 251.72852 480.32422 L 265.5957 500.87891 L 248.2207 498.79492 L 250.96484 480.25781 z M 255.94531 480.68945 L 308.35742 485.23047 L 272.25391 503.28125 L 255.06055 515.80859 L 250.87695 502.42773 L 268.0293 504.48633 L 268.18359 504.71484 L 268.44922 504.53516 L 268.46289 504.53711 L 268.46484 504.52539 L 270.91406 502.875 L 255.94531 480.68945 z M 515.89648 481.34375 L 520.72852 503.5293 L 506.44727 505.7832 L 505.06055 505.02734 L 504.47852 506.09375 L 502.88477 506.3457 L 504.05664 505.97266 L 498.36914 488.09766 L 501.19531 487.5332 L 515.89648 481.34375 z M 402.625 481.75977 L 403.61133 482.43555 L 402.4707 482.11719 L 402.625 481.75977 z M 404.875 483.29883 L 413.45703 489.17188 L 403 490.00781 L 404.875 483.29883 z M 789.74219 484.45898 L 791.56641 485.35156 L 789.74219 488.08594 L 789.74219 484.45898 z M 315.93945 485.11914 L 315.50977 486.64258 L 323.70312 488.94922 L 305.77344 490.20117 L 314.63281 485.77148 L 314.92578 485.79688 L 314.94141 485.61719 L 315.93945 485.11914 z M 400.53711 486.59375 L 399.50391 490.28906 L 398.91992 490.33594 L 400.53711 486.59375 z M 794.54688 486.8125 L 807.08398 492.96094 L 790.78711 492.45117 L 794.54688 486.8125 z M 495.12305 488.74805 L 500.82422 506.67188 L 489.24805 508.49805 L 486.79102 510.75 L 469.27344 510.23242 L 470.62891 493.64648 L 495.12305 488.74805 z M 437.19531 490.31641 L 452.92969 495.56055 L 465.81836 512.10742 L 464.58789 527.15625 L 423.1543 518.4043 L 428.69141 491.5918 L 437.19531 490.31641 z M 338.85742 491.19141 L 349.81055 496.24414 L 366.38086 512.81836 L 376.65039 532.50195 L 375.17773 536.92383 L 374.62305 537.65234 L 374.19922 537.46094 L 373.37891 539.29102 L 368.60352 545.57422 L 354.04297 543.27734 L 286.16406 500.00586 L 300.81836 492.67773 L 300.90039 493.83789 L 338.85742 491.19141 z M 767.18164 491.4375 L 780.5957 494.73242 L 766.20117 500.19141 L 765.50781 494.63281 L 767.18164 491.4375 z M 425.22266 492.11133 L 419.93359 517.72461 L 418 517.31641 L 421.98047 499.7207 L 423.91211 492.30859 L 425.22266 492.11133 z M 417.77539 492.12891 L 419.0957 493.03125 L 420.37305 492.83984 L 418.78125 498.94336 L 414.7793 516.63477 L 405.96484 514.77148 L 398.00391 507.875 L 402.05664 493.38672 L 417.77539 492.12891 z M 398.55859 493.66602 L 395.25391 505.49023 L 393.15234 503.67188 L 397.44141 493.75586 L 398.55859 493.66602 z M 393.72656 494.05664 L 390.54688 501.41016 L 383.06641 494.92773 L 393.72656 494.05664 z M 467.27344 494.31641 L 466.21484 507.26172 L 457.63281 496.24414 L 467.27344 494.31641 z M 233.22656 494.58984 L 244.52734 501.26953 L 244.46875 501.66016 L 245.37109 501.76562 L 247.64258 503.10938 L 251.13867 514.29688 L 242.09375 513.00391 L 233.22656 494.58984 z M 378.47461 495.30273 L 389.17773 504.58008 L 378.58398 529.08789 L 369.06641 510.84766 L 355.40234 497.18555 L 378.47461 495.30273 z M 787.89258 495.65234 L 788.39648 495.66602 L 788.56836 495.78125 L 788.63867 495.67578 L 814.25586 496.47656 L 821.19336 499.87695 L 836.57617 509.82422 L 833.12891 522.23242 L 755.07812 555.44336 L 748.10938 554.73438 L 746.63867 556.51172 L 710.72461 548.03906 L 720.45312 538.96094 L 762.15234 505.24609 L 786.22656 496.11328 L 787.69141 496.47461 L 787.89258 495.65234 z M 632.74414 500.50195 L 637.56641 505.19531 L 631.37109 504.42188 L 632.74414 500.50195 z M 282.73438 501.7207 L 348.59766 543.70898 L 354.39258 564.27148 L 347.36719 573.51562 L 333.04102 575.30469 L 297.96875 565.66016 L 246.57812 526.0625 L 273.97266 506.10156 L 282.73438 501.7207 z M 524.72461 506.41602 L 546.88086 514.47461 L 552.76172 538.56641 L 526.30078 513.66016 L 524.72461 506.41602 z M 391.7832 506.83789 L 394.27344 508.99609 L 387.81445 532.10156 L 387.66016 532.17578 L 387.74219 532.34961 L 383.54297 547.37695 L 373.87891 546.2168 L 376.23047 540.97461 L 376.48828 540.63672 L 377.31641 540.91211 L 378.20117 538.25781 L 391.7832 506.83789 z M 516.86133 507.4707 L 513.77734 509.78125 L 511.18555 508.36719 L 516.86133 507.4707 z M 626.41016 507.48438 L 617.86133 524.31055 L 563.24805 552.36914 L 556.55273 542.21094 L 557.01367 542.09766 L 554.58594 532.15625 L 564.2168 520.625 L 626.41016 507.48438 z M 630.05664 507.57227 L 639.56055 508.75977 L 629.16211 518.50781 L 622.85547 521.74609 L 630.05664 507.57227 z M 521.69141 507.95898 L 522.64258 512.33008 L 516.63086 514.51758 L 516.63086 511.75586 L 521.69141 507.95898 z M 505.85156 509.21094 L 513.30078 513.27344 L 513.33984 513.20117 L 513.33984 516.45508 L 479.88086 547.03125 L 467.25195 534.96875 L 467.56445 531.14844 L 469.0625 531.46484 L 490.74219 511.5957 L 505.85156 509.21094 z M 642.76953 510.25977 L 662.06641 529.04102 L 636.46094 550.51758 L 604.13867 560.12695 L 603.42578 560.00195 L 620.3125 526.75391 L 631.07617 521.22461 L 642.76953 510.25977 z M 397.02539 511.38086 L 404.45117 517.81641 L 414.05273 519.8457 L 406.82227 551.79883 L 401.05078 550.71289 L 400.94336 549.46289 L 399.49414 549.29102 L 391.24609 532.04492 L 397.02539 511.38086 z M 839.4707 511.69531 L 863.6875 527.35547 L 864.14648 529.18945 L 865.85938 528.76172 L 891.76172 545.50977 L 885.81445 563.33008 L 876.96484 567.85742 L 807.96289 560.83008 L 867.35156 532.05469 L 865.91602 529.09375 L 801.72852 560.19531 L 761.86328 556.13672 L 835.875 524.64062 L 839.4707 511.69531 z M 469.00391 513.51758 L 483.3125 513.93945 L 468.08789 527.89648 L 467.83398 527.8418 L 469.00391 513.51758 z M 523.48242 515.52734 L 553.87891 544.13477 L 560.30469 553.88477 L 532.19727 568.32422 L 462.70117 591.49023 L 463.74219 594.61133 L 533.47656 571.36523 L 562.125 556.64648 L 568.16406 565.80859 L 568.16016 565.82227 L 568.17773 565.82617 L 582.78906 588 L 559.83984 608.39844 L 537.47266 609.60742 L 537.19727 609.45508 L 537.10156 609.62695 L 527.55273 610.14258 L 496.47656 605.70312 L 496.43359 606.00195 L 462.30859 595.43945 L 463.91406 575.81055 L 466.73242 574.82812 L 464.14844 572.94922 L 464.77344 565.29492 L 516.43164 518.08789 L 523.48242 515.52734 z M 550.59961 515.82617 L 560.83203 519.54688 L 553.61719 528.18359 L 550.59961 515.82617 z M 242.11523 516.33203 L 252.33594 517.79297 L 244.10352 523.79297 L 242.11523 516.33203 z M 417.27344 520.52539 L 419.26758 520.94727 L 412.66797 552.90039 L 410.05859 552.41016 L 417.27344 520.52539 z M 422.48828 521.62695 L 464.31836 530.46289 L 461.03125 570.68164 L 451.1543 563.5 L 460.24219 565.21289 L 460.84961 561.97852 L 444.94141 558.98047 L 444.55469 558.70117 L 444.42188 558.88281 L 415.9043 553.51172 L 422.48828 521.62695 z M 243.80469 528.08008 L 295.58008 567.97266 L 294.01172 568.89062 L 321.79297 616.28125 L 311.01758 631.11719 L 198.34375 561.64648 L 212.49609 551.55078 L 212.1875 551.11719 L 243.80469 528.08008 z M 615.31836 529.31836 L 600.03906 559.39844 L 567.89258 553.68555 L 615.31836 529.31836 z M 664.43945 531.34766 L 670.2832 537.03711 L 669.70312 538.36328 L 659.06445 535.85547 L 664.43945 531.34766 z M 720.91211 534.35547 L 718.29492 536.47266 L 706.875 547.13281 L 688.5293 542.80469 L 720.91211 534.35547 z M 389.90039 536.86133 L 395.62305 548.82617 L 386.84961 547.77344 L 389.90039 536.86133 z M 655.91797 538.49414 L 668.36133 541.42969 L 665.20117 548.65234 L 667.79688 549.78711 L 662.70312 549.87891 L 661.83008 549.22461 L 661.31836 549.9043 L 641.89453 550.25586 L 655.91797 538.49414 z M 466.90625 539.19141 L 477.44531 549.25781 L 465.16797 560.47656 L 466.90625 539.19141 z M 671.61914 542.19727 L 676.85547 543.43359 L 683.09961 549.50781 L 668.30469 549.7793 L 671.61914 542.19727 z M 683.08398 544.90234 L 704.30078 549.9043 L 700.05078 558.40039 L 702.99609 559.87305 L 707.32617 551.21289 L 707.83398 550.73828 L 744.29688 559.33984 L 726.12891 581.29492 L 728.66406 583.39258 L 747.87305 560.18359 L 750.75586 560.86328 L 751.56836 560.51562 L 779.19336 571.11914 L 741.61914 597.95898 L 741.95312 598.42773 L 715.10547 572.17578 L 693.68359 555.2168 L 683.08398 544.90234 z M 352.76367 546.36523 L 352.85156 546.42188 L 366.3418 548.55078 L 356.88672 560.99023 L 352.76367 546.36523 z M 894.61328 547.35547 L 912.54492 558.95117 L 889.85547 561.62109 L 894.61328 547.35547 z M 372.46875 549.36328 L 382.64648 550.58398 L 378.66797 564.81055 L 374.17578 574.48242 L 362.35742 571.91406 L 372.46875 549.36328 z M 385.95117 550.98047 L 392.71094 551.79102 L 385.08594 554.07812 L 385.95117 550.98047 z M 367.43359 552.55078 L 359.49609 570.25195 L 358.00586 564.95703 L 367.43359 552.55078 z M 686.37305 552.69531 L 691.50977 557.69336 L 712.92578 574.65039 L 714.29883 575.99219 L 702.44336 595.75195 L 658.69922 590.50195 L 652.14062 591.13086 L 648.82422 572.04883 L 662.98438 553.16602 L 686.37305 552.74219 L 686.37305 552.69531 z M 658.81445 553.24414 L 645.33789 571.21094 L 648.85547 591.44727 L 593.36914 596.76758 L 593.51758 598.29492 L 590.55664 593.80078 L 590.64062 593.51562 L 590.30078 593.41602 L 589.60547 592.35938 L 590.59766 592.73828 L 601.9375 563.08008 L 604.33008 563.50391 L 624.39062 557.53906 L 644.32617 572.06641 L 646.26562 569.4082 L 628.36133 556.36133 L 637.54883 553.62891 L 658.81445 553.24414 z M 398.31445 553.54492 L 406.09766 555.01172 L 398.65625 587.89453 L 383.91211 577.21484 L 383.6543 560.89258 L 383.17969 560.89844 L 384.03711 557.83008 L 398.31445 553.54492 z M 409.33203 555.62109 L 412.00195 556.125 L 404.55859 592.16797 L 401.55664 589.99414 L 409.33203 555.62109 z M 566.10938 556.71094 L 592.94141 561.48047 L 585.99414 567.14844 L 570.23438 562.96875 L 566.10938 556.71094 z M 415.23828 556.73438 L 443.60547 562.07812 L 459.71484 573.79297 L 407.98242 591.85742 L 415.23828 556.73438 z M 756.54883 558.90234 L 796.08594 562.92773 L 783.24805 569.15039 L 756.54883 558.90234 z M 597.21484 562.24023 L 598.63867 562.49219 L 588.09375 590.06836 L 582.08594 580.95117 L 586.5332 570.69727 L 586.77539 570.76172 L 597.21484 562.24023 z M 802.32227 563.56445 L 871.57227 570.61719 L 847.91797 582.71875 L 837.88086 590.08789 L 836.84961 589.72461 L 787.45898 570.76562 L 802.32227 563.56445 z M 572.95312 567.0957 L 583.31445 569.84375 L 579.92188 577.66992 L 572.95312 567.0957 z M 355.51172 568.23828 L 356.66992 572.35156 L 351.93555 572.94336 L 355.51172 568.23828 z M 380.48633 568.70703 L 380.59961 575.87891 L 377.4707 575.19922 L 380.48633 568.70703 z M 297.92383 569.06055 L 327.33398 577.14844 L 326.23438 577.95898 L 338.01367 593.94727 L 323.90234 613.37695 L 297.92383 569.06055 z M 783.39844 572.73242 L 834.69922 592.42383 L 787.45117 627.11328 L 765.74219 621.6875 L 743.92578 600.35547 L 780.9043 573.94141 L 783.39844 572.73242 z M 361.40625 575.07422 L 372.75391 577.54102 L 365.78125 592.54492 L 360.88867 575.1875 L 360.91211 575.13672 L 361.40625 575.07422 z M 357.0918 575.61523 L 349.26562 593.07031 L 341.53125 593.17383 L 339.08398 589.85156 L 349.15039 576.60742 L 357.0918 575.61523 z M 344.58203 577.17969 L 337.04883 587.08984 L 330.33008 577.9707 L 332.79883 578.65039 L 344.58203 577.17969 z M 376.04883 578.25781 L 380.65234 579.25977 L 380.86328 592.64844 L 369.29102 592.80273 L 376.04883 578.25781 z M 716.7168 578.35742 L 720.22461 581.78516 L 714.39062 582.23633 L 716.7168 578.35742 z M 358.78906 579.87109 L 362.45898 592.89453 L 352.89258 593.02148 L 358.78906 579.87109 z M 383.97656 581.32617 L 397.86719 591.38672 L 397.63086 592.42383 L 384.1543 592.60352 L 383.97656 581.32617 z M 723.03906 584.53906 L 737.98828 599.1543 L 725.19531 607.43359 L 718.78125 606.89648 L 706.14258 596.25586 L 705.5625 596.94727 L 712.31445 585.69531 L 723.06641 584.86914 L 723.03906 584.53906 z M 584.61914 590.77539 L 586.9668 594.33789 L 576.20703 630.83008 L 542.94922 612.60742 L 561.16602 611.62305 L 584.61914 590.77539 z M 658.66016 593.8125 L 704.16797 599.27148 L 704.31836 599.02148 L 713.54102 606.78711 L 652.13672 617.16602 L 638.56445 595.73828 L 658.66016 593.8125 z M 403.73438 595.63477 L 403.82812 595.70312 L 397.9043 624.38672 L 394.22461 622.39258 L 400.26953 595.68164 L 403.73438 595.63477 z M 396.88281 595.72656 L 391.2207 620.76172 L 384.54102 617.14258 L 384.20703 595.89648 L 396.88281 595.72656 z M 380.91602 595.93945 L 381.2207 615.3457 L 370.58398 609.58008 L 367.15234 597.4043 L 367.75 596.11523 L 380.91602 595.93945 z M 634.89258 596.08984 L 648.35742 617.35352 L 606.61719 618.17188 L 594.60938 599.95312 L 634.89258 596.08984 z M 363.38477 596.17383 L 363.6543 597.125 L 360.42383 604.07617 L 350.37891 598.63086 L 351.4082 596.33398 L 363.38477 596.17383 z M 347.78125 596.38281 L 347.47656 597.05859 L 346.26758 596.40234 L 347.78125 596.38281 z M 462.03516 598.79883 L 488.5957 607.01953 L 480.87109 610.67969 L 461.64062 603.62109 L 462.03516 598.79883 z M 365.02148 601.98633 L 366.54492 607.39258 L 363.32422 605.64648 L 365.02148 601.98633 z M 461.36328 607.02539 L 476.69922 612.6543 L 460.26758 620.43555 L 461.36328 607.02539 z M 647.2168 620.66797 L 618.30664 635.90625 L 608.75781 621.41992 L 647.2168 620.66797 z M 770.4043 626.24609 L 784.00195 629.64453 L 778.25781 633.86133 L 778.21094 633.87695 L 770.4043 626.24609 z "
       transform="translate(50.754,109.33)"
       id="path3026" />
  </g>
  <metadata
     id="metadata342">
    <rdf:RDF>
      <cc:Work>
        <dc:format>image/svg+xml</dc:format>
        <dc:type
           rdf:resource="http://purl.org/dc/dcmitype/StillImage" />
        <cc:license
           rdf:resource="http://creativecommons.org/publicdomain/zero/1.0/" />
        <dc:publisher>
          <cc:Agent
             rdf:about="http://openclipart.org/">
            <dc:title>Openclipart</dc:title>
          </cc:Agent>
        </dc:publisher>
        <dc:title>Realistic spider web</dc:title>
      </cc:Work>
      <cc:License
         rdf:about="http://creativecommons.org/publicdomain/zero/1.0/">
        <cc:permits
           rdf:resource="http://creativecommons.org/ns#Reproduction" />
        <cc:permits
           rdf:resource="http://creativecommons.org/ns#Distribution" />
        <cc:permits
           rdf:resource="http://creativecommons.org/ns#DerivativeWorks" />
      </cc:License>
    </rdf:RDF>
  </metadata>
</svg>
