<?xml version="1.0" encoding="UTF-8" standalone="no"?>
<svg
   height="100px"
   width="100px"
   fill="#000000"
   version="1.1"
   x="0px"
   y="0px"
   viewBox="0 0 95 95"
   enable-background="new 0 0 95 95"
   xml:space="preserve"
   id="svg4"
   xmlns="http://www.w3.org/2000/svg"
   xmlns:svg="http://www.w3.org/2000/svg"
   xmlns:rdf="http://www.w3.org/1999/02/22-rdf-syntax-ns#"
   xmlns:cc="http://creativecommons.org/ns#"
   xmlns:dc="http://purl.org/dc/elements/1.1/"><metadata
     id="metadata10"><rdf:RDF><cc:Work
         rdf:about=""><dc:format>image/svg+xml</dc:format><dc:type
           rdf:resource="http://purl.org/dc/dcmitype/StillImage" /></cc:Work></rdf:RDF></metadata><defs
     id="defs8" /><rect
     style="opacity:1;vector-effect:none;fill:#f2f2f2;fill-opacity:1;stroke:none;stroke-width:3.79999995;stroke-linecap:butt;stroke-linejoin:miter;stroke-miterlimit:4;stroke-dasharray:none;stroke-dashoffset:0;stroke-opacity:1"
     id="rect819"
     width="95"
     height="95"
     x="0"
     y="0" /><path
     d="m 74.797528,31.305083 c 0,-6.160943 -4.994325,-11.155269 -11.155268,-11.155269 -6.130227,0 -11.101359,4.946683 -11.150255,11.064999 l -9.000067,1.203603 c -1.129004,-3.458478 -4.374972,-5.95909 -8.209576,-5.95909 -4.769905,0 -8.637734,3.867202 -8.637734,8.637734 0,3.824574 2.488074,7.063018 5.932134,8.198919 l -1.269425,9.24455 c -6.137749,0.02821 -11.103865,5.009371 -11.103865,11.152762 0,6.160942 4.994325,11.155895 11.155268,11.155895 6.147779,0 11.130822,-4.973638 11.152762,-11.115149 l 10.417436,-1.439935 c 1.139662,3.438419 4.374972,5.922103 8.195786,5.922103 4.769903,0 8.637732,-3.867202 8.637732,-8.637733 0,-3.967502 -2.678644,-7.301859 -6.323932,-8.314891 l 0.786104,-8.832065 c 5.889506,-0.305288 10.5729,-5.16233 10.5729,-11.126433 z M 52.506424,59.187928 42.075823,60.630371 c -1.05566,-3.697944 -3.965621,-6.6054 -7.66482,-7.657925 l 1.269425,-9.257087 c 4.440795,-0.203734 7.998945,-3.751856 8.216472,-8.18889 l 9.013859,-1.205483 c 1.090765,3.890396 4.23267,6.91445 8.19077,7.837838 l -0.786104,8.822035 c -4.26088,0.396186 -7.614044,3.888516 -7.809001,8.207069 z"
     id="path2"
     style="fill:#0482d8;fill-opacity:1;stroke-width:0.62687665;opacity:0.3" /></svg>
